<?xml version="1.0" standalone="no"?>
<!DOCTYPE svg PUBLIC "-//W3C//DTD SVG 1.1//EN" "http://www.w3.org/Graphics/SVG/1.1/DTD/svg11.dtd" >
<svg xmlns="http://www.w3.org/2000/svg">
<metadata></metadata>
<defs>
<font id="verbultra" horiz-adv-x="1316" >
<font-face units-per-em="2048" ascent="1638" descent="-410" />
<missing-glyph horiz-adv-x="557" />
<glyph unicode="ff" horiz-adv-x="1699" d="M27 772v303h145q8 209 99 313.5t282 104.5q194 0 410 -98l-117 -265q-134 37 -174 37q-17 0 -27.5 -2t-25 -9.5t-22 -27.5t-7.5 -51v-2h211v-303h-211v-772h-418v772h-145zM866 772v303h146q8 209 99 313.5t282 104.5q193 0 409 -98l-137 -265q-116 37 -154 37 q-17 0 -27.5 -2t-24.5 -9.5t-21.5 -27.5t-7.5 -51v-2h247v-303h-247v-772h-418v772h-146z" />
<glyph unicode="fi" horiz-adv-x="1458" d="M27 772v303h145q8 209 99 313.5t282 104.5q151 0 321 -80l-88 -270q-79 24 -114 24q-17 0 -27.5 -2t-25 -9.5t-22 -27.5t-7.5 -51v-2h248v-303h-248v-772h-418v772h-145zM942 1174v313h434v-313h-434zM948 0v1075h420v-1075h-420z" />
<glyph unicode="fl" horiz-adv-x="1456" d="M27 772v303h145q8 209 99 313.5t282 104.5q151 0 321 -80l-88 -270q-79 24 -114 24q-17 0 -27.5 -2t-25 -9.5t-22 -27.5t-7.5 -51v-2h248v-303h-248v-772h-418v772h-145zM948 0v1493h420v-1493h-420z" />
<glyph unicode="ffi" horiz-adv-x="2297" d="M27 772v303h145q8 209 99 313.5t282 104.5q194 0 410 -98l-117 -265q-134 37 -174 37q-17 0 -27.5 -2t-25 -9.5t-22 -27.5t-7.5 -51v-2h211v-303h-211v-772h-418v772h-145zM866 772v303h146q8 209 99 313.5t282 104.5q151 0 321 -80l-88 -270q-79 24 -115 24 q-17 0 -27.5 -2t-24.5 -9.5t-21.5 -27.5t-7.5 -51v-2h247v-303h-247v-772h-418v772h-146zM1782 1174v313h434v-313h-434zM1788 0v1075h420v-1075h-420z" />
<glyph unicode="ffl" horiz-adv-x="2295" d="M27 772v303h145q8 209 99 313.5t282 104.5q194 0 410 -98l-117 -265q-134 37 -174 37q-17 0 -27.5 -2t-25 -9.5t-22 -27.5t-7.5 -51v-2h211v-303h-211v-772h-418v772h-145zM866 772v303h146q8 209 99 313.5t282 104.5q151 0 321 -80l-88 -270q-79 24 -115 24 q-17 0 -27.5 -2t-24.5 -9.5t-21.5 -27.5t-7.5 -51v-2h247v-303h-247v-772h-418v772h-146zM1788 0v1493h420v-1493h-420z" />
<glyph unicode="ffk" horiz-adv-x="2965" d="M27 772v303h145q8 209 99 313.5t282 104.5q194 0 410 -98l-117 -265q-134 37 -174 37q-17 0 -27.5 -2t-25 -9.5t-22 -27.5t-7.5 -51v-2h211v-303h-211v-772h-418v772h-145zM866 772v303h146q8 209 99 313.5t282 104.5q151 0 321 -80l-88 -270q-79 24 -115 24 q-17 0 -27.5 -2t-24.5 -9.5t-21.5 -27.5t-7.5 -51v-2h247v-303h-247v-772h-418v772h-146zM1788 0v1493h420v-741l235 323h488l-363 -422l424 -653h-452l-224 362l-108 -126v-236h-420z" />
<glyph unicode="ffj" horiz-adv-x="2312" d="M27 772v303h145q8 209 99 313.5t282 104.5q194 0 410 -98l-117 -265q-134 37 -174 37q-17 0 -27.5 -2t-25 -9.5t-22 -27.5t-7.5 -51v-2h211v-303h-211v-772h-418v772h-145zM866 772v303h146q8 209 99 313.5t282 104.5q151 0 321 -80l-88 -270q-79 24 -115 24 q-17 0 -27.5 -2t-24.5 -9.5t-21.5 -27.5t-7.5 -51v-2h247v-303h-247v-772h-418v772h-146zM1567 -188q61 21 100 36t67 34t41 31.5t20 40t8 45.5t1 62v1014h420v-979q0 -103 -2.5 -150t-17 -118t-46 -105.5t-89.5 -79t-148.5 -73.5t-220.5 -57zM1796 1174v313h434v-313h-434z " />
<glyph unicode="fft" horiz-adv-x="2621" d="M27 772v303h145q8 209 99 313.5t282 104.5q194 0 410 -98l-117 -265q-134 37 -174 37q-17 0 -27.5 -2t-25 -9.5t-22 -27.5t-7.5 -51v-2h211v-303h-211v-772h-418v772h-145zM866 772v303h146q8 209 99 313.5t282 104.5q193 0 409 -98l-137 -265q-116 37 -154 37 q-17 0 -27.5 -2t-24.5 -9.5t-21.5 -27.5t-7.5 -51v-2h212v-303h-212v-772h-418v772h-146zM1708 772v303h145v271l418 40v-311h289v-303h-289v-340q0 -31 7.5 -51t22 -27.5t25 -9.5t27.5 -2q13 0 29 3t33 9t29 10.5t27 11t17 7.5l144 -307q-218 -99 -398 -99 q-199 0 -290 113.5t-91 341.5v340h-145z" />
<glyph unicode="fh" horiz-adv-x="2177" d="M27 772v303h145q8 209 99 313.5t282 104.5q151 0 321 -80l-88 -270q-79 24 -114 24q-17 0 -27.5 -2t-25 -9.5t-22 -27.5t-7.5 -51v-2h248v-303h-248v-772h-418v772h-145zM948 0v1493h420v-522q198 127 391 127q338 0 338 -346v-752h-420v649q0 63 -20.5 95t-75.5 32 q-53 0 -110.5 -27t-102.5 -71v-678h-420z" />
<glyph unicode="fj" horiz-adv-x="1472" d="M27 772v303h145q8 209 99 313.5t282 104.5q151 0 321 -80l-88 -270q-79 24 -114 24q-17 0 -27.5 -2t-25 -9.5t-22 -27.5t-7.5 -51v-2h248v-303h-248v-772h-418v772h-145zM727 -188q46 15 78.5 27.5t59 26.5t42.5 23t28 26t17.5 27t8.5 33t3.5 38t0.5 48v1014h419v-979 q0 -103 -2.5 -150t-17 -118t-46 -105.5t-89.5 -79t-148.5 -73.5t-220.5 -57zM956 1174v313h435v-313h-435z" />
<glyph unicode="fk" horiz-adv-x="2125" d="M27 772v303h145q8 209 99 313.5t282 104.5q151 0 321 -80l-88 -270q-79 24 -114 24q-17 0 -27.5 -2t-25 -9.5t-22 -27.5t-7.5 -51v-2h248v-303h-248v-772h-418v772h-145zM948 0v1493h420v-741l236 323h487l-362 -422l423 -653h-452l-223 362l-109 -126v-236h-420z" />
<glyph unicode="ft" horiz-adv-x="1781" d="M27 772v303h145q8 209 99 313.5t282 104.5q194 0 410 -98l-138 -265q-116 37 -153 37q-17 0 -27.5 -2t-25 -9.5t-22 -27.5t-7.5 -51v-2h211v-303h-211v-772h-418v772h-145zM868 772v303h146v271l418 40v-311h288v-303h-288v-340q0 -31 7.5 -51t21.5 -27.5t24.5 -9.5 t27.5 -2q13 0 29 3t33.5 9t29 10.5t27.5 11.5t17 7l143 -307q-218 -99 -397 -99q-199 0 -290 113.5t-91 341.5v340h-146z" />
<glyph unicode="ffh" horiz-adv-x="3016" d="M27 772v303h145q8 209 99 313.5t282 104.5q194 0 410 -98l-117 -265q-134 37 -174 37q-17 0 -27.5 -2t-25 -9.5t-22 -27.5t-7.5 -51v-2h211v-303h-211v-772h-418v772h-145zM866 772v303h146q8 209 99 313.5t282 104.5q151 0 321 -80l-88 -270q-79 24 -115 24 q-17 0 -27.5 -2t-24.5 -9.5t-21.5 -27.5t-7.5 -51v-2h247v-303h-247v-772h-418v772h-146zM1788 0v1493h420v-522q198 127 391 127q338 0 338 -346v-752h-420v649q0 63 -20.5 95t-75.5 32q-53 0 -110.5 -27t-102.5 -71v-678h-420z" />
<glyph unicode="ffb" horiz-adv-x="3018" d="M27 772v303h145q8 209 99 313.5t282 104.5q194 0 410 -98l-117 -265q-134 37 -174 37q-17 0 -27.5 -2t-25 -9.5t-22 -27.5t-7.5 -51v-2h211v-303h-211v-772h-418v772h-145zM866 772v303h146q8 209 99 313.5t282 104.5q151 0 321 -80l-88 -270q-79 24 -115 24 q-17 0 -27.5 -2t-24.5 -9.5t-21.5 -27.5t-7.5 -51v-2h247v-303h-247v-772h-418v772h-146zM1788 0v1493h420v-516q76 60 154.5 90.5t185.5 30.5q200 0 314 -147t114 -414q0 -265 -114.5 -412.5t-313.5 -147.5q-107 0 -185.5 30t-154.5 89v-96h-420zM2208 414 q88 -103 196 -103q148 0 148 228q0 225 -148 225q-106 0 -196 -105v-245z" />
<glyph unicode="fb" horiz-adv-x="2181" d="M27 772v303h145q8 209 99 313.5t282 104.5q151 0 321 -80l-88 -270q-79 24 -114 24q-17 0 -27.5 -2t-25 -9.5t-22 -27.5t-7.5 -51v-2h248v-303h-248v-772h-418v772h-145zM948 0v1493h420v-516q76 60 154.5 90.5t185.5 30.5q200 0 314 -147t114 -414q0 -265 -114.5 -412.5 t-313.5 -147.5q-107 0 -185.5 30t-154.5 89v-96h-420zM1368 414q88 -103 197 -103q147 0 147 228q0 225 -147 225q-107 0 -197 -105v-245z" />
<glyph unicode=" "  horiz-adv-x="557" />
<glyph unicode="&#x09;" horiz-adv-x="557" />
<glyph unicode="&#xa0;" horiz-adv-x="557" />
<glyph unicode="!" horiz-adv-x="614" d="M51 1434h512l-131 -936h-250zM100 0v387h414v-387h-414z" />
<glyph unicode="&#x22;" horiz-adv-x="1083" d="M47 1434h387l-65 -588h-256zM518 1434h387l-65 -588h-256z" />
<glyph unicode="#" horiz-adv-x="1488" d="M55 281v309h248l39 254h-203v311h250l43 279h316l-43 -279h210l43 279h318l-43 -279h201v-311h-248l-39 -254h203v-309h-250l-41 -281h-318l41 281h-211l-41 -281h-317l43 281h-201zM618 590h211l39 254h-211z" />
<glyph unicode="$" horiz-adv-x="1390" d="M47 188l191 308q101 -57 257.5 -108.5t254.5 -51.5q58 0 94.5 16t36.5 47q0 27 -23 45.5t-69 32.5t-98.5 25.5t-130.5 34t-146 49.5q-48 17 -91.5 40t-90 59.5t-79 80.5t-54 106.5t-21.5 133.5q0 87 30 162t88 135.5t151.5 99.5t213.5 49v188h297v-202q236 -41 447 -144 l-193 -313q-98 43 -226 80t-212 37q-59 0 -96 -16t-37 -48q0 -43 56.5 -65.5t185 -52t223.5 -68.5q34 -14 61.5 -27t64 -34.5t64.5 -44t56.5 -55.5t47.5 -69.5t31 -84t12 -101.5q0 -87 -30.5 -163.5t-89.5 -137t-152.5 -100t-212.5 -49.5v-187h-297v201q-148 25 -285 78 t-229 114z" />
<glyph unicode="%" horiz-adv-x="2101" d="M47 1071q0 176 109.5 280.5t312.5 104.5q204 0 314 -104.5t110 -280.5t-109.5 -279.5t-314.5 -103.5q-203 0 -312.5 103.5t-109.5 279.5zM346 1071q0 -137 123 -137q125 0 125 137q0 139 -125 139q-123 0 -123 -139zM524 0l733 1434h316l-733 -1434h-316zM1208 360 q0 177 109 281t313 104t314 -104.5t110 -280.5t-109.5 -279.5t-314.5 -103.5q-204 0 -313 103.5t-109 279.5zM1507 360q0 -137 123 -137q125 0 125 137q0 140 -125 140q-123 0 -123 -140z" />
<glyph unicode="&#x26;" horiz-adv-x="1544" d="M78 371q0 63 22 120t63 104t86 84t105 75q-86 87 -130 163.5t-44 167.5q0 163 132 267t345 104q108 0 198 -29t147.5 -78t88.5 -111.5t31 -129.5q0 -75 -40.5 -147.5t-94.5 -124t-135 -111.5l168 -166q50 89 53 197h418q-15 -102 -67.5 -223t-139.5 -230l313 -303h-473 l-90 88q-198 -111 -444 -111q-224 0 -368 112.5t-144 281.5zM489 381q0 -43 38 -70.5t102 -27.5q74 0 159 45l-204 200q-95 -85 -95 -147zM551 1069q0 -59 90 -145q111 76 111 145q0 35 -25.5 66.5t-73.5 31.5t-75 -31t-27 -67z" />
<glyph unicode="'" horiz-adv-x="540" d="M47 1434h387l-65 -588h-256z" />
<glyph unicode="(" horiz-adv-x="768" d="M80 291v844q0 69 1 102.5t5 87.5t14 81t27.5 67.5t44.5 62.5t66.5 51.5t93 49.5t123 41t157.5 40l101 -223q-57 -20 -93 -40t-57.5 -38t-31.5 -45.5t-12.5 -51t-2.5 -67.5v-1081q0 -44 2.5 -67.5t12.5 -51t31.5 -45.5t57.5 -38t93 -40l-101 -223q-79 17 -143.5 34.5 t-115.5 39.5t-89.5 40t-67.5 47.5t-49 50.5t-32.5 60t-19.5 63.5t-10.5 74.5t-4 81t-0.5 93z" />
<glyph unicode=")" horiz-adv-x="768" d="M55 -70q57 20 93 40t57.5 38t31.5 45.5t12.5 51t2.5 67.5v1081q0 44 -2.5 67.5t-12.5 51t-31.5 45.5t-57.5 38t-93 40l101 223q88 -19 157.5 -40t123 -41t93 -49.5t66.5 -51.5t44.5 -62.5t27.5 -67.5t14 -81t5 -87.5t1 -102.5v-844q0 -62 -0.5 -93t-4 -81t-10.5 -74.5 t-19.5 -63.5t-32.5 -60t-49 -50.5t-67.5 -47.5t-89.5 -40t-115.5 -39.5t-143.5 -34.5z" />
<glyph unicode="*" horiz-adv-x="964" d="M47 956l338 54l-338 57l170 295l217 -266l-121 321h340l-121 -321l216 266l170 -295l-318 -53l318 -58l-170 -294l-209 247l114 -305h-340l121 322l-217 -264z" />
<glyph unicode="+" horiz-adv-x="1290" d="M104 528v310h385v348h310v-348h385v-310h-385v-348h-310v348h-385z" />
<glyph unicode="," horiz-adv-x="606" d="M84 -244l184 244h-182v428h412l22 -487l-332 -320z" />
<glyph unicode="-" horiz-adv-x="888" d="M86 418v330h717v-330h-717z" />
<glyph unicode="." horiz-adv-x="581" d="M84 0v428h414v-428h-414z" />
<glyph unicode="/" horiz-adv-x="1036" d="M33 -184l663 1802h310l-664 -1802h-309z" />
<glyph unicode="0" horiz-adv-x="1439" d="M63 717q0 351 169.5 545t488.5 194t487 -194t168 -545t-169 -545.5t-488 -194.5t-487.5 194.5t-168.5 545.5zM504 717q0 -116 15 -196.5t44.5 -125.5t67 -64.5t88.5 -19.5t89 19t67.5 64t45 125.5t15.5 197.5q0 116 -15 196.5t-44.5 125.5t-67 64t-88.5 19 q-41 0 -72.5 -11.5t-59.5 -39.5t-46 -73.5t-28.5 -116t-10.5 -164.5z" />
<glyph unicode="1" horiz-adv-x="946" d="M-20 1190l430 244h417v-1434h-436v1038l-244 -127z" />
<glyph unicode="2" horiz-adv-x="1312" d="M41 0v170q0 336 442 602q42 26 99.5 58t90 50.5t65 41.5t47 44.5t14.5 45.5q0 36 -37 61t-109 25q-143 0 -385 -135l-190 276q316 217 643 217q130 0 231.5 -34t162.5 -93.5t92.5 -134t31.5 -160.5q0 -60 -16 -115t-39 -97.5t-62.5 -84.5t-73 -70t-85.5 -60.5t-85 -50 t-85 -44.5q-65 -32 -106 -55t-76.5 -51.5t-35.5 -47.5h666v-358h-1200z" />
<glyph unicode="3" horiz-adv-x="1308" d="M6 184l189 291q255 -135 438 -135q178 0 178 100q0 23 -8.5 41.5t-27.5 31t-37.5 22t-50 15t-53 9t-59 5t-55 1.5h-53.5h-8.5h-7.5h-62v359h72q151 0 210 18q81 24 81 84q0 72 -123 72q-85 0 -189.5 -37t-193.5 -84l-176 268q295 211 632 211q244 0 365 -100t121 -256 q0 -202 -209 -309q119 -40 195.5 -139t76.5 -220q0 -70 -16.5 -132.5t-57.5 -122.5t-103.5 -103.5t-160.5 -70t-223 -26.5q-345 0 -684 207z" />
<glyph unicode="4" horiz-adv-x="1474" d="M25 236v296l618 902h580v-840h215v-358h-215v-236h-437v236h-761zM463 594h323v487z" />
<glyph unicode="5" horiz-adv-x="1296" d="M25 182l188 312q220 -146 387 -146q92 0 147.5 33t55.5 96q0 58 -50.5 98.5t-152.5 40.5q-118 0 -260 -69l-242 153l78 734h1012v-359h-643l-8 -129q87 19 174 19q134 0 238.5 -40t167 -108.5t94.5 -154t32 -181.5q0 -81 -21.5 -154t-68 -137.5t-113.5 -111.5t-164 -74 t-214 -27q-330 0 -637 205z" />
<glyph unicode="6" horiz-adv-x="1343" d="M57 600q0 187 67.5 346t188 271.5t294 175.5t378.5 63q63 0 122 -5.5t87 -10.5l27 -6l-101 -338q-59 10 -133 10q-319 0 -432 -250q119 76 289 76q202 0 334.5 -121.5t132.5 -323.5q0 -104 -41.5 -196.5t-117 -162t-190.5 -110.5t-253 -41q-133 0 -242.5 34t-184.5 92.5 t-126.5 138.5t-75 169.5t-23.5 188.5zM498 537q1 -62 21.5 -106t52.5 -65t62 -29.5t62 -8.5q91 0 134.5 42.5t43.5 98.5q0 67 -49.5 106t-130.5 39q-119 0 -196 -77z" />
<glyph unicode="7" horiz-adv-x="1144" d="M39 1075v359h1087v-338q-11 -13 -29.5 -35.5t-71.5 -94.5t-101.5 -145.5t-107.5 -180t-101.5 -206.5t-71.5 -216.5t-29 -217.5h-448q0 134 48 289t110 276.5t141.5 242.5t123 177t73.5 90h-623z" />
<glyph unicode="8" horiz-adv-x="1386" d="M45 399q0 139 80 230.5t217 156.5q-203 132 -203 312q0 160 143.5 259t409.5 99q267 0 411 -99t144 -259q0 -180 -205 -312q65 -31 115 -65t93.5 -80.5t67 -107.5t23.5 -134q0 -196 -167.5 -309t-481.5 -113q-313 0 -480 113t-167 309zM485 436q0 -57 57 -96t150 -39 q94 0 151.5 39t57.5 96q0 58 -54 101.5t-155 85.5q-100 -42 -153.5 -85.5t-53.5 -101.5zM563 1055q0 -75 129 -131q131 56 131 131q0 31 -34 60.5t-97 29.5q-62 0 -95.5 -29.5t-33.5 -60.5z" />
<glyph unicode="9" horiz-adv-x="1345" d="M33 946q0 104 41.5 196.5t117 162t190.5 110.5t253 41q133 0 242.5 -34t184.5 -92t126 -138t74.5 -169.5t23.5 -188.5q0 -187 -67.5 -346t-188 -271.5t-294 -176t-378.5 -63.5q-63 0 -121.5 5.5t-86.5 11.5l-27 6l100 338q59 -10 133 -10q319 0 432 247 q-124 -73 -288 -73q-202 0 -334.5 121t-132.5 323zM469 965q0 -67 50 -106.5t130 -39.5q117 0 197 76q-1 50 -15.5 89t-35.5 61.5t-48.5 36.5t-51.5 19t-48 5q-91 0 -134.5 -42.5t-43.5 -98.5z" />
<glyph unicode=":" horiz-adv-x="610" d="M98 0v428h414v-428h-414zM98 592v428h414v-428h-414z" />
<glyph unicode=";" horiz-adv-x="632" d="M98 -244l185 244h-183v428h412l23 -487l-332 -320zM100 592v428h414v-428h-414z" />
<glyph unicode="&#x3c;" horiz-adv-x="1290" d="M76 545v276l1077 410v-344l-616 -205l616 -209v-338z" />
<glyph unicode="=" horiz-adv-x="1290" d="M104 328v309h1080v-309h-1080zM104 735v309h1080v-309h-1080z" />
<glyph unicode="&#x3e;" horiz-adv-x="1290" d="M135 135v344l617 205l-617 209v338l1077 -410v-276z" />
<glyph unicode="?" horiz-adv-x="1157" d="M41 1286q282 170 549 170q231 0 371.5 -109.5t140.5 -287.5q0 -83 -29.5 -151.5t-74.5 -115t-114 -85t-132.5 -61.5t-145.5 -44l-18 -104h-252l-21 325q208 39 278.5 70t70.5 94q0 42 -35.5 76.5t-114.5 34.5q-137 0 -299 -105zM256 0v387h412v-387h-412z" />
<glyph unicode="@" horiz-adv-x="1939" d="M61 518q0 194 64 357t182 280.5t295.5 183.5t394.5 66q213 0 383 -66t280 -184.5t168.5 -280t59.5 -354.5q0 -92 -11.5 -173.5t-42 -161t-78 -135.5t-124.5 -91t-176 -35q-64 0 -117.5 17.5t-87.5 44t-59 61.5t-37.5 66t-17.5 61q-141 -129 -326 -129q-147 0 -238.5 86 t-91.5 225q0 146 98 228t255 82q47 0 103 -7t123.5 -20t74.5 -14v61q0 75 -33.5 105t-118.5 30q-152 0 -344 -76l-94 201q282 98 497 98q201 0 293 -88.5t92 -281.5v-281q0 -51 1 -83.5t4.5 -70t11 -60t19.5 -42t30.5 -28.5t44.5 -9q95 0 159 110.5t64 319.5q0 124 -29 235 t-90 206t-150 164t-215.5 108t-279.5 39q-195 0 -350 -58.5t-254 -162t-151 -242t-52 -301.5q0 -165 52 -305.5t147 -241.5t235 -158t308 -57q108 0 204.5 20.5t139.5 41.5l43 20l78 -100q-7 -4 -19.5 -11t-58 -25.5t-96 -32t-132.5 -25t-169 -11.5q-190 0 -351 66.5 t-273 183t-174.5 280.5t-62.5 355zM780 383q0 -58 34.5 -86.5t94.5 -28.5q118 0 226 92v123q-4 1 -55 9.5t-85.5 13t-62.5 4.5q-75 0 -113.5 -33t-38.5 -94z" />
<glyph unicode="A" horiz-adv-x="1509" d="M-10 0l524 1434h483l523 -1434h-476l-63 217h-453l-61 -217h-477zM625 555h260l-131 459z" />
<glyph unicode="B" horiz-adv-x="1445" d="M111 0v1434h655q575 0 575 -349q0 -69 -22.5 -128.5t-58 -97t-73 -60.5t-71.5 -29q34 -5 71.5 -20.5t79 -47t74.5 -73t54.5 -104.5t21.5 -136q0 -185 -137 -287t-426 -102h-743zM547 330h207q119 0 175 32t56 101q0 73 -57.5 104t-182.5 31h-198v-268zM547 903h180 q182 0 182 105q0 51 -43.5 73.5t-138.5 22.5h-180v-201z" />
<glyph unicode="C" horiz-adv-x="1353" d="M53 717q0 361 168 550t453 189q169 0 323 -52t344 -151l-196 -321q-260 133 -414 133q-115 0 -172 -93t-57 -255t57 -255t172 -93q154 0 414 133l196 -322q-190 -99 -344 -151t-323 -52q-139 0 -252 46.5t-196 137t-128 232.5t-45 324z" />
<glyph unicode="D" horiz-adv-x="1513" d="M111 0v1434h581q385 0 575.5 -170.5t190.5 -546.5t-190.5 -546.5t-575.5 -170.5h-581zM549 367h98q94 0 157 13t116 49.5t78.5 107.5t25.5 180t-25.5 180t-78.5 107.5t-116 49.5t-157 13h-98v-700z" />
<glyph unicode="E" horiz-adv-x="1292" d="M111 0v1434h1108v-367h-672v-170h545v-358h-545v-172h682v-367h-1118z" />
<glyph unicode="F" horiz-adv-x="1239" d="M111 0v1434h1108v-367h-672v-172h528v-358h-528v-537h-436z" />
<glyph unicode="G" horiz-adv-x="1474" d="M53 715q0 183 46 325t130 232.5t199.5 137t257.5 46.5q177 0 339.5 -52.5t358.5 -150.5l-196 -321q-278 133 -445 133q-120 0 -180.5 -93.5t-60.5 -254.5q0 -371 237 -371q115 0 254 123v53h-288v338h692v-860h-404v119q-165 -142 -360 -142q-119 0 -222.5 47t-184 136 t-127 232t-46.5 323z" />
<glyph unicode="H" horiz-adv-x="1523" d="M111 0v1434h436v-502h430v502h436v-1434h-436v573h-430v-573h-436z" />
<glyph unicode="I" horiz-adv-x="657" d="M111 0v1434h436v-1434h-436z" />
<glyph unicode="J" horiz-adv-x="677" d="M-106 -100q36 12 64.5 22.5t51.5 21.5t40 19t30 20.5t21.5 20t14.5 22t9 23t4.5 27.5t1.5 29.5v35.5v1293h436v-1268q0 -103 -2.5 -150t-17 -118t-47 -105.5t-91 -79t-150.5 -74t-224 -57.5z" />
<glyph unicode="K" horiz-adv-x="1503" d="M111 0v1434h436v-545l436 545h533l-580 -660l586 -774h-516l-340 469l-119 -137v-332h-436z" />
<glyph unicode="L" horiz-adv-x="1210" d="M111 0v1434h436v-1067h649v-367h-1085z" />
<glyph unicode="M" horiz-adv-x="1783" d="M111 0v1434h442l338 -721l338 721h444v-1434h-436v737l-233 -497h-224l-233 495v-735h-436z" />
<glyph unicode="N" horiz-adv-x="1556" d="M111 0v1434h440l459 -768v768h436v-1434h-440l-459 768v-768h-436z" />
<glyph unicode="O" horiz-adv-x="1601" d="M53 717q0 128 26.5 237.5t84.5 203t144.5 159t211.5 102.5t281 37q193 0 339 -56t234 -157.5t131 -233t43 -292.5t-43 -292.5t-131 -233.5t-234 -158t-339 -56q-156 0 -281 37t-211.5 103t-144.5 159.5t-84.5 203t-26.5 237.5zM502 717q0 -174 72 -271.5t227 -97.5 t227 97.5t72 271.5q0 368 -299 368t-299 -368z" />
<glyph unicode="P" horiz-adv-x="1411" d="M111 0v1434h669q613 0 613 -490q0 -485 -613 -485h-233v-459h-436zM547 813h201q100 0 152 27t52 104t-52 104t-152 27h-201v-262z" />
<glyph unicode="Q" horiz-adv-x="1601" d="M53 717q0 128 26.5 237.5t84.5 203t144.5 159t211.5 102.5t281 37q193 0 339 -56t234 -157.5t131 -233t43 -292.5q0 -213 -76.5 -378t-232.5 -257l217 -168l-285 -293l-370 356q-156 0 -281 37t-211.5 103t-144.5 159.5t-84.5 203t-26.5 237.5zM502 717q0 -174 72 -271.5 t227 -97.5t227 97.5t72 271.5q0 368 -299 368t-299 -368z" />
<glyph unicode="R" horiz-adv-x="1484" d="M111 0v1434h710q321 0 469 -116t148 -349q0 -349 -330 -434l332 -535h-471l-291 504h-131v-504h-436zM547 840h244q49 0 83 5t64 18t44.5 39.5t14.5 66.5t-14.5 66.5t-44.5 39.5t-64 18t-83 5h-244v-258z" />
<glyph unicode="S" horiz-adv-x="1349" d="M29 188l190 308q101 -57 257.5 -108.5t254.5 -51.5q58 0 94.5 16t36.5 47q0 27 -23 45.5t-69 32.5t-98.5 25.5t-130.5 34t-146 49.5q-48 17 -91.5 40t-90 59.5t-79 80.5t-54 106.5t-21.5 133.5q0 94 35.5 174.5t103.5 142.5t178.5 97.5t250.5 35.5q167 0 344 -46 t315 -116l-192 -313q-98 43 -226.5 80t-212.5 37q-59 0 -96 -16t-37 -48q0 -43 56.5 -65.5t185 -52t223.5 -68.5q49 -20 88 -39.5t88.5 -56t82.5 -78.5t56 -105t23 -137q0 -94 -36 -175.5t-105 -144.5t-179.5 -99t-250.5 -36q-199 0 -397 63.5t-328 147.5z" />
<glyph unicode="T" horiz-adv-x="1263" d="M18 1067v367h1227v-367h-391v-1067h-436v1067h-400z" />
<glyph unicode="U" horiz-adv-x="1501" d="M96 633v801h436v-844q0 -56 9 -96.5t31.5 -75t67.5 -52.5t112 -18q66 0 110.5 18t67 52.5t31 75t8.5 96.5v844h436v-801q0 -82 -7.5 -150.5t-26.5 -137.5t-50.5 -122.5t-82 -101t-117.5 -78.5t-160.5 -48.5t-208.5 -17.5q-160 0 -278 34.5t-189.5 91.5t-114.5 144 t-58.5 178t-15.5 208z" />
<glyph unicode="V" horiz-adv-x="1501" d="M-14 1434h510l256 -906l256 906h508l-523 -1434h-483z" />
<glyph unicode="W" horiz-adv-x="2064" d="M6 1434h502l158 -799l196 799h338l197 -797l159 797h502l-403 -1434h-420l-205 797l-203 -797h-419z" />
<glyph unicode="X" horiz-adv-x="1443" d="M-16 0l467 729l-443 705h504l209 -433l211 433h504l-443 -705l467 -729h-518l-221 416l-219 -416h-518z" />
<glyph unicode="Y" horiz-adv-x="1423" d="M-16 1434h491l236 -480l237 480h492l-510 -865v-569h-436v569z" />
<glyph unicode="Z" horiz-adv-x="1351" d="M49 0v332l658 735h-613v367h1186v-330l-655 -737h665v-367h-1241z" />
<glyph unicode="[" horiz-adv-x="784" d="M100 -293v2011h664v-231h-227v-1548h227v-232h-664z" />
<glyph unicode="\" horiz-adv-x="1036" d="M31 1618h309l664 -1802h-310z" />
<glyph unicode="]" horiz-adv-x="784" d="M20 -61h228v1548h-228v231h664v-2011h-664v232z" />
<glyph unicode="^" horiz-adv-x="1275" d="M43 627l379 807h430l381 -807h-451l-145 372l-145 -372h-449z" />
<glyph unicode="_" horiz-adv-x="1460" d="M84 -125h1292v-293h-1292v293z" />
<glyph unicode="`" horiz-adv-x="522" d="M-90 1493h442l260 -297h-340z" />
<glyph unicode="a" horiz-adv-x="1263" d="M27 338q0 156 112.5 249t300.5 93q43 0 95.5 -5.5t88.5 -11t83.5 -14t58.5 -10.5v39q0 63 -34 85.5t-124 22.5q-139 0 -385 -69l-125 280q322 101 596 101q268 0 380 -102.5t112 -348.5v-647h-420v111q-153 -134 -354 -134q-176 0 -280.5 105t-104.5 256zM451 379 q0 -41 28 -63.5t78 -22.5q112 0 209 76v75q-117 25 -186 25q-129 0 -129 -90z" />
<glyph unicode="b" horiz-adv-x="1320" d="M88 0v1493h420v-516q76 60 154.5 90.5t185.5 30.5q200 0 314 -147t114 -414q0 -265 -114.5 -412.5t-313.5 -147.5q-107 0 -185.5 30t-154.5 89v-96h-420zM508 414q88 -103 197 -103q147 0 147 228q0 225 -147 225q-107 0 -197 -105v-245z" />
<glyph unicode="c" horiz-adv-x="1075" d="M43 539q0 116 28 210.5t75.5 158.5t113.5 107.5t139.5 63t155.5 19.5q217 0 510 -121l-162 -309q-175 73 -272 73q-82 0 -122 -54.5t-40 -147.5q0 -94 40.5 -149.5t121.5 -55.5q94 0 272 74l162 -310q-293 -121 -508 -121q-104 0 -194 33t-163 98.5t-115 176t-42 254.5z " />
<glyph unicode="d" horiz-adv-x="1318" d="M43 537q0 267 114 414t314 147q106 0 183.5 -30.5t156.5 -90.5v516h420v-1493h-420v96q-78 -60 -155.5 -89.5t-184.5 -29.5q-199 0 -313.5 147.5t-114.5 412.5zM467 539q0 -228 147 -228q109 0 197 103v245q-90 105 -197 105q-147 0 -147 -225z" />
<glyph unicode="e" horiz-adv-x="1206" d="M41 532q0 267 148.5 416.5t424.5 149.5q270 0 411.5 -133t141.5 -351q0 -42 -5 -82t-10 -60l-5 -19h-678q11 -89 50 -129.5t120 -40.5q151 0 389 116l146 -256q-315 -166 -582 -166q-119 0 -217 32.5t-174 98t-118 173.5t-42 251zM473 664h287q-6 143 -142 143 q-64 0 -98.5 -35t-46.5 -108z" />
<glyph unicode="f" horiz-adv-x="860" d="M27 772v303h145q8 209 99 313.5t282 104.5q194 0 410 -98l-138 -265q-116 37 -153 37q-17 0 -27.5 -2t-25 -9.5t-22 -27.5t-7.5 -51v-2h248v-303h-248v-772h-418v772h-145z" />
<glyph unicode="g" horiz-adv-x="1318" d="M43 537q0 267 114 414t314 147q106 0 183.5 -30.5t156.5 -90.5v98h420v-1022q0 -247 -123 -369t-397 -122q-136 0 -305.5 25.5t-315.5 68.5l78 315q101 -32 237 -60t209 -28q116 0 156.5 33.5t40.5 114.5v65q-78 -60 -155.5 -89.5t-184.5 -29.5q-199 0 -313.5 147.5 t-114.5 412.5zM467 539q0 -228 147 -228q109 0 197 103v245q-90 105 -197 105q-147 0 -147 -225z" />
<glyph unicode="h" d="M88 0v1493h420v-522q198 127 391 127q338 0 338 -346v-752h-420v649q0 63 -20.5 95t-75.5 32q-53 0 -110.5 -27t-102.5 -71v-678h-420z" />
<glyph unicode="i" horiz-adv-x="598" d="M82 1174v313h434v-313h-434zM88 0v1075h420v-1075h-420z" />
<glyph unicode="j" horiz-adv-x="612" d="M-133 -188q61 21 100 36t67 34t41 31.5t20 40t8 45.5t1 62v1014h420v-979q0 -103 -2.5 -150t-17 -118t-46 -105.5t-89.5 -79t-148.5 -73.5t-220.5 -57zM96 1174v313h434v-313h-434z" />
<glyph unicode="k" horiz-adv-x="1265" d="M88 0v1493h420v-741l235 323h488l-363 -422l424 -653h-452l-224 362l-108 -126v-236h-420z" />
<glyph unicode="l" horiz-adv-x="595" d="M88 0v1493h420v-1493h-420z" />
<glyph unicode="m" horiz-adv-x="1941" d="M88 0v1075h420v-114q68 58 157 97.5t185 39.5q234 0 303 -168q66 66 165 117t208 51q336 0 336 -346v-752h-420v649q0 66 -16 96.5t-68 30.5q-44 0 -91.5 -28t-82.5 -68v-680h-418v649q0 66 -16 96.5t-70 30.5q-43 0 -90 -27t-82 -67v-682h-420z" />
<glyph unicode="n" d="M88 0v1075h420v-104q198 127 391 127q338 0 338 -346v-752h-420v649q0 63 -20.5 95t-75.5 32q-53 0 -110.5 -27t-102.5 -71v-678h-420z" />
<glyph unicode="o" horiz-adv-x="1294" d="M41 539q0 269 156.5 414t449.5 145q291 0 448.5 -146t157.5 -415t-156.5 -414.5t-449.5 -145.5q-291 0 -448.5 146.5t-157.5 415.5zM465 539q0 -244 182 -244t182 242q0 243 -182 243t-182 -241z" />
<glyph unicode="p" horiz-adv-x="1320" d="M88 -418v1493h420v-98q76 60 154.5 90.5t185.5 30.5q200 0 314 -147t114 -414q0 -265 -114.5 -412.5t-313.5 -147.5q-107 0 -185.5 30t-154.5 89v-514h-420zM508 414q88 -103 197 -103q147 0 147 228q0 225 -147 225q-107 0 -197 -105v-245z" />
<glyph unicode="q" horiz-adv-x="1318" d="M43 537q0 267 114 414t314 147q106 0 183.5 -30.5t156.5 -90.5v98h420v-1493h-420v514q-78 -60 -155.5 -89.5t-184.5 -29.5q-199 0 -313.5 147.5t-114.5 412.5zM467 539q0 -228 147 -228q109 0 197 103v245q-90 105 -197 105q-147 0 -147 -225z" />
<glyph unicode="r" horiz-adv-x="925" d="M88 0v1075h420v-219q11 27 26.5 54t49 63t75 61.5t105.5 41.5q49 12 105 12q17 0 36 -1v-393q-73 0 -134.5 -19t-101 -50t-70.5 -68t-47.5 -74t-27 -68t-13.5 -50l-3 -19v-346h-420z" />
<glyph unicode="s" horiz-adv-x="1138" d="M23 123l145 268q95 -45 231 -84t213 -39q31 0 51 8t24.5 14.5t4.5 10.5q0 14 -13 24t-41 18t-56.5 14t-76 15.5t-83.5 18.5q-377 95 -377 363q0 150 117.5 247t341.5 97q144 0 298.5 -37.5t264.5 -85.5l-143 -246q-87 30 -197.5 56t-177.5 26q-42 0 -62 -11t-20 -26 q0 -14 12 -23.5t39 -17.5t55 -14t76 -15.5t86 -19.5q57 -14 104 -30.5t101 -46.5t90.5 -66.5t61 -93.5t24.5 -125q0 -156 -121 -250.5t-352 -94.5q-164 0 -338 44t-282 102z" />
<glyph unicode="t" horiz-adv-x="942" d="M29 772v303h145v271l418 40v-311h289v-303h-289v-340q0 -31 7.5 -51t22 -27.5t25 -9.5t27.5 -2q13 0 29 3t33 9t29 10.5t27 11t17 7.5l143 -307q-218 -99 -397 -99q-199 0 -290 113.5t-91 341.5v340h-145z" />
<glyph unicode="u" d="M80 324v751h420v-649q0 -63 20.5 -95t75.5 -32q52 0 109.5 26.5t103.5 71.5v678h420v-1075h-420v104q-96 -60 -189 -93.5t-204 -33.5q-336 0 -336 347z" />
<glyph unicode="v" horiz-adv-x="1255" d="M-2 1075h451l178 -606l180 606h450l-421 -1075h-416z" />
<glyph unicode="w" horiz-adv-x="1773" d="M2 1075h444l117 -600l158 600h332l157 -600l117 600h445l-330 -1075h-387l-168 571l-168 -571h-389z" />
<glyph unicode="x" horiz-adv-x="1306" d="M-16 0l407 537l-383 538h471l172 -282l174 282h473l-385 -536l410 -539h-489l-181 293l-180 -293h-489z" />
<glyph unicode="y" horiz-adv-x="1255" d="M-2 1075h451l178 -567l178 567h452l-581 -1493h-449l187 420z" />
<glyph unicode="z" horiz-adv-x="1214" d="M49 0v283l492 450h-471v342h1087v-282l-491 -451h491v-342h-1108z" />
<glyph unicode="{" horiz-adv-x="829" d="M2 600v225q66 0 109 17t61 46t24.5 67.5t-1.5 80.5l-25 191q-14 105 8 188.5t73 139.5t129.5 93t173 53.5t208.5 16.5h37v-223h-37q-55 0 -91 -23.5t-49 -59.5t-17.5 -79t3.5 -80l17 -137q22 -189 -57.5 -281.5t-260.5 -121.5q119 -20 192 -64t107 -128.5t19 -211.5 l-17 -137q-8 -38 -3.5 -80t17.5 -78t49 -60t91 -24h37v-223h-37q-144 0 -256.5 27t-196 84t-120.5 154t-19 227l27 190q9 42 2 80.5t-25.5 67.5t-62 46t-109.5 17z" />
<glyph unicode="|" horiz-adv-x="501" d="M100 -252v1927h301v-1927h-301z" />
<glyph unicode="}" horiz-adv-x="829" d="M31 -70h37q55 0 91 24t48.5 60t17 78t-3.5 80l-16 137q-22 189 57.5 282t259.5 122q-119 20 -192 64t-106.5 128t-18.5 211l16 137q8 37 3.5 80t-17 79t-48.5 59.5t-91 23.5h-37v223h37q114 0 209 -16.5t173.5 -53.5t129 -93t72 -139.5t7.5 -188.5l-26 -191 q-9 -42 -2.5 -80.5t25 -67.5t62 -46t109.5 -17v-225q-66 0 -109 -17t-60.5 -46t-24 -67.5t1.5 -80.5l24 -190q14 -105 -8 -188.5t-72.5 -139.5t-129 -93.5t-173 -54t-208.5 -16.5h-37v223z" />
<glyph unicode="~" horiz-adv-x="1314" d="M8 426q33 84 70 147.5t86 117.5t114 83t142 29q57 0 112.5 -15.5t100.5 -38t88 -45t90 -38t90 -15.5q49 0 89 26.5t87 106.5l232 -94q-32 -83 -69 -147t-86.5 -118t-114.5 -83t-142 -29q-63 0 -133 23.5t-121.5 52.5t-114.5 52.5t-114 23.5q-48 0 -85.5 -26.5 t-88.5 -106.5z" />
<glyph unicode="&#xa1;" horiz-adv-x="614" d="M51 0l131 936h250l131 -936h-512zM100 1047v387h414v-387h-414z" />
<glyph unicode="&#xa2;" horiz-adv-x="1169" d="M70 719q0 135 37 240t101.5 171t145.5 102t176 44v158h295v-187q142 -35 295 -98l-162 -309q-193 82 -301 82q-81 0 -121 -54.5t-40 -148.5t40 -149.5t121 -55.5q108 0 301 82l162 -309q-148 -66 -295 -99v-188h-295v160q-96 8 -177 44.5t-145.5 102.5t-101 171.5 t-36.5 240.5z" />
<glyph unicode="&#xa3;" horiz-adv-x="1234" d="M78 0v289q9 1 23 4t52 17.5t68 34.5t58 59t36 88h-215v235h152q-5 8 -24.5 42t-26.5 47t-23 44.5t-23 52t-16 51t-12.5 61t-3.5 62.5q0 175 120 272t341 97q78 0 157 -14.5t134 -32.5t122.5 -51t98 -51t86.5 -52l-187 -274q-198 117 -319 117q-115 0 -115 -80 q0 -39 22.5 -83.5t59 -103t55.5 -104.5h328v-235h-307q-25 -91 -101 -134h541v-358h-1081z" />
<glyph unicode="&#xa5;" horiz-adv-x="1533" d="M39 1434h491l236 -480l238 480h491l-369 -623h205v-233h-342l-4 -9v-86h346v-233h-346v-250h-436v250h-346v233h346v86l-6 9h-340v233h203z" />
<glyph unicode="&#xa6;" horiz-adv-x="505" d="M102 -252v846h301v-846h-301zM102 829v846h301v-846h-301z" />
<glyph unicode="&#xa7;" horiz-adv-x="1183" d="M61 629q0 156 154 239q-117 92 -117 244q0 150 118.5 247t342.5 97q143 0 297 -37.5t264 -85.5l-143 -246q-84 30 -195.5 56t-177.5 26q-44 0 -65 -10.5t-21 -25.5q0 -14 12.5 -23.5t40.5 -17.5t56.5 -14t77 -16t86.5 -20q57 -14 104 -30.5t101 -46.5t90 -66.5 t60.5 -93.5t24.5 -125q0 -77 -39 -139t-116 -101q117 -95 117 -243q0 -150 -117.5 -247t-341.5 -97q-144 0 -299 37t-264 85l143 246q87 -30 197.5 -56t177.5 -26q42 0 62 11t20 26q0 14 -12 23.5t-39.5 17.5t-55.5 14t-76 15.5t-86 19.5q-57 14 -104 30.5t-101 46.5 t-90.5 67t-61 94t-24.5 125zM461 670q0 -17 12.5 -29.5t45.5 -23.5t55 -16.5t76 -17.5q24 -5 36 -8q37 8 58 24t24.5 25t3.5 15q0 37 -95 63q-21 6 -132 31q-23 -5 -40 -13.5t-25 -16t-13 -16t-5.5 -12t-0.5 -5.5z" />
<glyph unicode="&#xa8;" horiz-adv-x="542" d="M-80 1217v280h305v-280h-305zM317 1217v280h306v-280h-306z" />
<glyph unicode="&#xa9;" horiz-adv-x="1574" d="M57 717q0 156 49 290.5t140 234.5t230.5 157t311.5 57t311.5 -57t230 -157t139.5 -234.5t49 -290.5t-49 -290.5t-139.5 -234.5t-230 -157.5t-311.5 -57.5t-311.5 57.5t-230.5 157.5t-140 234.5t-49 290.5zM139 717q0 -141 43 -261t123 -209.5t204 -140.5t277 -51 q154 0 278.5 51t205.5 140.5t124.5 209.5t43.5 261q0 140 -43.5 260.5t-124.5 210t-205.5 140t-278.5 50.5q-203 0 -351.5 -88t-222 -236t-73.5 -337zM418 715q0 212 101.5 329t254.5 117q72 0 143 -23t109 -45.5t90 -58.5l-63 -73q-38 30 -68.5 49.5t-89 40t-117.5 20.5 q-114 0 -184 -97.5t-70 -258.5q0 -159 70 -256t184 -97q59 0 118 20.5t88.5 39t68.5 47.5l63 -72q-52 -36 -90 -58.5t-109 -45.5t-143 -23q-152 0 -254 117t-102 328z" />
<glyph unicode="&#xaa;" horiz-adv-x="800" d="M14 993q0 92 72 148.5t193 56.5q77 0 200 -24v16q0 32 -20 42.5t-74 10.5q-99 0 -244 -31l-82 183q207 53 381 53q173 0 245.5 -64.5t72.5 -216.5v-379h-279v62q-98 -76 -221 -76q-113 0 -178.5 65t-65.5 154zM295 1020q0 -18 16 -28.5t45 -10.5q71 0 123 37v29 q-72 14 -108 14q-37 0 -56.5 -8t-19.5 -33z" />
<glyph unicode="&#xab;" horiz-adv-x="1390" d="M43 416v246l623 415v-383l-265 -155l265 -156v-383zM680 416v246l623 415v-383l-265 -155l265 -156v-383z" />
<glyph unicode="&#xac;" horiz-adv-x="1300" d="M18 528v310h1231v-654h-329v344h-902z" />
<glyph unicode="&#xad;" horiz-adv-x="888" d="M86 418v330h717v-330h-717z" />
<glyph unicode="&#xae;" horiz-adv-x="919" d="M55 1065q0 178 108.5 294t297.5 116q188 0 295.5 -116t107.5 -294t-107.5 -294t-295.5 -116q-189 0 -297.5 116t-108.5 294zM129 1065q0 -152 85 -247t247 -95q161 0 245.5 95t84.5 247t-84.5 247t-245.5 95q-162 0 -247 -95t-85 -247zM309 864v412h191q64 0 101.5 -33 t37.5 -86q0 -41 -28.5 -72.5t-73.5 -42.5l96 -178h-76l-90 174h-90v-174h-68zM377 1102h121q71 0 71 55q0 57 -67 57h-125v-112z" />
<glyph unicode="&#xaf;" horiz-adv-x="659" d="M0 1247v234h659v-234h-659z" />
<glyph unicode="&#xb0;" horiz-adv-x="880" d="M33 1055q0 158 112.5 270.5t270.5 112.5t270.5 -112.5t112.5 -270.5t-112.5 -270.5t-270.5 -112.5t-270.5 112.5t-112.5 270.5zM266 1055q0 -61 44 -105.5t106 -44.5q61 0 105 44t44 106q0 61 -43.5 105t-105.5 44t-106 -44t-44 -105z" />
<glyph unicode="&#xb1;" horiz-adv-x="1290" d="M104 0v260h1080v-260h-1080zM104 590v309h383v238h312v-238h385v-309h-385v-238h-312v238h-383z" />
<glyph unicode="&#xb2;" horiz-adv-x="831" d="M23 788v107q0 206 276 362q28 15 63.5 33t56 28.5t41 23t29.5 24t9 23.5q0 15 -21.5 26.5t-62.5 11.5q-88 0 -242 -81l-125 180q207 137 412 137q163 0 247.5 -75t84.5 -185q0 -50 -18.5 -94t-45 -74.5t-67.5 -59t-73 -44.5t-75 -35q-133 -57 -133 -72h412v-236h-768z " />
<glyph unicode="&#xb3;" horiz-adv-x="827" d="M0 905l125 191q158 -84 278 -84q101 0 101 45q0 14 -7.5 25t-23 17t-30.5 10t-39.5 5t-40.5 1t-42 -0.5t-36 -0.5h-41v236h47q7 0 28 -0.5t33.5 0t33 1t32.5 4t25.5 8.5t19.5 13.5t6 20.5q0 30 -70 30q-104 0 -243 -73l-115 176q179 133 408 133q156 0 232.5 -61 t76.5 -156q0 -118 -129 -182q73 -25 120.5 -83.5t47.5 -129.5q0 -53 -17.5 -99.5t-56.5 -88t-111.5 -65.5t-171.5 -24q-219 0 -440 131z" />
<glyph unicode="&#xb4;" horiz-adv-x="522" d="M-90 1196l260 297h442l-362 -297h-340z" />
<glyph unicode="&#xb5;" horiz-adv-x="1327" d="M102 -418v1493h420v-649q0 -63 20.5 -95t75.5 -32q52 0 109.5 26.5t103.5 71.5v678h420v-1075h-420v104q-157 -100 -309 -120v-402h-420z" />
<glyph unicode="&#xb6;" horiz-adv-x="1599" d="M45 897q0 142 46.5 247.5t130.5 167.5t192.5 92t242.5 30h344v-1813h-348v737q-123 0 -228.5 30t-192.5 92t-137 169t-50 248zM1120 -381v1815h348v-1815h-348z" />
<glyph unicode="&#xb7;" horiz-adv-x="585" d="M86 371v428h414v-428h-414z" />
<glyph unicode="&#xb8;" horiz-adv-x="395" d="M-31 -348l78 192q45 -22 92 -22q84 0 84 59q0 24 -13.5 55t-27.5 50l-14 18h178q3 -4 8.5 -10.5t19.5 -28t24.5 -43.5t19 -53.5t8.5 -61.5q0 -105 -73 -154.5t-185 -49.5q-118 0 -199 49z" />
<glyph unicode="&#xb9;" horiz-adv-x="604" d="M-16 1497l276 152h277v-861h-289v603l-152 -76z" />
<glyph unicode="&#xba;" horiz-adv-x="817" d="M23 1112q0 162 100 249t287 87q185 0 285 -88t100 -250t-99.5 -249t-285.5 -87t-286.5 88t-100.5 250zM301 1112q0 -129 109 -129q106 0 106 127q0 129 -106 129q-109 0 -109 -127z" />
<glyph unicode="&#xbb;" horiz-adv-x="1390" d="M88 0v383l264 156l-264 155v383l623 -415v-246zM725 0v383l264 156l-264 155v383l623 -415v-246z" />
<glyph unicode="&#xbc;" horiz-adv-x="1966" d="M37 1282l276 152h277v-861h-289v603l-151 -76zM406 0l665 1434h309l-665 -1434h-309zM991 133v195l385 532h385v-491h135v-236h-135v-133h-288v133h-482zM1286 369h187v268z" />
<glyph unicode="&#xbd;" horiz-adv-x="1953" d="M37 1282l276 152h277v-861h-289v603l-151 -76zM406 0l665 1434h309l-665 -1434h-309zM1106 0v106q0 60 24 116t66 101.5t87 80.5t99 65q28 16 63.5 33.5t56.5 28t41 22.5t29 23.5t9 23.5q0 15 -21.5 27t-62.5 12q-86 0 -242 -82l-125 180q207 137 412 137 q163 0 247.5 -75t84.5 -185q0 -50 -18.5 -94t-45 -74.5t-67.5 -59t-73 -44.5t-75 -35q-133 -57 -133 -71h412v-236h-768z" />
<glyph unicode="&#xbe;" horiz-adv-x="2115" d="M41 690l125 191q157 -84 278 -84q101 0 101 45q0 14 -7.5 25t-23 17t-30.5 10t-39.5 5t-40.5 1t-42 -0.5t-36 -0.5h-41v236h47q7 0 28 -0.5t33.5 0t33 1t32.5 4t25.5 8.5t19.5 13.5t6 20.5q0 30 -70 30q-104 0 -243 -73l-115 176q179 133 407 133q157 0 233.5 -61 t76.5 -156q0 -68 -35 -110t-94 -72q73 -25 120.5 -83.5t47.5 -129.5q0 -53 -17.5 -99.5t-56.5 -88t-111.5 -65.5t-171.5 -24q-219 0 -440 131zM569 0l666 1434h309l-665 -1434h-310zM1153 133v195l385 532h385v-491h135v-236h-135v-133h-289v133h-481zM1448 369h186v268z " />
<glyph unicode="&#xbf;" horiz-adv-x="1157" d="M53 375q0 83 29.5 151.5t74.5 115t114 84.5t132.5 61t145.5 44l18 105h252l21 -326q-207 -39 -277.5 -70t-70.5 -94q0 -42 35 -76t114 -34q138 0 299 104l174 -293q-282 -170 -549 -170q-231 0 -371.5 110t-140.5 288zM487 1047v387h412v-387h-412z" />
<glyph unicode="&#xc0;" horiz-adv-x="1509" d="M-10 0l524 1434h483l523 -1434h-476l-63 217h-453l-61 -217h-477zM309 1802h443l260 -297h-340zM625 555h260l-131 459z" />
<glyph unicode="&#xc1;" horiz-adv-x="1509" d="M-10 0l524 1434h483l523 -1434h-476l-63 217h-453l-61 -217h-477zM500 1505l260 297h442l-362 -297h-340zM625 555h260l-131 459z" />
<glyph unicode="&#xc2;" horiz-adv-x="1509" d="M-10 0l524 1434h483l523 -1434h-476l-63 217h-453l-61 -217h-477zM338 1505l229 297h377l230 -297h-281l-137 129l-138 -129h-280zM625 555h260l-131 459z" />
<glyph unicode="&#xc3;" horiz-adv-x="1509" d="M-10 0l524 1434h483l523 -1434h-476l-63 217h-453l-61 -217h-477zM324 1595q60 117 88 154q73 100 176 100q51 0 114 -24t116.5 -48t80.5 -24q55 0 109 94l174 -88q-60 -120 -94 -164q-71 -90 -170 -90q-51 0 -114.5 24t-117 48.5t-80.5 24.5q-54 0 -108 -95zM625 555 h260l-131 459z" />
<glyph unicode="&#xc4;" horiz-adv-x="1509" d="M-10 0l524 1434h483l523 -1434h-476l-63 217h-453l-61 -217h-477zM406 1536v281h305v-281h-305zM625 555h260l-131 459zM803 1536v281h305v-281h-305z" />
<glyph unicode="&#xc5;" horiz-adv-x="1509" d="M-10 0l524 1434h483l523 -1434h-476l-63 217h-453l-61 -217h-477zM512 1731q0 101 72.5 173t173.5 72t173.5 -72t72.5 -173t-72.5 -173.5t-173.5 -72.5t-173.5 72.5t-72.5 173.5zM625 555h260l-131 459zM698 1731q0 -25 17.5 -42.5t42.5 -17.5t42 17.5t17 42.5t-17 42 t-42 17t-42.5 -17t-17.5 -42z" />
<glyph unicode="&#xc6;" horiz-adv-x="2310" d="M-61 0l960 1434h1335v-367h-671v-170h544v-358h-544v-172h682v-367h-1119v217h-528l-135 -217h-524zM817 567h309v496z" />
<glyph unicode="&#xc7;" horiz-adv-x="1355" d="M53 717q0 361 168 550t453 189q169 0 323 -52t344 -151l-196 -321q-260 133 -414 133q-115 0 -172 -93t-57 -255t57 -255t172 -93q154 0 414 133l196 -322q-156 -80 -283 -128.5t-261 -65.5q65 -88 65 -179q0 -105 -73 -154.5t-185 -49.5q-117 0 -198 49l77 192 q45 -22 92 -22q84 0 84 59q0 40 -38 99q-262 18 -415 205t-153 532z" />
<glyph unicode="&#xc8;" horiz-adv-x="1292" d="M111 0v1434h1108v-367h-672v-170h545v-358h-545v-172h682v-367h-1118zM225 1802h443l260 -297h-340z" />
<glyph unicode="&#xc9;" horiz-adv-x="1292" d="M111 0v1434h1108v-367h-672v-170h545v-358h-545v-172h682v-367h-1118zM416 1505l260 297h442l-362 -297h-340z" />
<glyph unicode="&#xca;" horiz-adv-x="1292" d="M111 0v1434h1108v-367h-672v-170h545v-358h-545v-172h682v-367h-1118zM252 1505l229 297h377l229 -297h-280l-137 129l-138 -129h-280z" />
<glyph unicode="&#xcb;" horiz-adv-x="1292" d="M111 0v1434h1108v-367h-672v-170h545v-358h-545v-172h682v-367h-1118zM319 1526v280h306v-280h-306zM717 1526v280h305v-280h-305z" />
<glyph unicode="&#xcc;" horiz-adv-x="681" d="M-100 1802h442l260 -297h-340zM129 0v1434h436v-1434h-436z" />
<glyph unicode="&#xcd;" horiz-adv-x="681" d="M80 1505l260 297h442l-362 -297h-340zM117 0v1434h436v-1434h-436z" />
<glyph unicode="&#xce;" horiz-adv-x="694" d="M-72 1505l230 297h377l229 -297h-281l-137 129l-137 -129h-281zM129 0v1434h436v-1434h-436z" />
<glyph unicode="&#xcf;" horiz-adv-x="694" d="M-4 1522v280h305v-280h-305zM129 0v1434h436v-1434h-436zM393 1522v280h305v-280h-305z" />
<glyph unicode="&#xd0;" horiz-adv-x="1558" d="M8 553v330h150v551h581q385 0 575.5 -170.5t190.5 -546.5t-190.5 -546.5t-575.5 -170.5h-581v553h-150zM596 367h98q94 0 157 13t116 49.5t78.5 107.5t25.5 180t-25.5 180t-78.5 107.5t-116 49.5t-157 13h-98v-184h252v-330h-252v-186z" />
<glyph unicode="&#xd1;" horiz-adv-x="1556" d="M111 0v1434h440l459 -768v768h436v-1434h-440l-459 768v-768h-436zM358 1616q60 117 90 156q73 98 175 98q51 0 114 -24t116.5 -48t80.5 -24q16 0 29 5t34.5 27t44.5 62l175 -88q-19 -39 -26 -52.5t-27 -48.5t-32 -50t-34 -39.5t-42 -35t-47 -19.5t-57 -9q-51 0 -114 24 t-116.5 48t-80.5 24q-55 0 -109 -94z" />
<glyph unicode="&#xd2;" horiz-adv-x="1601" d="M53 717q0 128 26.5 237.5t84.5 203t144.5 159t211.5 102.5t281 37q193 0 339 -56t234 -157.5t131 -233t43 -292.5t-43 -292.5t-131 -233.5t-234 -158t-339 -56q-156 0 -281 37t-211.5 103t-144.5 159.5t-84.5 203t-26.5 237.5zM354 1802h443l260 -297h-340zM502 717 q0 -174 72 -271.5t227 -97.5t227 97.5t72 271.5q0 368 -299 368t-299 -368z" />
<glyph unicode="&#xd3;" horiz-adv-x="1601" d="M53 717q0 128 26.5 237.5t84.5 203t144.5 159t211.5 102.5t281 37q193 0 339 -56t234 -157.5t131 -233t43 -292.5t-43 -292.5t-131 -233.5t-234 -158t-339 -56q-156 0 -281 37t-211.5 103t-144.5 159.5t-84.5 203t-26.5 237.5zM502 717q0 -174 72 -271.5t227 -97.5 t227 97.5t72 271.5q0 368 -299 368t-299 -368zM545 1505l260 297h442l-362 -297h-340z" />
<glyph unicode="&#xd4;" horiz-adv-x="1601" d="M53 717q0 128 26.5 237.5t84.5 203t144.5 159t211.5 102.5t281 37q193 0 339 -56t234 -157.5t131 -233t43 -292.5t-43 -292.5t-131 -233.5t-234 -158t-339 -56q-156 0 -281 37t-211.5 103t-144.5 159.5t-84.5 203t-26.5 237.5zM383 1505l229 297h377l230 -297h-281 l-137 129l-137 -129h-281zM502 717q0 -174 72 -271.5t227 -97.5t227 97.5t72 271.5q0 368 -299 368t-299 -368z" />
<glyph unicode="&#xd5;" horiz-adv-x="1601" d="M53 717q0 128 26.5 237.5t84.5 203t144.5 159t211.5 102.5t281 37q193 0 339 -56t234 -157.5t131 -233t43 -292.5t-43 -292.5t-131 -233.5t-234 -158t-339 -56q-156 0 -281 37t-211.5 103t-144.5 159.5t-84.5 203t-26.5 237.5zM369 1595q60 117 88 154q74 99 176 100 q51 0 114 -24t116.5 -48t80.5 -24q55 0 109 94l174 -88q-60 -120 -94 -164q-71 -90 -170 -90q-51 0 -114.5 24t-117 48.5t-80.5 24.5q-54 0 -108 -95zM502 717q0 -174 72 -271.5t227 -97.5t227 97.5t72 271.5q0 368 -299 368t-299 -368z" />
<glyph unicode="&#xd6;" horiz-adv-x="1601" d="M53 717q0 128 26.5 237.5t84.5 203t144.5 159t211.5 102.5t281 37q193 0 339 -56t234 -157.5t131 -233t43 -292.5t-43 -292.5t-131 -233.5t-234 -158t-339 -56q-156 0 -281 37t-211.5 103t-144.5 159.5t-84.5 203t-26.5 237.5zM451 1526v280h305v-280h-305zM502 717 q0 -174 72 -271.5t227 -97.5t227 97.5t72 271.5q0 368 -299 368t-299 -368zM848 1526v280h305v-280h-305z" />
<glyph unicode="&#xd7;" horiz-adv-x="1269" d="M139 932l228 227l268 -250l264 248l229 -227l-258 -240l260 -241l-227 -228l-268 248l-264 -246l-230 228l256 239z" />
<glyph unicode="&#xd8;" horiz-adv-x="1601" d="M53 717q0 128 26.5 237.5t84.5 203t144.5 159t211.5 102.5t281 37q223 0 389 -78l45 56h291l-154 -191q176 -193 176 -526q0 -161 -43 -292.5t-131 -233.5t-234 -158t-339 -56q-223 0 -389 78l-43 -55h-289l151 186q-178 192 -178 531zM502 717q0 -98 20 -168l412 512 q-56 24 -133 24q-299 0 -299 -368zM668 373q58 -25 133 -25q155 0 227 97.5t72 271.5q0 93 -21 164z" />
<glyph unicode="&#xd9;" horiz-adv-x="1501" d="M96 633v801h436v-844q0 -56 9 -96.5t31.5 -75t67.5 -52.5t112 -18q66 0 110.5 18t67 52.5t31 75t8.5 96.5v844h436v-801q0 -82 -7.5 -150.5t-26.5 -137.5t-50.5 -122.5t-82 -101t-117.5 -78.5t-160.5 -48.5t-208.5 -17.5q-160 0 -278 34.5t-189.5 91.5t-114.5 144 t-58.5 178t-15.5 208zM305 1802h443l260 -297h-340z" />
<glyph unicode="&#xda;" horiz-adv-x="1501" d="M96 633v801h436v-844q0 -56 9 -96.5t31.5 -75t67.5 -52.5t112 -18q66 0 110.5 18t67 52.5t31 75t8.5 96.5v844h436v-801q0 -82 -7.5 -150.5t-26.5 -137.5t-50.5 -122.5t-82 -101t-117.5 -78.5t-160.5 -48.5t-208.5 -17.5q-160 0 -278 34.5t-189.5 91.5t-114.5 144 t-58.5 178t-15.5 208zM496 1505l260 297h442l-362 -297h-340z" />
<glyph unicode="&#xdb;" horiz-adv-x="1501" d="M96 633v801h436v-844q0 -56 9 -96.5t31.5 -75t67.5 -52.5t112 -18q66 0 110.5 18t67 52.5t31 75t8.5 96.5v844h436v-801q0 -82 -7.5 -150.5t-26.5 -137.5t-50.5 -122.5t-82 -101t-117.5 -78.5t-160.5 -48.5t-208.5 -17.5q-160 0 -278 34.5t-189.5 91.5t-114.5 144 t-58.5 178t-15.5 208zM334 1505l229 297h377l229 -297h-280l-137 129l-138 -129h-280z" />
<glyph unicode="&#xdc;" horiz-adv-x="1501" d="M96 633v801h436v-844q0 -56 9 -96.5t31.5 -75t67.5 -52.5t112 -18q66 0 110.5 18t67 52.5t31 75t8.5 96.5v844h436v-801q0 -82 -7.5 -150.5t-26.5 -137.5t-50.5 -122.5t-82 -101t-117.5 -78.5t-160.5 -48.5t-208.5 -17.5q-160 0 -278 34.5t-189.5 91.5t-114.5 144 t-58.5 178t-15.5 208zM401 1526v280h306v-280h-306zM799 1526v280h305v-280h-305z" />
<glyph unicode="&#xdd;" horiz-adv-x="1423" d="M-16 1434h491l236 -480l237 480h492l-510 -865v-569h-436v569zM457 1505l260 297h442l-362 -297h-340z" />
<glyph unicode="&#xde;" horiz-adv-x="1423" d="M111 0v1434h436v-205h233q613 0 613 -490q0 -485 -613 -485h-233v-254h-436zM547 608h139q149 0 207.5 25.5t58.5 105.5t-58.5 105.5t-207.5 25.5h-139v-262z" />
<glyph unicode="&#xdf;" horiz-adv-x="1538" d="M88 0v913q0 96 15.5 175.5t58.5 157.5t112 131.5t184 86.5t267 33q139 0 251 -27t182 -70.5t117 -101t66 -114.5t19 -115q0 -61 -21 -115t-42 -78l-21 -24q-40 -7 -77.5 -19t-68 -33.5t-30.5 -45.5q0 -26 35.5 -45t104.5 -49t120 -68q149 -111 149 -270q0 -145 -115 -245 t-311 -100q-120 0 -253 37.5t-246 91.5l145 269q197 -88 297 -88q33 0 47 9t14 21q0 27 -71 48q-100 30 -156 63q-162 98 -162 277q0 222 256 333v13q0 51 -51 90t-162 39q-126 0 -179.5 -66t-53.5 -229v-885h-420z" />
<glyph unicode="&#xe0;" horiz-adv-x="1263" d="M27 338q0 156 112.5 249t300.5 93q43 0 95.5 -5.5t88.5 -11t83.5 -14t58.5 -10.5v39q0 63 -34 85.5t-124 22.5q-139 0 -385 -69l-125 280q322 101 596 101q268 0 380 -102.5t112 -348.5v-647h-420v111q-153 -134 -354 -134q-176 0 -280.5 105t-104.5 256zM197 1493h442 l260 -297h-340zM451 379q0 -41 28 -63.5t78 -22.5q112 0 209 76v75q-117 25 -186 25q-129 0 -129 -90z" />
<glyph unicode="&#xe1;" horiz-adv-x="1263" d="M27 338q0 156 112.5 249t300.5 93q43 0 95.5 -5.5t88.5 -11t83.5 -14t58.5 -10.5v39q0 63 -34 85.5t-124 22.5q-139 0 -385 -69l-125 280q322 101 596 101q268 0 380 -102.5t112 -348.5v-647h-420v111q-153 -134 -354 -134q-176 0 -280.5 105t-104.5 256zM387 1196 l260 297h443l-363 -297h-340zM451 379q0 -41 28 -63.5t78 -22.5q112 0 209 76v75q-117 25 -186 25q-129 0 -129 -90z" />
<glyph unicode="&#xe2;" horiz-adv-x="1263" d="M27 338q0 156 112.5 249t300.5 93q43 0 95.5 -5.5t88.5 -11t83.5 -14t58.5 -10.5v39q0 63 -34 85.5t-124 22.5q-139 0 -385 -69l-125 280q322 101 596 101q268 0 380 -102.5t112 -348.5v-647h-420v111q-153 -134 -354 -134q-176 0 -280.5 105t-104.5 256zM223 1196 l230 297h376l230 -297h-281l-137 129l-137 -129h-281zM451 379q0 -41 28 -63.5t78 -22.5q112 0 209 76v75q-117 25 -186 25q-129 0 -129 -90z" />
<glyph unicode="&#xe3;" horiz-adv-x="1263" d="M27 338q0 156 112.5 249t300.5 93q43 0 95.5 -5.5t88.5 -11t83.5 -14t58.5 -10.5v39q0 63 -34 85.5t-124 22.5q-139 0 -385 -69l-125 280q322 101 596 101q268 0 380 -102.5t112 -348.5v-647h-420v111q-153 -134 -354 -134q-176 0 -280.5 105t-104.5 256zM213 1286 q60 117 88 154q73 100 176 100q51 0 114 -24t116.5 -48t80.5 -24q55 0 109 94l174 -88q-60 -120 -94 -164q-71 -90 -170 -90q-51 0 -114 24t-116.5 48t-80.5 24q-55 0 -109 -94zM451 379q0 -41 28 -63.5t78 -22.5q112 0 209 76v75q-117 25 -186 25q-129 0 -129 -90z" />
<glyph unicode="&#xe4;" horiz-adv-x="1263" d="M27 338q0 156 112.5 249t300.5 93q43 0 95.5 -5.5t88.5 -11t83.5 -14t58.5 -10.5v39q0 63 -34 85.5t-124 22.5q-139 0 -385 -69l-125 280q322 101 596 101q268 0 380 -102.5t112 -348.5v-647h-420v111q-153 -134 -354 -134q-176 0 -280.5 105t-104.5 256zM291 1217v280 h305v-280h-305zM451 379q0 -41 28 -63.5t78 -22.5q112 0 209 76v75q-117 25 -186 25q-129 0 -129 -90zM688 1217v280h305v-280h-305z" />
<glyph unicode="&#xe5;" horiz-adv-x="1263" d="M27 338q0 156 112.5 249t300.5 93q43 0 95.5 -5.5t88.5 -11t83.5 -14t58.5 -10.5v39q0 63 -34 85.5t-124 22.5q-139 0 -385 -69l-125 280q322 101 596 101q268 0 380 -102.5t112 -348.5v-647h-420v111q-153 -134 -354 -134q-176 0 -280.5 105t-104.5 256zM397 1421 q0 101 72.5 173.5t173.5 72.5t173.5 -72.5t72.5 -173.5t-72.5 -173t-173.5 -72t-173.5 72t-72.5 173zM451 379q0 -41 28 -63.5t78 -22.5q112 0 209 76v75q-117 25 -186 25q-129 0 -129 -90zM584 1421q0 -25 17 -42t42 -17t42 17t17 42t-17 42.5t-42 17.5t-42 -17.5 t-17 -42.5z" />
<glyph unicode="&#xe6;" horiz-adv-x="1910" d="M27 338q0 156 112.5 249t300.5 93q34 0 70.5 -3t74.5 -8.5t62.5 -9.5t62 -11.5t44.5 -8.5l10 61q-4 50 -39.5 68t-116.5 18q-139 0 -385 -69l-125 280q322 101 596 101q213 0 326 -64q128 64 301 64q270 0 411.5 -133t141.5 -351q0 -42 -5 -82t-11 -60l-5 -19h-677 q11 -89 50 -129.5t120 -40.5q151 0 389 116l145 -256q-315 -166 -582 -166q-150 0 -268.5 51.5t-189.5 155.5q-99 -110 -202.5 -158.5t-225.5 -48.5q-176 0 -280.5 105t-104.5 256zM451 379q0 -41 28 -63.5t78 -22.5q109 0 207 74q-9 38 -12 79q-113 23 -172 23 q-129 0 -129 -90zM1180 664h286q-6 143 -141 143q-64 0 -98.5 -35t-46.5 -108z" />
<glyph unicode="&#xe7;" horiz-adv-x="1075" d="M43 539q0 116 28 210.5t75.5 158.5t113.5 107.5t139.5 63t155.5 19.5q217 0 510 -121l-162 -309q-175 73 -272 73q-82 0 -122 -54.5t-40 -147.5q0 -94 40.5 -149.5t121.5 -55.5q94 0 272 74l162 -310q-222 -94 -424 -116q64 -84 64 -175q0 -105 -73.5 -154.5 t-185.5 -49.5q-117 0 -198 49l78 192q45 -22 92 -22q84 0 84 59q0 46 -41 105q-89 14 -162.5 53t-132 104.5t-91 167t-32.5 228.5z" />
<glyph unicode="&#xe8;" horiz-adv-x="1206" d="M41 532q0 267 148.5 416.5t424.5 149.5q270 0 411.5 -133t141.5 -351q0 -42 -5 -82t-10 -60l-5 -19h-678q11 -89 50 -129.5t120 -40.5q151 0 389 116l146 -256q-315 -166 -582 -166q-119 0 -217 32.5t-174 98t-118 173.5t-42 251zM180 1493h443l260 -297h-340zM473 664 h287q-6 143 -142 143q-64 0 -98.5 -35t-46.5 -108z" />
<glyph unicode="&#xe9;" horiz-adv-x="1206" d="M41 532q0 267 148.5 416.5t424.5 149.5q270 0 411.5 -133t141.5 -351q0 -42 -5 -82t-10 -60l-5 -19h-678q11 -89 50 -129.5t120 -40.5q151 0 389 116l146 -256q-315 -166 -582 -166q-119 0 -217 32.5t-174 98t-118 173.5t-42 251zM373 1196l260 297h442l-362 -297h-340z M473 664h287q-6 143 -142 143q-64 0 -98.5 -35t-46.5 -108z" />
<glyph unicode="&#xea;" horiz-adv-x="1206" d="M41 532q0 267 148.5 416.5t424.5 149.5q270 0 411.5 -133t141.5 -351q0 -42 -5 -82t-10 -60l-5 -19h-678q11 -89 50 -129.5t120 -40.5q151 0 389 116l146 -256q-315 -166 -582 -166q-119 0 -217 32.5t-174 98t-118 173.5t-42 251zM209 1196l229 297h377l229 -297h-280 l-137 129l-138 -129h-280zM473 664h287q-6 143 -142 143q-64 0 -98.5 -35t-46.5 -108z" />
<glyph unicode="&#xeb;" horiz-adv-x="1206" d="M41 532q0 267 148.5 416.5t424.5 149.5q270 0 411.5 -133t141.5 -351q0 -42 -5 -82t-10 -60l-5 -19h-678q11 -89 50 -129.5t120 -40.5q151 0 389 116l146 -256q-315 -166 -582 -166q-119 0 -217 32.5t-174 98t-118 173.5t-42 251zM276 1217v280h306v-280h-306zM473 664 h287q-6 143 -142 143q-64 0 -98.5 -35t-46.5 -108zM674 1217v280h305v-280h-305z" />
<glyph unicode="&#xec;" horiz-adv-x="618" d="M-133 1493h442l260 -297h-340zM104 0v1075h420v-1075h-420z" />
<glyph unicode="&#xed;" horiz-adv-x="618" d="M49 1196l260 297h443l-363 -297h-340zM94 0v1075h420v-1075h-420z" />
<glyph unicode="&#xee;" horiz-adv-x="628" d="M-104 1196l229 297h377l229 -297h-280l-138 129l-137 -129h-280zM104 0v1075h420v-1075h-420z" />
<glyph unicode="&#xef;" horiz-adv-x="628" d="M-37 1217v280h305v-280h-305zM104 0v1075h420v-1075h-420zM360 1217v280h306v-280h-306z" />
<glyph unicode="&#xf0;" horiz-adv-x="1329" d="M41 477q0 222 142.5 360t355.5 138q64 0 120.5 -12.5t92 -30.5t62 -36.5t37.5 -31.5l11 -12q-55 165 -254 225l-65 -84h-318l88 113q-35 -2 -66 -5.5t-45 -6.5l-14 -2l-43 319q84 23 234 23q87 0 180 -13l55 72h318l-113 -143q228 -100 347.5 -297.5t119.5 -440.5 q0 -292 -169 -463.5t-476 -171.5q-280 0 -440 135t-160 365zM477 475q0 -33 8.5 -61.5t28.5 -57t61 -45t99 -16.5q57 0 97.5 16.5t60 45t28 57t8.5 61.5t-8.5 62t-28 57.5t-60 45.5t-97.5 17q-58 0 -99 -17t-61 -45.5t-28.5 -57.5t-8.5 -62z" />
<glyph unicode="&#xf1;" d="M88 0v1075h420v-104q198 127 391 127q338 0 338 -346v-752h-420v649q0 63 -20.5 95t-75.5 32q-53 0 -110.5 -27t-102.5 -71v-678h-420zM229 1286q60 117 90 156q73 98 175 98q51 0 114 -24t116.5 -48t80.5 -24q16 0 29 5t34.5 27t44.5 62l174 -88q-60 -120 -94 -164 q-71 -90 -170 -90q-51 0 -114 24t-116.5 48t-80.5 24q-55 0 -109 -94z" />
<glyph unicode="&#xf2;" horiz-adv-x="1294" d="M41 539q0 269 156.5 414t449.5 145q291 0 448.5 -146t157.5 -415t-156.5 -414.5t-449.5 -145.5q-291 0 -448.5 146.5t-157.5 415.5zM201 1493h442l260 -297h-340zM465 539q0 -244 182 -244t182 242q0 243 -182 243t-182 -241z" />
<glyph unicode="&#xf3;" horiz-adv-x="1294" d="M41 539q0 269 156.5 414t449.5 145q291 0 448.5 -146t157.5 -415t-156.5 -414.5t-449.5 -145.5q-291 0 -448.5 146.5t-157.5 415.5zM391 1196l260 297h443l-363 -297h-340zM465 539q0 -244 182 -244t182 242q0 243 -182 243t-182 -241z" />
<glyph unicode="&#xf4;" horiz-adv-x="1294" d="M41 539q0 269 156.5 414t449.5 145q291 0 448.5 -146t157.5 -415t-156.5 -414.5t-449.5 -145.5q-291 0 -448.5 146.5t-157.5 415.5zM229 1196l230 297h377l229 -297h-281l-137 129l-137 -129h-281zM465 539q0 -244 182 -244t182 242q0 243 -182 243t-182 -241z" />
<glyph unicode="&#xf5;" horiz-adv-x="1294" d="M41 539q0 269 156.5 414t449.5 145q291 0 448.5 -146t157.5 -415t-156.5 -414.5t-449.5 -145.5q-291 0 -448.5 146.5t-157.5 415.5zM219 1286q60 117 88 154q73 100 176 100q51 0 114.5 -24t117 -48t80.5 -24q16 0 29 5t34.5 27t44.5 62l174 -88q-60 -120 -94 -164 q-71 -90 -170 -90q-51 0 -114 24t-116.5 48t-80.5 24q-55 0 -109 -94zM465 539q0 -244 182 -244t182 242q0 243 -182 243t-182 -241z" />
<glyph unicode="&#xf6;" horiz-adv-x="1294" d="M41 539q0 269 156.5 414t449.5 145q291 0 448.5 -146t157.5 -415t-156.5 -414.5t-449.5 -145.5q-291 0 -448.5 146.5t-157.5 415.5zM297 1217v280h305v-280h-305zM465 539q0 -244 182 -244t182 242q0 243 -182 243t-182 -241zM694 1217v280h305v-280h-305z" />
<glyph unicode="&#xf7;" horiz-adv-x="1290" d="M104 528v310h1080v-310h-1080zM461 283q0 77 53 130.5t129 53.5q77 0 130.5 -53.5t53.5 -130.5q0 -76 -53.5 -129.5t-130.5 -53.5q-76 0 -129 53t-53 130zM461 1083q0 77 53 131t129 54t130 -54t54 -131q0 -76 -53.5 -129t-130.5 -53t-129.5 52.5t-52.5 129.5z" />
<glyph unicode="&#xf8;" horiz-adv-x="1294" d="M41 539q0 269 156.5 414t449.5 145q179 0 314 -60l30 37h226l-113 -131q149 -146 149 -407q0 -269 -156.5 -414.5t-449.5 -145.5q-184 0 -319 60l-33 -37h-232l119 137q-141 147 -141 402zM465 539q0 -47 4 -70l254 297q-40 14 -76 14q-182 0 -182 -241zM563 311 q37 -16 84 -16q182 0 182 242q0 41 -6 79z" />
<glyph unicode="&#xf9;" d="M80 324v751h420v-649q0 -63 20.5 -95t75.5 -32q52 0 109.5 26.5t103.5 71.5v678h420v-1075h-420v104q-96 -60 -189 -93.5t-204 -33.5q-336 0 -336 347zM207 1493h442l260 -297h-340z" />
<glyph unicode="&#xfa;" d="M80 324v751h420v-649q0 -63 20.5 -95t75.5 -32q52 0 109.5 26.5t103.5 71.5v678h420v-1075h-420v104q-96 -60 -189 -93.5t-204 -33.5q-336 0 -336 347zM397 1196l260 297h443l-363 -297h-340z" />
<glyph unicode="&#xfb;" d="M80 324v751h420v-649q0 -63 20.5 -95t75.5 -32q52 0 109.5 26.5t103.5 71.5v678h420v-1075h-420v104q-96 -60 -189 -93.5t-204 -33.5q-336 0 -336 347zM236 1196l229 297h377l229 -297h-280l-138 129l-137 -129h-280z" />
<glyph unicode="&#xfc;" d="M80 324v751h420v-649q0 -63 20.5 -95t75.5 -32q52 0 109.5 26.5t103.5 71.5v678h420v-1075h-420v104q-96 -60 -189 -93.5t-204 -33.5q-336 0 -336 347zM303 1217v280h305v-280h-305zM700 1217v280h306v-280h-306z" />
<glyph unicode="&#xfd;" horiz-adv-x="1255" d="M-2 1075h451l178 -567l178 567h452l-581 -1493h-449l187 420zM371 1196l260 297h442l-362 -297h-340z" />
<glyph unicode="&#xfe;" horiz-adv-x="1320" d="M88 -418v1911h420v-516q76 60 154.5 90.5t185.5 30.5q200 0 314 -147t114 -414q0 -265 -114.5 -412.5t-313.5 -147.5q-107 0 -185.5 30t-154.5 89v-514h-420zM508 414q88 -103 197 -103q147 0 147 228q0 225 -147 225q-107 0 -197 -105v-245z" />
<glyph unicode="&#xff;" horiz-adv-x="1255" d="M-2 1075h451l178 -567l178 567h452l-581 -1493h-449l187 420zM276 1217v280h306v-280h-306zM674 1217v280h305v-280h-305z" />
<glyph unicode="&#x100;" horiz-adv-x="1509" d="M-10 0l524 1434h483l523 -1434h-476l-63 217h-453l-61 -217h-477zM426 1556v234h659v-234h-659zM625 555h260l-131 459z" />
<glyph unicode="&#x101;" horiz-adv-x="1263" d="M27 338q0 156 112.5 249t300.5 93q43 0 95.5 -5.5t88.5 -11t83.5 -14t58.5 -10.5v39q0 63 -34 85.5t-124 22.5q-139 0 -385 -69l-125 280q322 101 596 101q268 0 380 -102.5t112 -348.5v-647h-420v111q-153 -134 -354 -134q-176 0 -280.5 105t-104.5 256zM311 1247v234 h660v-234h-660zM451 379q0 -41 28 -63.5t78 -22.5q112 0 209 76v75q-117 25 -186 25q-129 0 -129 -90z" />
<glyph unicode="&#x102;" horiz-adv-x="1509" d="M-10 0l524 1434h483l523 -1434h-476l-63 217h-453l-61 -217h-477zM375 1788h246q0 -30 35.5 -50t95.5 -20q63 0 100 20t37 50h246q0 -133 -100.5 -208t-282.5 -75q-178 0 -277.5 75.5t-99.5 207.5zM625 555h260l-131 459z" />
<glyph unicode="&#x103;" horiz-adv-x="1263" d="M27 338q0 156 112.5 249t300.5 93q43 0 95.5 -5.5t88.5 -11t83.5 -14t58.5 -10.5v39q0 63 -34 85.5t-124 22.5q-139 0 -385 -69l-125 280q322 101 596 101q268 0 380 -102.5t112 -348.5v-647h-420v111q-153 -134 -354 -134q-176 0 -280.5 105t-104.5 256zM264 1479h246 q0 -30 35.5 -50t95.5 -20q63 0 100 20t37 50h246q0 -133 -100.5 -208t-282.5 -75q-178 0 -277.5 75.5t-99.5 207.5zM451 379q0 -41 28 -63.5t78 -22.5q112 0 209 76v75q-117 25 -186 25q-129 0 -129 -90z" />
<glyph unicode="&#x104;" horiz-adv-x="1509" d="M-10 0l524 1434h483l523 -1434h-7q-184 -109 -184 -188q0 -19 9 -32t21 -19t32 -9t32.5 -3t31.5 0.5t22 0.5l-35 -170q-2 0 -24.5 -0.5t-37.5 -0.5t-44 2t-50 5t-50 10t-49.5 16.5t-43 24.5t-36.5 33.5t-23 45t-9 57.5q0 130 199 227h-230l-63 217h-453l-61 -217h-477z M625 555h260l-131 459z" />
<glyph unicode="&#x105;" horiz-adv-x="1263" d="M27 338q0 156 112.5 249t300.5 93q43 0 95.5 -5.5t88.5 -11t83.5 -14t58.5 -10.5v39q0 63 -34 85.5t-124 22.5q-139 0 -385 -69l-125 280q322 101 596 101q268 0 380 -102.5t112 -348.5v-647h-6q-185 -110 -185 -188q0 -19 9 -32t21 -19t32 -9t32.5 -3t31.5 0.5t22 0.5 l-35 -170q-2 0 -24.5 -0.5t-37.5 -0.5t-44 2t-50 5t-50 10t-49.5 16.5t-43 24.5t-36.5 33.5t-23 45t-9 57.5q0 130 199 227h-174v111q-153 -134 -354 -134q-176 0 -280.5 105t-104.5 256zM451 379q0 -41 28 -63.5t78 -22.5q112 0 209 76v75q-117 25 -186 25q-129 0 -129 -90 z" />
<glyph unicode="&#x106;" horiz-adv-x="1353" d="M53 717q0 361 168 550t453 189q169 0 323 -52t344 -151l-196 -321q-260 133 -414 133q-115 0 -172 -93t-57 -255t57 -255t172 -93q154 0 414 133l196 -322q-190 -99 -344 -151t-323 -52q-139 0 -252 46.5t-196 137t-128 232.5t-45 324zM530 1505l261 297h442l-363 -297 h-340z" />
<glyph unicode="&#x107;" horiz-adv-x="1075" d="M43 539q0 116 28 210.5t75.5 158.5t113.5 107.5t139.5 63t155.5 19.5q217 0 510 -121l-162 -309q-175 73 -272 73q-82 0 -122 -54.5t-40 -147.5q0 -94 40.5 -149.5t121.5 -55.5q94 0 272 74l162 -310q-293 -121 -508 -121q-104 0 -194 33t-163 98.5t-115 176t-42 254.5z M330 1196l260 297h442l-362 -297h-340z" />
<glyph unicode="&#x10a;" horiz-adv-x="1353" d="M53 717q0 361 168 550t453 189q169 0 323 -52t344 -151l-196 -321q-260 133 -414 133q-115 0 -172 -93t-57 -255t57 -255t172 -93q154 0 414 133l196 -322q-190 -99 -344 -151t-323 -52q-139 0 -252 46.5t-196 137t-128 232.5t-45 324zM565 1526v280h305v-280h-305z" />
<glyph unicode="&#x10b;" horiz-adv-x="1075" d="M43 539q0 116 28 210.5t75.5 158.5t113.5 107.5t139.5 63t155.5 19.5q217 0 510 -121l-162 -309q-175 73 -272 73q-82 0 -122 -54.5t-40 -147.5q0 -94 40.5 -149.5t121.5 -55.5q94 0 272 74l162 -310q-293 -121 -508 -121q-104 0 -194 33t-163 98.5t-115 176t-42 254.5z M432 1217v280h305v-280h-305z" />
<glyph unicode="&#x10c;" horiz-adv-x="1353" d="M53 717q0 361 168 550t453 189q169 0 323 -52t344 -151l-196 -321q-260 133 -414 133q-115 0 -172 -93t-57 -255t57 -255t172 -93q154 0 414 133l196 -322q-190 -99 -344 -151t-323 -52q-139 0 -252 46.5t-196 137t-128 232.5t-45 324zM303 1802h281l137 -129l137 129 h281l-230 -297h-377z" />
<glyph unicode="&#x10d;" horiz-adv-x="1075" d="M43 539q0 116 28 210.5t75.5 158.5t113.5 107.5t139.5 63t155.5 19.5q217 0 510 -121l-162 -309q-175 73 -272 73q-82 0 -122 -54.5t-40 -147.5q0 -94 40.5 -149.5t121.5 -55.5q94 0 272 74l162 -310q-293 -121 -508 -121q-104 0 -194 33t-163 98.5t-115 176t-42 254.5z M166 1493h280l138 -129l137 129h280l-229 -297h-377z" />
<glyph unicode="&#x10e;" horiz-adv-x="1513" d="M111 0v1434h581q385 0 575.5 -170.5t190.5 -546.5t-190.5 -546.5t-575.5 -170.5h-581zM365 1802h280l137 -129l138 129h280l-229 -297h-377zM549 367h98q94 0 157 13t116 49.5t78.5 107.5t25.5 180t-25.5 180t-78.5 107.5t-116 49.5t-157 13h-98v-700z" />
<glyph unicode="&#x10f;" horiz-adv-x="1540" d="M43 537q0 267 114 414t314 147q106 0 183.5 -30.5t156.5 -90.5v516h420v-1493h-420v96q-78 -60 -155.5 -89.5t-184.5 -29.5q-199 0 -313.5 147.5t-114.5 412.5zM467 539q0 -228 147 -228q109 0 197 103v245q-90 105 -197 105q-147 0 -147 -225zM1321 1034l127 166h-125 v293h287l12 -332l-229 -219z" />
<glyph unicode="&#x110;" horiz-adv-x="1558" d="M8 553v330h148v551h581q385 0 575.5 -170.5t190.5 -546.5t-190.5 -546.5t-575.5 -170.5h-581v553h-148zM594 367h98q94 0 157 13t116 49.5t78.5 107.5t25.5 180t-25.5 180t-78.5 107.5t-116 49.5t-157 13h-98v-184h254v-330h-254v-186z" />
<glyph unicode="&#x111;" horiz-adv-x="1335" d="M43 537q0 267 114 414t314 147q106 0 183.5 -30.5t156.5 -90.5v180h-346v234h346v102h420v-102h117v-234h-117v-1157h-420v96q-78 -60 -155.5 -89.5t-184.5 -29.5q-199 0 -313.5 147.5t-114.5 412.5zM467 539q0 -228 147 -228q109 0 197 103v245q-90 105 -197 105 q-147 0 -147 -225z" />
<glyph unicode="&#x112;" horiz-adv-x="1292" d="M111 0v1434h1108v-367h-672v-170h545v-358h-545v-172h682v-367h-1118zM340 1556v234h659v-234h-659z" />
<glyph unicode="&#x113;" horiz-adv-x="1206" d="M41 532q0 267 148.5 416.5t424.5 149.5q270 0 411.5 -133t141.5 -351q0 -42 -5 -82t-10 -60l-5 -19h-678q11 -89 50 -129.5t120 -40.5q151 0 389 116l146 -256q-315 -166 -582 -166q-119 0 -217 32.5t-174 98t-118 173.5t-42 251zM295 1247v234h659v-234h-659zM473 664 h287q-6 143 -142 143q-64 0 -98.5 -35t-46.5 -108z" />
<glyph unicode="&#x116;" horiz-adv-x="1292" d="M111 0v1434h1108v-367h-672v-170h545v-358h-545v-172h682v-367h-1118zM518 1526v280h305v-280h-305z" />
<glyph unicode="&#x117;" horiz-adv-x="1206" d="M41 532q0 267 148.5 416.5t424.5 149.5q270 0 411.5 -133t141.5 -351q0 -42 -5 -82t-10 -60l-5 -19h-678q11 -89 50 -129.5t120 -40.5q151 0 389 116l146 -256q-315 -166 -582 -166q-119 0 -217 32.5t-174 98t-118 173.5t-42 251zM473 664h287q-6 143 -142 143 q-64 0 -98.5 -35t-46.5 -108zM475 1217v280h305v-280h-305z" />
<glyph unicode="&#x118;" horiz-adv-x="1292" d="M111 0v1434h1108v-367h-672v-170h545v-358h-545v-172h682v-367h-6q-185 -110 -185 -188q0 -19 9 -32t21 -19t32 -9t32.5 -3t31.5 0.5t22 0.5l-35 -170q-2 0 -24.5 -0.5t-37.5 -0.5t-44 2t-50 5t-50 10t-49.5 16.5t-43 24.5t-36.5 33.5t-23 45t-9 57.5q0 130 199 227h-872 z" />
<glyph unicode="&#x119;" horiz-adv-x="1208" d="M41 532q0 267 148.5 416.5t424.5 149.5q270 0 411.5 -133t141.5 -351q0 -42 -5 -82t-10 -60l-5 -19h-678q11 -89 50 -129.5t120 -40.5q151 0 389 116l146 -256q-207 -109 -386 -145q-180 -107 -180 -186q0 -19 9 -32t21 -19t32 -9t32.5 -3t31.5 0.5t22 0.5l-35 -170 q-2 0 -24.5 -0.5t-37.5 -0.5t-44 2t-50 5t-50 10t-49.5 16.5t-43 24.5t-36.5 33.5t-23 45t-9 57.5q0 119 162 209q-105 10 -189.5 46.5t-149.5 102t-100.5 167.5t-35.5 234zM473 664h287q-6 143 -142 143q-64 0 -98.5 -35t-46.5 -108z" />
<glyph unicode="&#x11a;" horiz-adv-x="1292" d="M111 0v1434h1108v-367h-672v-170h545v-358h-545v-172h682v-367h-1118zM252 1802h280l138 -129l137 129h280l-229 -297h-377z" />
<glyph unicode="&#x11b;" horiz-adv-x="1206" d="M41 532q0 267 148.5 416.5t424.5 149.5q270 0 411.5 -133t141.5 -351q0 -42 -5 -82t-10 -60l-5 -19h-678q11 -89 50 -129.5t120 -40.5q151 0 389 116l146 -256q-315 -166 -582 -166q-119 0 -217 32.5t-174 98t-118 173.5t-42 251zM209 1493h280l138 -129l137 129h280 l-229 -297h-377zM473 664h287q-6 143 -142 143q-64 0 -98.5 -35t-46.5 -108z" />
<glyph unicode="&#x11e;" horiz-adv-x="1474" d="M53 715q0 183 46 325t130 232.5t199.5 137t257.5 46.5q177 0 339.5 -52.5t358.5 -150.5l-196 -321q-278 133 -445 133q-120 0 -180.5 -93.5t-60.5 -254.5q0 -371 237 -371q115 0 254 123v53h-288v338h692v-860h-404v119q-165 -142 -360 -142q-119 0 -222.5 47t-184 136 t-127 232t-46.5 323zM344 1788h246q0 -30 35.5 -50t95.5 -20q63 0 100 20t37 50h246q0 -133 -100.5 -208t-282.5 -75q-178 0 -277.5 75.5t-99.5 207.5z" />
<glyph unicode="&#x11f;" horiz-adv-x="1318" d="M43 537q0 267 114 414t314 147q106 0 183.5 -30.5t156.5 -90.5v98h420v-1022q0 -247 -123 -369t-397 -122q-136 0 -305.5 25.5t-315.5 68.5l78 315q101 -32 237 -60t209 -28q116 0 156.5 33.5t40.5 114.5v65q-78 -60 -155.5 -89.5t-184.5 -29.5q-199 0 -313.5 147.5 t-114.5 412.5zM283 1479h245q0 -30 35.5 -50t95.5 -20q63 0 100.5 20t37.5 50h245q0 -133 -100.5 -208t-282.5 -75q-178 0 -277 75t-99 208zM467 539q0 -228 147 -228q109 0 197 103v245q-90 105 -197 105q-147 0 -147 -225z" />
<glyph unicode="&#x120;" horiz-adv-x="1474" d="M53 715q0 183 46 325t130 232.5t199.5 137t257.5 46.5q177 0 339.5 -52.5t358.5 -150.5l-196 -321q-278 133 -445 133q-120 0 -180.5 -93.5t-60.5 -254.5q0 -371 237 -371q115 0 254 123v53h-288v338h692v-860h-404v119q-165 -142 -360 -142q-119 0 -222.5 47t-184 136 t-127 232t-46.5 323zM571 1526v280h306v-280h-306z" />
<glyph unicode="&#x121;" horiz-adv-x="1318" d="M43 537q0 267 114 414t314 147q106 0 183.5 -30.5t156.5 -90.5v98h420v-1022q0 -247 -123 -369t-397 -122q-136 0 -305.5 25.5t-315.5 68.5l78 315q101 -32 237 -60t209 -28q116 0 156.5 33.5t40.5 114.5v65q-78 -60 -155.5 -89.5t-184.5 -29.5q-199 0 -313.5 147.5 t-114.5 412.5zM467 539q0 -228 147 -228q109 0 197 103v245q-90 105 -197 105q-147 0 -147 -225zM508 1217v280h305v-280h-305z" />
<glyph unicode="&#x122;" horiz-adv-x="1474" d="M53 715q0 183 46 325t130 232.5t199.5 137t257.5 46.5q177 0 339.5 -52.5t358.5 -150.5l-196 -321q-278 133 -445 133q-120 0 -180.5 -93.5t-60.5 -254.5q0 -371 237 -371q115 0 254 123v53h-288v338h692v-860h-404v119q-165 -142 -360 -142q-119 0 -222.5 47t-184 136 t-127 232t-46.5 323zM610 -563l127 166h-125v293h287l12 -332l-229 -219z" />
<glyph unicode="&#x123;" horiz-adv-x="1318" d="M43 537q0 267 114 414t314 147q106 0 183.5 -30.5t156.5 -90.5v98h420v-1022q0 -247 -123 -369t-397 -122q-136 0 -305.5 25.5t-315.5 68.5l78 315q101 -32 237 -60t209 -28q116 0 156.5 33.5t40.5 114.5v65q-78 -60 -155.5 -89.5t-184.5 -29.5q-199 0 -313.5 147.5 t-114.5 412.5zM467 539q0 -228 147 -228q109 0 197 103v245q-90 105 -197 105q-147 0 -147 -225zM508 1548l229 219l72 -92l-127 -166h125v-292h-287z" />
<glyph unicode="&#x126;" horiz-adv-x="1619" d="M4 1047v233h156v154h436v-154h430v154h436v-154h154v-233h-154v-1047h-436v573h-430v-573h-436v1047h-156zM596 932h430v115h-430v-115z" />
<glyph unicode="&#x127;" horiz-adv-x="1333" d="M-12 1157v234h116v102h420v-102h348v-234h-348v-186q198 127 391 127q338 0 338 -346v-752h-419v649q0 62 -21 94.5t-76 32.5q-53 0 -110.5 -27t-102.5 -71v-678h-420v1157h-116z" />
<glyph unicode="&#x128;" horiz-adv-x="694" d="M-84 1595q60 117 88 154q73 100 176 100q51 0 114.5 -24t117 -48t80.5 -24q16 0 29 5t34.5 27t44.5 62l174 -88q-60 -120 -94 -164q-71 -90 -170 -90q-51 0 -114 24t-116.5 48.5t-80.5 24.5q-55 0 -109 -95zM129 0v1434h436v-1434h-436z" />
<glyph unicode="&#x129;" horiz-adv-x="628" d="M-117 1286q60 117 88 154q73 100 176 100q51 0 114.5 -24t117 -48t80.5 -24q16 0 29 5t34.5 27t44.5 62l174 -88q-60 -120 -94 -164q-71 -90 -170 -90q-51 0 -114 24t-116.5 48t-80.5 24q-55 0 -109 -94zM104 0v1075h420v-1075h-420z" />
<glyph unicode="&#x12a;" horiz-adv-x="698" d="M18 1556v234h660v-234h-660zM131 0v1434h436v-1434h-436z" />
<glyph unicode="&#x12b;" horiz-adv-x="628" d="M-16 1247v234h659v-234h-659zM104 0v1075h420v-1075h-420z" />
<glyph unicode="&#x12c;" horiz-adv-x="696" d="M-33 1788h246q0 -30 35.5 -50t95.5 -20q63 0 100 20t37 50h246q0 -133 -100.5 -208t-282.5 -75q-178 0 -277.5 75.5t-99.5 207.5zM129 0v1434h436v-1434h-436z" />
<glyph unicode="&#x12d;" horiz-adv-x="626" d="M-68 1479h246q0 -30 35.5 -50t95.5 -20q63 0 100 20t37 50h246q0 -133 -100.5 -208t-282.5 -75q-178 0 -277.5 75.5t-99.5 207.5zM102 0v1075h420v-1075h-420z" />
<glyph unicode="&#x12e;" horiz-adv-x="665" d="M111 -227q0 131 198 227h-190v1434h436v-1434h-6q-184 -109 -184 -188q0 -19 9 -32t21 -19t31.5 -9t32 -3t31.5 0.5t22 0.5l-35 -170q-2 0 -24.5 -0.5t-37 -0.5t-44 2t-50 5t-50 10t-50 16.5t-42.5 24.5t-36 33.5t-23 45t-9 57.5z" />
<glyph unicode="&#x12f;" horiz-adv-x="614" d="M82 -227q0 130 199 227h-175v1075h420v-1075h-6q-184 -109 -184 -188q0 -19 9 -32t21 -19t31.5 -9t32 -3t31.5 0.5t22 0.5l-34 -170q-2 0 -24.5 -0.5t-37.5 -0.5t-44 2t-50 5t-50 10t-49.5 16.5t-43 24.5t-36.5 33.5t-23 45t-9 57.5zM98 1174v313h434v-313h-434z" />
<glyph unicode="&#x130;" horiz-adv-x="657" d="M111 0v1434h436v-1434h-436zM176 1526v280h305v-280h-305z" />
<glyph unicode="&#x131;" horiz-adv-x="595" d="M88 0v1075h420v-1075h-420z" />
<glyph unicode="&#x132;" horiz-adv-x="1353" d="M111 0v1434h436v-1434h-436zM569 -100q45 15 78.5 27.5t59 26.5t42.5 24t28.5 26t17 26.5t8.5 32t3.5 35t0.5 43.5v1293h436v-1268q0 -103 -2.5 -150t-17 -118t-47 -105.5t-91 -79t-150.5 -74t-224 -57.5z" />
<glyph unicode="&#x133;" horiz-adv-x="1224" d="M82 1174v313h434v-313h-434zM88 0v1075h420v-1075h-420zM479 -188q46 15 78.5 27.5t59 26.5t42.5 23t28 26t17.5 27t8.5 33t3.5 38t0.5 48v1014h420v-979q0 -69 -1 -102.5t-5 -88t-13.5 -81t-27 -67.5t-44 -63t-65.5 -51.5t-91.5 -49t-121.5 -41t-156 -39.5zM709 1174 v313h434v-313h-434z" />
<glyph unicode="&#x134;" horiz-adv-x="696" d="M-106 -100q36 12 64.5 22.5t51.5 21.5t40 19t30 20.5t21.5 20t14.5 22t9 23t4.5 27.5t1.5 29.5v35.5v1293h436v-1268q0 -103 -2.5 -150t-17 -118t-47 -105.5t-91 -79t-150.5 -74t-224 -57.5zM-70 1505l230 297h377l229 -297h-281l-137 129l-137 -129h-281z" />
<glyph unicode="&#x135;" horiz-adv-x="628" d="M-133 -188q61 21 100 36t67 34t41 31.5t20 40t8 45.5t1 62v1014h420v-979q0 -103 -2.5 -150t-17 -118t-46 -105.5t-89.5 -79t-148.5 -73.5t-220.5 -57zM-104 1196l229 297h377l229 -297h-280l-138 129l-137 -129h-280z" />
<glyph unicode="&#x136;" horiz-adv-x="1503" d="M111 0v1434h436v-545l436 545h533l-580 -660l586 -774h-516l-340 469l-119 -137v-332h-436zM590 -563l127 166h-125v293h287l12 -332l-229 -219z" />
<glyph unicode="&#x137;" horiz-adv-x="1265" d="M88 0v1493h420v-741l235 323h488l-363 -422l424 -653h-452l-224 362l-108 -126v-236h-420zM487 -563l127 166h-125v293h287l12 -332l-229 -219z" />
<glyph unicode="&#x138;" horiz-adv-x="1265" d="M88 0v1075h420v-323l235 323h488l-363 -422l424 -653h-452l-224 362l-108 -126v-236h-420z" />
<glyph unicode="&#x139;" horiz-adv-x="1218" d="M80 1505l260 297h442l-362 -297h-340zM117 0v1434h436v-1067h649v-367h-1085z" />
<glyph unicode="&#x13a;" horiz-adv-x="620" d="M49 1571l260 297h443l-363 -297h-340zM94 0v1493h420v-1493h-420z" />
<glyph unicode="&#x13b;" horiz-adv-x="1210" d="M111 0v1434h436v-1067h649v-367h-1085zM494 -563l127 166h-125v293h286l13 -332l-230 -219z" />
<glyph unicode="&#x13c;" horiz-adv-x="595" d="M88 0v1493h420v-1493h-420zM158 -563l127 166h-125v293h286l13 -332l-230 -219z" />
<glyph unicode="&#x13d;" horiz-adv-x="1210" d="M111 0v1434h436v-1067h649v-367h-1085zM639 975l127 166h-125v293h287l12 -332l-229 -219z" />
<glyph unicode="&#x13e;" horiz-adv-x="817" d="M88 0v1493h420v-1493h-420zM598 1034l127 166h-125v293h287l12 -332l-229 -219z" />
<glyph unicode="&#x13f;" horiz-adv-x="1214" d="M111 0v1434h436v-1067h649v-367h-1085zM797 623v280h305v-280h-305z" />
<glyph unicode="&#x140;" horiz-adv-x="884" d="M88 0v1493h420v-1493h-420zM600 623v280h305v-280h-305z" />
<glyph unicode="&#x141;" horiz-adv-x="1253" d="M18 342v375l136 76v641h436v-398l264 150v-377l-264 -147v-295h649v-367h-1085v418z" />
<glyph unicode="&#x142;" horiz-adv-x="704" d="M23 373v375l118 67v678h420v-440l117 65v-377l-117 -65v-676h-420v438z" />
<glyph unicode="&#x143;" horiz-adv-x="1556" d="M111 0v1434h440l459 -768v768h436v-1434h-440l-459 768v-768h-436zM535 1505l260 297h442l-363 -297h-339z" />
<glyph unicode="&#x144;" d="M88 0v1075h420v-104q198 127 391 127q338 0 338 -346v-752h-420v649q0 63 -20.5 95t-75.5 32q-53 0 -110.5 -27t-102.5 -71v-678h-420zM406 1196l260 297h442l-363 -297h-339z" />
<glyph unicode="&#x145;" horiz-adv-x="1556" d="M111 0v1434h440l459 -768v768h436v-1434h-440l-459 768v-768h-436zM651 -563l127 166h-125v293h287l12 -332l-229 -219z" />
<glyph unicode="&#x146;" d="M88 0v1075h420v-104q198 127 391 127q338 0 338 -346v-752h-420v649q0 63 -20.5 95t-75.5 32q-53 0 -110.5 -27t-102.5 -71v-678h-420zM522 -563l127 166h-125v293h287l12 -332l-229 -219z" />
<glyph unicode="&#x147;" horiz-adv-x="1556" d="M111 0v1434h440l459 -768v768h436v-1434h-440l-459 768v-768h-436zM371 1802h280l137 -129l138 129h280l-229 -297h-377z" />
<glyph unicode="&#x148;" d="M88 0v1075h420v-104q198 127 391 127q338 0 338 -346v-752h-420v649q0 63 -20.5 95t-75.5 32q-53 0 -110.5 -27t-102.5 -71v-678h-420zM244 1493h280l138 -129l137 129h280l-229 -297h-377z" />
<glyph unicode="&#x149;" d="M86 1217l127 165h-125v293h287l12 -332l-229 -219zM88 0v1075h420v-104q198 127 391 127q338 0 338 -346v-752h-420v649q0 63 -20.5 95t-75.5 32q-53 0 -110.5 -27t-102.5 -71v-678h-420z" />
<glyph unicode="&#x14a;" horiz-adv-x="1556" d="M111 0v1434h440l459 -768v768h436v-1342q0 -57 -2.5 -96.5t-11 -83.5t-24.5 -74.5t-43 -63.5t-66 -57.5t-93.5 -49t-126.5 -45.5t-164 -40l-143 318q106 32 156 57t69 55l-450 754v-766h-436z" />
<glyph unicode="&#x14b;" d="M88 0v1075h420v-104q198 127 391 127q338 0 338 -346v-656q0 -103 -2.5 -150t-17 -118t-46 -105.5t-89.5 -79t-148.5 -73.5t-220.5 -57l-133 299q61 21 100 36t67 34t41 31.5t20 40t8 45.5t1 62v588q0 63 -20.5 95t-75.5 32q-53 0 -110.5 -27t-102.5 -71v-678h-420z" />
<glyph unicode="&#x14c;" horiz-adv-x="1601" d="M53 717q0 128 26.5 237.5t84.5 203t144.5 159t211.5 102.5t281 37q193 0 339 -56t234 -157.5t131 -233t43 -292.5t-43 -292.5t-131 -233.5t-234 -158t-339 -56q-156 0 -281 37t-211.5 103t-144.5 159.5t-84.5 203t-26.5 237.5zM471 1556v234h659v-234h-659zM502 717 q0 -174 72 -271.5t227 -97.5t227 97.5t72 271.5q0 368 -299 368t-299 -368z" />
<glyph unicode="&#x14d;" horiz-adv-x="1294" d="M41 539q0 269 156.5 414t449.5 145q291 0 448.5 -146t157.5 -415t-156.5 -414.5t-449.5 -145.5q-291 0 -448.5 146.5t-157.5 415.5zM317 1247v234h660v-234h-660zM465 539q0 -244 182 -244t182 242q0 243 -182 243t-182 -241z" />
<glyph unicode="&#x14e;" horiz-adv-x="1601" d="M53 717q0 128 26.5 237.5t84.5 203t144.5 159t211.5 102.5t281 37q193 0 339 -56t234 -157.5t131 -233t43 -292.5t-43 -292.5t-131 -233.5t-234 -158t-339 -56q-156 0 -281 37t-211.5 103t-144.5 159.5t-84.5 203t-26.5 237.5zM420 1788h246q0 -30 35.5 -50t95.5 -20 q63 0 100 20t37 50h246q0 -133 -100.5 -208t-282.5 -75q-178 0 -277.5 75.5t-99.5 207.5zM502 717q0 -174 72 -271.5t227 -97.5t227 97.5t72 271.5q0 368 -299 368t-299 -368z" />
<glyph unicode="&#x14f;" horiz-adv-x="1294" d="M41 539q0 269 156.5 414t449.5 145q291 0 448.5 -146t157.5 -415t-156.5 -414.5t-449.5 -145.5q-291 0 -448.5 146.5t-157.5 415.5zM268 1479h246q0 -30 35.5 -50t95.5 -20q63 0 100 20t37 50h246q0 -133 -100.5 -208t-282.5 -75q-178 0 -277.5 75.5t-99.5 207.5z M465 539q0 -244 182 -244t182 242q0 243 -182 243t-182 -241z" />
<glyph unicode="&#x150;" horiz-adv-x="1601" d="M53 717q0 128 26.5 237.5t84.5 203t144.5 159t211.5 102.5t281 37q193 0 339 -56t234 -157.5t131 -233t43 -292.5t-43 -292.5t-131 -233.5t-234 -158t-339 -56q-156 0 -281 37t-211.5 103t-144.5 159.5t-84.5 203t-26.5 237.5zM440 1505l172 297h346l-272 -297h-246z M502 717q0 -174 72 -271.5t227 -97.5t227 97.5t72 271.5q0 368 -299 368t-299 -368zM852 1505l170 297h348l-274 -297h-244z" />
<glyph unicode="&#x151;" horiz-adv-x="1294" d="M41 539q0 269 156.5 414t449.5 145q291 0 448.5 -146t157.5 -415t-156.5 -414.5t-449.5 -145.5q-291 0 -448.5 146.5t-157.5 415.5zM285 1196l172 297h346l-273 -297h-245zM465 539q0 -244 182 -244t182 242q0 243 -182 243t-182 -241zM696 1196l170 297h348l-274 -297 h-244z" />
<glyph unicode="&#x152;" horiz-adv-x="2283" d="M53 717q0 128 26.5 237.5t84.5 203t144.5 159t211.5 102.5t281 37q164 0 301 -43v21h1108v-367h-672v-170h545v-358h-545v-172h682v-367h-1118v20q-137 -43 -301 -43q-156 0 -281 37t-211.5 103t-144.5 159.5t-84.5 203t-26.5 237.5zM502 717q0 -174 72 -271.5t227 -97.5 t227 97.5t72 271.5q0 368 -299 368t-299 -368z" />
<glyph unicode="&#x153;" horiz-adv-x="1994" d="M41 539q0 269 156.5 414t449.5 145q238 0 391 -101q141 101 367 101q270 0 411.5 -133t141.5 -351q0 -42 -5 -82t-11 -60l-5 -19h-677q11 -89 50 -129.5t120 -40.5q151 0 389 116l145 -256q-315 -166 -582 -166q-210 0 -348 97q-151 -97 -387 -97q-291 0 -448.5 146.5 t-157.5 415.5zM465 539q0 -244 182 -244t182 242q0 243 -182 243t-182 -241zM1264 664h286q-6 143 -141 143q-64 0 -98.5 -35t-46.5 -108z" />
<glyph unicode="&#x154;" horiz-adv-x="1484" d="M111 0v1434h710q321 0 469 -116t148 -349q0 -349 -330 -434l332 -535h-471l-291 504h-131v-504h-436zM518 1505l260 297h443l-363 -297h-340zM547 840h244q49 0 83 5t64 18t44.5 39.5t14.5 66.5t-14.5 66.5t-44.5 39.5t-64 18t-83 5h-244v-258z" />
<glyph unicode="&#x155;" horiz-adv-x="929" d="M88 0v1075h420v-219q11 27 26.5 54t49 63t75 61.5t106 41.5t140.5 11v-393q-73 0 -134.5 -19t-101 -50t-70.5 -68t-47.5 -74t-27 -68t-13.5 -50l-3 -19v-346h-420zM242 1196l260 297h442l-362 -297h-340z" />
<glyph unicode="&#x156;" horiz-adv-x="1484" d="M111 0v1434h710q321 0 469 -116t148 -349q0 -349 -330 -434l332 -535h-471l-291 504h-131v-504h-436zM547 840h244q49 0 83 5t64 18t44.5 39.5t14.5 66.5t-14.5 66.5t-44.5 39.5t-64 18t-83 5h-244v-258zM592 -563l127 166h-125v293h287l12 -332l-229 -219z" />
<glyph unicode="&#x157;" horiz-adv-x="925" d="M88 0v1075h420v-219q11 27 26.5 54t49 63t75 61.5t106 41.5t140.5 11v-393q-73 0 -134.5 -19t-101 -50t-70.5 -68t-47.5 -74t-27 -68t-13.5 -50l-3 -19v-346h-420zM158 -563l127 166h-125v293h286l13 -332l-230 -219z" />
<glyph unicode="&#x158;" horiz-adv-x="1484" d="M111 0v1434h710q321 0 469 -116t148 -349q0 -349 -330 -434l332 -535h-471l-291 504h-131v-504h-436zM356 1802h281l137 -129l137 129h281l-229 -297h-377zM547 840h244q49 0 83 5t64 18t44.5 39.5t14.5 66.5t-14.5 66.5t-44.5 39.5t-64 18t-83 5h-244v-258z" />
<glyph unicode="&#x159;" horiz-adv-x="927" d="M80 1493h280l138 -129l137 129h280l-229 -297h-377zM88 0v1075h420v-219q11 27 26.5 54t49 63t75 61.5t106 41.5t140.5 11v-393q-73 0 -134.5 -19t-101 -50t-70.5 -68t-47.5 -74t-27 -68t-13.5 -50l-3 -19v-346h-420z" />
<glyph unicode="&#x15a;" horiz-adv-x="1349" d="M29 188l190 308q101 -57 257.5 -108.5t254.5 -51.5q58 0 94.5 16t36.5 47q0 27 -23 45.5t-69 32.5t-98.5 25.5t-130.5 34t-146 49.5q-48 17 -91.5 40t-90 59.5t-79 80.5t-54 106.5t-21.5 133.5q0 94 35.5 174.5t103.5 142.5t178.5 97.5t250.5 35.5q167 0 344 -46 t315 -116l-192 -313q-98 43 -226.5 80t-212.5 37q-59 0 -96 -16t-37 -48q0 -43 56.5 -65.5t185 -52t223.5 -68.5q49 -20 88 -39.5t88.5 -56t82.5 -78.5t56 -105t23 -137q0 -94 -36 -175.5t-105 -144.5t-179.5 -99t-250.5 -36q-199 0 -397 63.5t-328 147.5zM422 1505l260 297 h442l-362 -297h-340z" />
<glyph unicode="&#x15b;" horiz-adv-x="1138" d="M23 123l145 268q95 -45 231 -84t213 -39q31 0 51 8t24.5 14.5t4.5 10.5q0 14 -13 24t-41 18t-56.5 14t-76 15.5t-83.5 18.5q-377 95 -377 363q0 150 117.5 247t341.5 97q144 0 298.5 -37.5t264.5 -85.5l-143 -246q-87 30 -197.5 56t-177.5 26q-42 0 -62 -11t-20 -26 q0 -14 12 -23.5t39 -17.5t55 -14t76 -15.5t86 -19.5q57 -14 104 -30.5t101 -46.5t90.5 -66.5t61 -93.5t24.5 -125q0 -156 -121 -250.5t-352 -94.5q-164 0 -338 44t-282 102zM315 1196l260 297h443l-363 -297h-340z" />
<glyph unicode="&#x15c;" horiz-adv-x="1349" d="M29 188l190 308q101 -57 257.5 -108.5t254.5 -51.5q58 0 94.5 16t36.5 47q0 27 -23 45.5t-69 32.5t-98.5 25.5t-130.5 34t-146 49.5q-48 17 -91.5 40t-90 59.5t-79 80.5t-54 106.5t-21.5 133.5q0 94 35.5 174.5t103.5 142.5t178.5 97.5t250.5 35.5q167 0 344 -46 t315 -116l-192 -313q-98 43 -226.5 80t-212.5 37q-59 0 -96 -16t-37 -48q0 -43 56.5 -65.5t185 -52t223.5 -68.5q49 -20 88 -39.5t88.5 -56t82.5 -78.5t56 -105t23 -137q0 -94 -36 -175.5t-105 -144.5t-179.5 -99t-250.5 -36q-199 0 -397 63.5t-328 147.5zM258 1505l229 297 h377l230 -297h-281l-137 129l-137 -129h-281z" />
<glyph unicode="&#x15d;" horiz-adv-x="1138" d="M23 123l145 268q95 -45 231 -84t213 -39q31 0 51 8t24.5 14.5t4.5 10.5q0 14 -13 24t-41 18t-56.5 14t-76 15.5t-83.5 18.5q-377 95 -377 363q0 150 117.5 247t341.5 97q144 0 298.5 -37.5t264.5 -85.5l-143 -246q-87 30 -197.5 56t-177.5 26q-42 0 -62 -11t-20 -26 q0 -14 12 -23.5t39 -17.5t55 -14t76 -15.5t86 -19.5q57 -14 104 -30.5t101 -46.5t90.5 -66.5t61 -93.5t24.5 -125q0 -156 -121 -250.5t-352 -94.5q-164 0 -338 44t-282 102zM154 1196l229 297h377l229 -297h-280l-138 129l-137 -129h-280z" />
<glyph unicode="&#x15e;" horiz-adv-x="1349" d="M29 188l190 308q101 -57 257.5 -108.5t254.5 -51.5q58 0 94.5 16t36.5 47q0 27 -23 45.5t-69 32.5t-98.5 25.5t-130.5 34t-146 49.5q-48 17 -91.5 40t-90 59.5t-79 80.5t-54 106.5t-21.5 133.5q0 94 35.5 174.5t103.5 142.5t178.5 97.5t250.5 35.5q167 0 344 -46 t315 -116l-192 -313q-98 43 -226.5 80t-212.5 37q-59 0 -96 -16t-37 -48q0 -43 56.5 -65.5t185 -52t223.5 -68.5q49 -20 88 -39.5t88.5 -56t82.5 -78.5t56 -105t23 -137q0 -86 -30.5 -162t-89 -137t-152 -100.5t-211.5 -50.5q63 -83 63 -175q0 -105 -73 -154.5t-185 -49.5 q-117 0 -198 49l77 192q45 -22 92 -22q84 0 84 59q0 42 -38 101q-178 13 -349.5 72.5t-285.5 133.5z" />
<glyph unicode="&#x15f;" horiz-adv-x="1138" d="M23 123l145 268q95 -45 231 -84t213 -39q31 0 51 8t24.5 14.5t4.5 10.5q0 14 -13 24t-41 18t-56.5 14t-76 15.5t-83.5 18.5q-377 95 -377 363q0 150 117.5 247t341.5 97q144 0 298.5 -37.5t264.5 -85.5l-143 -246q-87 30 -197.5 56t-177.5 26q-42 0 -62 -11t-20 -26 q0 -14 12 -23.5t39 -17.5t55 -14t76 -15.5t86 -19.5q57 -14 104 -30.5t101 -46.5t90.5 -66.5t61 -93.5t24.5 -125q0 -135 -92.5 -226t-271.5 -112q63 -85 63 -177q0 -105 -73 -154.5t-185 -49.5q-118 0 -199 49l78 192q45 -22 92 -22q84 0 84 59q0 38 -39 99 q-150 8 -301.5 50t-248.5 93z" />
<glyph unicode="&#x160;" horiz-adv-x="1349" d="M29 188l190 308q101 -57 257.5 -108.5t254.5 -51.5q58 0 94.5 16t36.5 47q0 27 -23 45.5t-69 32.5t-98.5 25.5t-130.5 34t-146 49.5q-48 17 -91.5 40t-90 59.5t-79 80.5t-54 106.5t-21.5 133.5q0 94 35.5 174.5t103.5 142.5t178.5 97.5t250.5 35.5q167 0 344 -46 t315 -116l-192 -313q-98 43 -226.5 80t-212.5 37q-59 0 -96 -16t-37 -48q0 -43 56.5 -65.5t185 -52t223.5 -68.5q49 -20 88 -39.5t88.5 -56t82.5 -78.5t56 -105t23 -137q0 -94 -36 -175.5t-105 -144.5t-179.5 -99t-250.5 -36q-199 0 -397 63.5t-328 147.5zM260 1802h281 l137 -129l137 129h281l-230 -297h-377z" />
<glyph unicode="&#x161;" horiz-adv-x="1138" d="M23 123l145 268q95 -45 231 -84t213 -39q31 0 51 8t24.5 14.5t4.5 10.5q0 14 -13 24t-41 18t-56.5 14t-76 15.5t-83.5 18.5q-377 95 -377 363q0 150 117.5 247t341.5 97q144 0 298.5 -37.5t264.5 -85.5l-143 -246q-87 30 -197.5 56t-177.5 26q-42 0 -62 -11t-20 -26 q0 -14 12 -23.5t39 -17.5t55 -14t76 -15.5t86 -19.5q57 -14 104 -30.5t101 -46.5t90.5 -66.5t61 -93.5t24.5 -125q0 -156 -121 -250.5t-352 -94.5q-164 0 -338 44t-282 102zM160 1493h280l138 -129l137 129h280l-229 -297h-377z" />
<glyph unicode="&#x162;" horiz-adv-x="1263" d="M18 1067v367h1227v-367h-391v-1067h-131q12 -14 26.5 -35t33 -68t18.5 -90q0 -105 -73 -154.5t-185 -49.5q-118 0 -199 49l78 192q45 -22 92 -22q84 0 84 59q0 48 -51 119h-129v1067h-400z" />
<glyph unicode="&#x163;" horiz-adv-x="946" d="M31 772v303h145v271l418 40v-311h289v-303h-289v-340q0 -31 7.5 -51t22 -27.5t25 -9.5t27.5 -2q13 0 29 3t33 9t29 10.5t27 11t17 7.5l143 -307q-177 -79 -323 -94q63 -83 63 -175q0 -105 -73 -154.5t-185 -49.5q-117 0 -198 49l77 192q45 -22 93 -22q84 0 84 59 q0 45 -43 107q-142 29 -207.5 139t-65.5 305v340h-145z" />
<glyph unicode="&#x164;" horiz-adv-x="1263" d="M18 1067v367h1227v-367h-391v-1067h-436v1067h-400zM215 1802h281l137 -129l137 129h281l-230 -297h-377z" />
<glyph unicode="&#x165;" horiz-adv-x="942" d="M29 772v303h145v271l418 40v-311h289v-303h-289v-340q0 -31 7.5 -51t22 -27.5t25 -9.5t27.5 -2q13 0 29 3t33 9t29 10.5t27 11t17 7.5l143 -307q-218 -99 -397 -99q-199 0 -290 113.5t-91 341.5v340h-145zM674 1217l127 165h-125v293h287l12 -332l-230 -219z" />
<glyph unicode="&#x166;" horiz-adv-x="1277" d="M25 1067v367h1226v-367h-391v-430h168v-234h-168v-403h-436v403h-170v234h170v430h-399z" />
<glyph unicode="&#x167;" horiz-adv-x="944" d="M29 772v303h145v271l418 40v-311h289v-303h-289v-67h225v-234h-225v-39q0 -31 7.5 -51t22 -27.5t25 -9.5t27.5 -2q13 0 29 3t33 9t29 10.5t27 11t17 7.5l143 -307q-218 -99 -397 -99q-199 0 -290 113.5t-91 341.5v39h-102v234h102v67h-145z" />
<glyph unicode="&#x168;" horiz-adv-x="1501" d="M96 633v801h436v-844q0 -56 9 -96.5t31.5 -75t67.5 -52.5t112 -18q66 0 110.5 18t67 52.5t31 75t8.5 96.5v844h436v-801q0 -82 -7.5 -150.5t-26.5 -137.5t-50.5 -122.5t-82 -101t-117.5 -78.5t-160.5 -48.5t-208.5 -17.5q-160 0 -278 34.5t-189.5 91.5t-114.5 144 t-58.5 178t-15.5 208zM317 1595q60 117 90 156q73 98 175 98q51 0 114 -24t116.5 -48t80.5 -24q16 0 29 5t34.5 27t44.5 62l175 -88q-19 -39 -26 -52.5t-27 -48.5t-32 -50t-34 -39.5t-42 -35t-47 -19.5t-57 -9q-51 0 -114 24t-116.5 48.5t-80.5 24.5q-54 0 -108 -95z" />
<glyph unicode="&#x169;" d="M80 324v751h420v-649q0 -63 20.5 -95t75.5 -32q52 0 109.5 26.5t103.5 71.5v678h420v-1075h-420v104q-96 -60 -189 -93.5t-204 -33.5q-336 0 -336 347zM244 1286q60 117 88 154q73 100 176 100q51 0 114 -24t116.5 -48t80.5 -24q55 0 109 94l174 -88q-60 -120 -94 -164 q-71 -90 -170 -90q-51 0 -114.5 24t-117 48t-80.5 24q-16 0 -29 -5t-34.5 -27t-44.5 -62z" />
<glyph unicode="&#x16a;" horiz-adv-x="1501" d="M96 633v801h436v-844q0 -56 9 -96.5t31.5 -75t67.5 -52.5t112 -18q66 0 110.5 18t67 52.5t31 75t8.5 96.5v844h436v-801q0 -82 -7.5 -150.5t-26.5 -137.5t-50.5 -122.5t-82 -101t-117.5 -78.5t-160.5 -48.5t-208.5 -17.5q-160 0 -278 34.5t-189.5 91.5t-114.5 144 t-58.5 178t-15.5 208zM422 1556v234h659v-234h-659z" />
<glyph unicode="&#x16b;" d="M80 324v751h420v-649q0 -63 20.5 -95t75.5 -32q52 0 109.5 26.5t103.5 71.5v678h420v-1075h-420v104q-96 -60 -189 -93.5t-204 -33.5q-336 0 -336 347zM324 1247v234h659v-234h-659z" />
<glyph unicode="&#x16c;" horiz-adv-x="1501" d="M96 633v801h436v-844q0 -56 9 -96.5t31.5 -75t67.5 -52.5t112 -18q66 0 110.5 18t67 52.5t31 75t8.5 96.5v844h436v-801q0 -82 -7.5 -150.5t-26.5 -137.5t-50.5 -122.5t-82 -101t-117.5 -78.5t-160.5 -48.5t-208.5 -17.5q-160 0 -278 34.5t-189.5 91.5t-114.5 144 t-58.5 178t-15.5 208zM371 1788h245q0 -30 36 -50t96 -20q63 0 100 20t37 50h245q0 -133 -100 -208t-282 -75q-178 0 -277.5 75.5t-99.5 207.5z" />
<glyph unicode="&#x16d;" d="M80 324v751h420v-649q0 -63 20.5 -95t75.5 -32q52 0 109.5 26.5t103.5 71.5v678h420v-1075h-420v104q-96 -60 -189 -93.5t-204 -33.5q-336 0 -336 347zM272 1479h246q0 -30 35.5 -50t95.5 -20q63 0 100 20t37 50h246q0 -133 -100.5 -208t-282.5 -75q-178 0 -277.5 75.5 t-99.5 207.5z" />
<glyph unicode="&#x16e;" horiz-adv-x="1501" d="M96 633v801h436v-844q0 -56 9 -96.5t31.5 -75t67.5 -52.5t112 -18q66 0 110.5 18t67 52.5t31 75t8.5 96.5v844h436v-801q0 -82 -7.5 -150.5t-26.5 -137.5t-50.5 -122.5t-82 -101t-117.5 -78.5t-160.5 -48.5t-208.5 -17.5q-160 0 -278 34.5t-189.5 91.5t-114.5 144 t-58.5 178t-15.5 208zM508 1731q0 101 72.5 173t173.5 72t173 -72t72 -173t-72 -173.5t-173 -72.5t-173.5 72.5t-72.5 173.5zM694 1731q0 -25 17.5 -42.5t42.5 -17.5t42 17.5t17 42.5t-17 42t-42 17t-42.5 -17t-17.5 -42z" />
<glyph unicode="&#x16f;" d="M80 324v751h420v-649q0 -63 20.5 -95t75.5 -32q52 0 109.5 26.5t103.5 71.5v678h420v-1075h-420v104q-96 -60 -189 -93.5t-204 -33.5q-336 0 -336 347zM410 1421q0 101 72 173.5t173 72.5t173.5 -72.5t72.5 -173.5t-72.5 -173t-173.5 -72t-173 72t-72 173zM596 1421 q0 -25 17 -42t42 -17t42.5 17t17.5 42t-17.5 42.5t-42.5 17.5t-42 -17.5t-17 -42.5z" />
<glyph unicode="&#x170;" horiz-adv-x="1501" d="M96 633v801h436v-844q0 -56 9 -96.5t31.5 -75t67.5 -52.5t112 -18q66 0 110.5 18t67 52.5t31 75t8.5 96.5v844h436v-801q0 -82 -7.5 -150.5t-26.5 -137.5t-50.5 -122.5t-82 -101t-117.5 -78.5t-160.5 -48.5t-208.5 -17.5q-160 0 -278 34.5t-189.5 91.5t-114.5 144 t-58.5 178t-15.5 208zM389 1505l172 297h346l-272 -297h-246zM801 1505l170 297h348l-275 -297h-243z" />
<glyph unicode="&#x171;" d="M80 324v751h420v-649q0 -63 20.5 -95t75.5 -32q52 0 109.5 26.5t103.5 71.5v678h420v-1075h-420v104q-96 -60 -189 -93.5t-204 -33.5q-336 0 -336 347zM293 1196l172 297h346l-272 -297h-246zM705 1196l169 297h349l-275 -297h-243z" />
<glyph unicode="&#x172;" horiz-adv-x="1503" d="M96 633v801h436v-844q0 -56 9 -96.5t31.5 -75t67.5 -52.5t112 -18q66 0 110.5 18t67 52.5t31 75t8.5 96.5v844h436v-801q0 -97 -10 -175.5t-38 -155.5t-73.5 -134t-120 -101.5t-174.5 -66.5q-186 -105 -186 -188q0 -19 9 -32t21 -19t31.5 -9t32 -3t31.5 0.5t22 0.5 l-35 -170q-2 0 -24.5 -0.5t-37 -0.5t-44 2t-50 5t-50 10t-50 16.5t-42.5 24.5t-36 33.5t-23 45t-9 57.5q0 114 158 207q-148 4 -258 40.5t-177 93.5t-107 142t-54.5 174t-14.5 203z" />
<glyph unicode="&#x173;" d="M80 324v751h420v-649q0 -63 20.5 -95t75.5 -32q52 0 109.5 26.5t103.5 71.5v678h420v-1075h-6q-185 -110 -185 -188q0 -19 9 -32t21 -19t32 -9t32.5 -3t31.5 0.5t22 0.5l-35 -170q-2 0 -24.5 -0.5t-37.5 -0.5t-44 2t-50 5t-50 10t-49.5 16.5t-43 24.5t-36.5 33.5t-23 45 t-9 57.5q0 130 199 227h-174v104q-96 -60 -189 -93.5t-204 -33.5q-336 0 -336 347z" />
<glyph unicode="&#x174;" horiz-adv-x="2064" d="M6 1434h502l158 -799l196 799h338l197 -797l159 797h502l-403 -1434h-420l-205 797l-203 -797h-419zM614 1505l230 297h377l229 -297h-281l-137 129l-137 -129h-281z" />
<glyph unicode="&#x175;" horiz-adv-x="1773" d="M2 1075h444l117 -600l158 600h332l157 -600l117 600h445l-330 -1075h-387l-168 571l-168 -571h-389zM469 1196l229 297h377l230 -297h-281l-137 129l-137 -129h-281z" />
<glyph unicode="&#x177;" horiz-adv-x="1255" d="M-2 1075h451l178 -567l178 567h452l-581 -1493h-449l187 420zM209 1196l229 297h377l229 -297h-280l-137 129l-138 -129h-280z" />
<glyph unicode="&#x178;" horiz-adv-x="1423" d="M-16 1434h491l236 -480l237 480h492l-510 -865v-569h-436v569zM360 1526v280h306v-280h-306zM758 1526v280h305v-280h-305z" />
<glyph unicode="&#x179;" horiz-adv-x="1351" d="M49 0v332l658 735h-613v367h1186v-330l-655 -737h665v-367h-1241zM432 1505l260 297h443l-363 -297h-340z" />
<glyph unicode="&#x17a;" horiz-adv-x="1214" d="M49 0v283l492 450h-471v342h1087v-282l-491 -451h491v-342h-1108zM348 1196l260 297h443l-363 -297h-340z" />
<glyph unicode="&#x17b;" horiz-adv-x="1351" d="M49 0v332l658 735h-613v367h1186v-330l-655 -737h665v-367h-1241zM535 1526v280h305v-280h-305z" />
<glyph unicode="&#x17c;" horiz-adv-x="1214" d="M49 0v283l492 450h-471v342h1087v-282l-491 -451h491v-342h-1108zM451 1217v280h305v-280h-305z" />
<glyph unicode="&#x17d;" horiz-adv-x="1351" d="M49 0v332l658 735h-613v367h1186v-330l-655 -737h665v-367h-1241zM268 1802h281l137 -129l137 129h281l-230 -297h-376z" />
<glyph unicode="&#x17e;" horiz-adv-x="1214" d="M49 0v283l492 450h-471v342h1087v-282l-491 -451h491v-342h-1108zM186 1493h281l137 -129l137 129h281l-229 -297h-377z" />
<glyph unicode="&#x17f;" horiz-adv-x="739" d="M27 772v303h145q8 209 99 313.5t282 104.5q194 0 410 -98l-138 -297q-116 37 -153 37q-16 0 -27 -2t-25.5 -10t-22 -28t-7.5 -51v-1044h-418v772h-145z" />
<glyph unicode="&#x192;" horiz-adv-x="1294" d="M45 -418l281 1190h-146l66 303h149q20 84 43.5 144.5t60 115t86 87.5t120.5 52t163 19q28 0 57 -2.5t58 -8t54.5 -10.5t53.5 -13.5t47.5 -14t45 -15t36.5 -13.5t31 -12.5t21 -8.5l-185 -271q-108 37 -153 38q-19 0 -33 -3q-63 -13 -84 -84h283l-64 -303h-291l-280 -1190 h-420z" />
<glyph unicode="&#x1fc;" horiz-adv-x="2310" d="M-61 0l960 1434h1335v-367h-671v-170h544v-358h-544v-172h682v-367h-1119v217h-528l-135 -217h-524zM817 567h309v496zM991 1505l260 297h443l-363 -297h-340z" />
<glyph unicode="&#x1fd;" horiz-adv-x="1910" d="M27 338q0 156 112.5 249t300.5 93q34 0 70.5 -3t74.5 -8.5t62.5 -9.5t62 -11.5t44.5 -8.5l10 61q-4 50 -39.5 68t-116.5 18q-139 0 -385 -69l-125 280q322 101 596 101q213 0 326 -64q128 64 301 64q270 0 411.5 -133t141.5 -351q0 -42 -5 -82t-11 -60l-5 -19h-677 q11 -89 50 -129.5t120 -40.5q151 0 389 116l145 -256q-315 -166 -582 -166q-150 0 -268.5 51.5t-189.5 155.5q-99 -110 -202.5 -158.5t-225.5 -48.5q-176 0 -280.5 105t-104.5 256zM451 379q0 -41 28 -63.5t78 -22.5q109 0 207 74q-9 38 -12 79q-113 23 -172 23 q-129 0 -129 -90zM696 1196l260 297h443l-363 -297h-340zM1180 664h286q-6 143 -141 143q-64 0 -98.5 -35t-46.5 -108z" />
<glyph unicode="&#x1fe;" horiz-adv-x="1601" d="M53 717q0 128 26.5 237.5t84.5 203t144.5 159t211.5 102.5t281 37q223 0 389 -78l45 56h291l-154 -191q176 -193 176 -526q0 -161 -43 -292.5t-131 -233.5t-234 -158t-339 -56q-223 0 -389 78l-43 -55h-289l151 186q-178 192 -178 531zM502 717q0 -98 20 -168l412 512 q-56 24 -133 24q-299 0 -299 -368zM545 1505l260 297h442l-362 -297h-340zM668 373q58 -25 133 -25q155 0 227 97.5t72 271.5q0 93 -21 164z" />
<glyph unicode="&#x1ff;" horiz-adv-x="1294" d="M41 539q0 269 156.5 414t449.5 145q179 0 314 -60l30 37h226l-113 -131q149 -146 149 -407q0 -269 -156.5 -414.5t-449.5 -145.5q-184 0 -319 60l-33 -37h-232l119 137q-141 147 -141 402zM373 1196l260 297h442l-362 -297h-340zM465 539q0 -47 4 -70l254 297 q-40 14 -76 14q-182 0 -182 -241zM563 311q37 -16 84 -16q182 0 182 242q0 41 -6 79z" />
<glyph unicode="&#x218;" horiz-adv-x="1349" d="M29 188l190 308q101 -57 257.5 -108.5t254.5 -51.5q58 0 94.5 16t36.5 47q0 27 -23 45.5t-69 32.5t-98.5 25.5t-130.5 34t-146 49.5q-48 17 -91.5 40t-90 59.5t-79 80.5t-54 106.5t-21.5 133.5q0 94 35.5 174.5t103.5 142.5t178.5 97.5t250.5 35.5q167 0 344 -46 t315 -116l-192 -313q-98 43 -226.5 80t-212.5 37q-59 0 -96 -16t-37 -48q0 -43 56.5 -65.5t185 -52t223.5 -68.5q49 -20 88 -39.5t88.5 -56t82.5 -78.5t56 -105t23 -137q0 -94 -36 -175.5t-105 -144.5t-179.5 -99t-250.5 -36q-199 0 -397 63.5t-328 147.5zM551 -563l127 166 h-125v293h287l12 -332l-229 -219z" />
<glyph unicode="&#x219;" horiz-adv-x="1138" d="M23 123l145 268q95 -45 231 -84t213 -39q31 0 51 8t24.5 14.5t4.5 10.5q0 14 -13 24t-41 18t-56.5 14t-76 15.5t-83.5 18.5q-377 95 -377 363q0 150 117.5 247t341.5 97q144 0 298.5 -37.5t264.5 -85.5l-143 -246q-87 30 -197.5 56t-177.5 26q-42 0 -62 -11t-20 -26 q0 -14 12 -23.5t39 -17.5t55 -14t76 -15.5t86 -19.5q57 -14 104 -30.5t101 -46.5t90.5 -66.5t61 -93.5t24.5 -125q0 -156 -121 -250.5t-352 -94.5q-164 0 -338 44t-282 102zM414 -563l127 166h-125v293h286l13 -332l-230 -219z" />
<glyph unicode="&#x21a;" horiz-adv-x="1263" d="M18 1067v367h1227v-367h-391v-1067h-436v1067h-400zM494 -563l127 166h-125v293h286l13 -332l-230 -219z" />
<glyph unicode="&#x21b;" horiz-adv-x="942" d="M29 772v303h145v271l418 40v-311h289v-303h-289v-340q0 -31 7.5 -51t22 -27.5t25 -9.5t27.5 -2q13 0 29 3t33 9t29 10.5t27 11t17 7.5l143 -307q-218 -99 -397 -99q-199 0 -290 113.5t-91 341.5v340h-145zM270 -563l127 166h-125v293h287l12 -332l-229 -219z" />
<glyph unicode="&#x2b0;" horiz-adv-x="833" d="M51 788v895h279v-309q112 74 243 74q213 0 213 -211v-449h-278v381q0 34 -11.5 51t-43.5 17q-69 0 -123 -51v-398h-279z" />
<glyph unicode="&#x2b2;" horiz-adv-x="393" d="M-86 686q57 19 86.5 31.5t44 32t16.5 34.5t2 52v598h279v-574q0 -65 -1.5 -95t-11 -75t-30 -67t-58 -49.5t-96.5 -46t-143 -35.5zM57 1481v200h289v-200h-289z" />
<glyph unicode="&#x2b7;" horiz-adv-x="1122" d="M-2 1434h295l65 -340l95 340h217l92 -340l67 340h295l-204 -646h-258l-101 328l-100 -328h-256z" />
<glyph unicode="&#x2b8;" horiz-adv-x="796" d="M-4 1434h299l104 -314l105 314h297l-365 -895h-295l115 252z" />
<glyph unicode="&#x2c6;" horiz-adv-x="634" d="M-100 1196l229 297h377l229 -297h-280l-138 129l-137 -129h-280z" />
<glyph unicode="&#x2c7;" horiz-adv-x="634" d="M-100 1493h280l137 -129l138 129h280l-229 -297h-377z" />
<glyph unicode="&#x2d8;" horiz-adv-x="600" d="M-80 1479h246q0 -30 35.5 -50t95.5 -20q63 0 100 20t37 50h246q0 -133 -100.5 -208t-282.5 -75q-178 0 -277.5 75.5t-99.5 207.5z" />
<glyph unicode="&#x2d9;" horiz-adv-x="223" d="M-41 1217v280h305v-280h-305z" />
<glyph unicode="&#x2da;" horiz-adv-x="442" d="M-25 1421q0 101 72.5 173.5t173.5 72.5t173.5 -72.5t72.5 -173.5t-72.5 -173t-173.5 -72t-173.5 72t-72.5 173zM162 1421q0 -25 17 -42t42 -17t42.5 17t17.5 42t-17.5 42.5t-42.5 17.5t-42 -17.5t-17 -42.5z" />
<glyph unicode="&#x2db;" horiz-adv-x="362" d="M-80 -227q0 144 248 250l194 -21q-188 -111 -188 -190q0 -19 9 -32t21 -19t32 -9t32.5 -3t31.5 0.5t22 0.5l-35 -170q-2 0 -24.5 -0.5t-37.5 -0.5t-44 2t-50 5t-50 10t-49.5 16.5t-43 24.5t-36.5 33.5t-23 45t-9 57.5z" />
<glyph unicode="&#x2dc;" horiz-adv-x="641" d="M-109 1286q60 117 90 156q73 98 175 98q51 0 114 -24t116.5 -48t80.5 -24q16 0 29 5t34.5 27t44.5 62l175 -88q-19 -39 -26 -52.5t-27 -48.5t-32 -50t-34 -39.5t-42 -35t-47 -19.5t-57 -9q-51 0 -114 24t-116.5 48t-80.5 24q-16 0 -29 -5t-34.5 -27t-44.5 -62z" />
<glyph unicode="&#x2dd;" horiz-adv-x="749" d="M-90 1196l172 297h346l-272 -297h-246zM322 1196l170 297h348l-275 -297h-243z" />
<glyph unicode="&#x2e3;" horiz-adv-x="829" d="M-12 788l256 322l-242 324h313l101 -162l100 162h313l-241 -324l256 -322h-322l-106 168l-105 -168h-323z" />
<glyph unicode="&#x3c0;" horiz-adv-x="1232" d="M29 721v354h1175v-354h-160v-721h-354v721h-145v-721h-357v721h-159z" />
<glyph unicode="&#x1e80;" horiz-adv-x="2064" d="M6 1434h502l158 -799l196 799h338l197 -797l159 797h502l-403 -1434h-420l-205 797l-203 -797h-419zM586 1802h442l260 -297h-340z" />
<glyph unicode="&#x1e81;" horiz-adv-x="1773" d="M2 1075h444l117 -600l158 600h332l157 -600l117 600h445l-330 -1075h-387l-168 571l-168 -571h-389zM440 1493h443l260 -297h-340z" />
<glyph unicode="&#x1e82;" horiz-adv-x="2064" d="M6 1434h502l158 -799l196 799h338l197 -797l159 797h502l-403 -1434h-420l-205 797l-203 -797h-419zM776 1505l260 297h443l-363 -297h-340z" />
<glyph unicode="&#x1e83;" horiz-adv-x="1773" d="M2 1075h444l117 -600l158 600h332l157 -600l117 600h445l-330 -1075h-387l-168 571l-168 -571h-389zM633 1196l260 297h442l-362 -297h-340z" />
<glyph unicode="&#x1e84;" horiz-adv-x="2064" d="M6 1434h502l158 -799l196 799h338l197 -797l159 797h502l-403 -1434h-420l-205 797l-203 -797h-419zM680 1526v280h305v-280h-305zM1077 1526v280h305v-280h-305z" />
<glyph unicode="&#x1e85;" horiz-adv-x="1773" d="M2 1075h444l117 -600l158 600h332l157 -600l117 600h445l-330 -1075h-387l-168 571l-168 -571h-389zM537 1217v280h305v-280h-305zM934 1217v280h305v-280h-305z" />
<glyph unicode="&#x1e9e;" horiz-adv-x="1726" d="M111 0v850q0 96 15.5 175.5t58 157.5t111.5 131.5t183.5 86.5t265.5 33h787v-283l-246 -264q198 -49 307 -161t109 -288q0 -96 -34.5 -178.5t-101 -146t-173.5 -100t-242 -36.5q-280 0 -526 150l190 307q57 -37 135.5 -67.5t145.5 -30.5q69 0 113 29t44 86q0 20 -7 36.5 t-29.5 35.5t-61 31.5t-107 21t-161.5 8.5h-109v266l201 217h-199q-126 0 -179.5 -66t-53.5 -229v-772h-436z" />
<glyph unicode="&#x1ef2;" horiz-adv-x="1423" d="M-16 1434h491l236 -480l237 480h492l-510 -865v-569h-436v569zM266 1802h443l260 -297h-340z" />
<glyph unicode="&#x1ef3;" horiz-adv-x="1255" d="M-2 1075h451l178 -567l178 567h452l-581 -1493h-449l187 420zM180 1493h443l260 -297h-340z" />
<glyph unicode="&#x2000;" horiz-adv-x="988" />
<glyph unicode="&#x2001;" horiz-adv-x="1976" />
<glyph unicode="&#x2002;" horiz-adv-x="988" />
<glyph unicode="&#x2003;" horiz-adv-x="1976" />
<glyph unicode="&#x2004;" horiz-adv-x="658" />
<glyph unicode="&#x2005;" horiz-adv-x="494" />
<glyph unicode="&#x2006;" horiz-adv-x="329" />
<glyph unicode="&#x2007;" horiz-adv-x="329" />
<glyph unicode="&#x2008;" horiz-adv-x="247" />
<glyph unicode="&#x2009;" horiz-adv-x="395" />
<glyph unicode="&#x200a;" horiz-adv-x="109" />
<glyph unicode="&#x2010;" horiz-adv-x="888" d="M86 418v330h717v-330h-717z" />
<glyph unicode="&#x2011;" horiz-adv-x="888" d="M86 418v330h717v-330h-717z" />
<glyph unicode="&#x2012;" horiz-adv-x="888" d="M86 418v330h717v-330h-717z" />
<glyph unicode="&#x2013;" horiz-adv-x="1153" d="M88 420v325h977v-325h-977z" />
<glyph unicode="&#x2014;" horiz-adv-x="1370" d="M86 420v325h1202v-325h-1202z" />
<glyph unicode="&#x2018;" horiz-adv-x="589" d="M51 1155l332 320l104 -136l-184 -243h182v-428h-411z" />
<glyph unicode="&#x2019;" horiz-adv-x="565" d="M70 762l184 244h-182v428h411l23 -488l-332 -319z" />
<glyph unicode="&#x201a;" horiz-adv-x="606" d="M84 -244l184 244h-182v428h412l22 -487l-332 -320z" />
<glyph unicode="&#x201c;" horiz-adv-x="1134" d="M51 1155l332 320l104 -136l-184 -243h182v-428h-411zM596 1155l332 320l104 -136l-184 -243h182v-428h-412z" />
<glyph unicode="&#x201d;" horiz-adv-x="1110" d="M70 762l184 244h-182v428h411l23 -488l-332 -319zM612 762l185 244h-183v428h412l23 -488l-332 -319z" />
<glyph unicode="&#x201e;" horiz-adv-x="1150" d="M84 -244l184 244h-182v428h412l22 -487l-332 -320zM629 -244l184 244h-182v428h411l23 -487l-332 -320z" />
<glyph unicode="&#x2020;" horiz-adv-x="1282" d="M45 719v328l440 -37v424h312v-424l440 37v-328l-440 37v-1174h-312v1174z" />
<glyph unicode="&#x2021;" horiz-adv-x="1306" d="M57 182v328l441 -37v283l-441 -37v328l441 -37v424h311v-424l440 37v-328l-440 37v-283l440 37v-328l-440 37v-637h-311v637z" />
<glyph unicode="&#x2022;" horiz-adv-x="997" d="M115 584q0 160 111.5 272.5t271.5 112.5t272.5 -112.5t112.5 -272.5t-112.5 -271.5t-272.5 -111.5t-271.5 111.5t-111.5 271.5z" />
<glyph unicode="&#x2026;" horiz-adv-x="1740" d="M84 0v428h414v-428h-414zM664 0v428h413v-428h-413zM1243 0v428h414v-428h-414z" />
<glyph unicode="&#x202f;" horiz-adv-x="395" />
<glyph unicode="&#x2030;" horiz-adv-x="3028" d="M47 1071q0 176 109.5 280.5t312.5 104.5q204 0 314 -104.5t110 -280.5t-109.5 -279.5t-314.5 -103.5q-203 0 -312.5 103.5t-109.5 279.5zM346 1071q0 -137 123 -137q125 0 125 137q0 139 -125 139q-123 0 -123 -139zM524 0l733 1434h316l-733 -1434h-316zM1208 360 q0 177 109 281t313 104t314 -104.5t110 -280.5t-109.5 -279.5t-314.5 -103.5q-204 0 -313 103.5t-109 279.5zM1507 360q0 -137 123 -137q125 0 125 137q0 140 -125 140q-123 0 -123 -140zM2136 360q0 176 109.5 280.5t312.5 104.5q204 0 314 -104.5t110 -280.5 t-109.5 -279.5t-314.5 -103.5q-203 0 -312.5 103.5t-109.5 279.5zM2435 360q0 -137 123 -137q125 0 125 137q0 140 -125 140q-123 0 -123 -140z" />
<glyph unicode="&#x2039;" horiz-adv-x="753" d="M43 416v246l623 415v-383l-265 -155l265 -156v-383z" />
<glyph unicode="&#x203a;" horiz-adv-x="753" d="M88 0v383l264 156l-264 155v383l623 -415v-246z" />
<glyph unicode="&#x2044;" horiz-adv-x="481" d="M-246 0l666 1434h309l-666 -1434h-309z" />
<glyph unicode="&#x205f;" horiz-adv-x="494" />
<glyph unicode="&#x2070;" horiz-adv-x="911" d="M39 1219q0 210 108.5 327t311.5 117t310.5 -117t107.5 -327t-108.5 -327.5t-311.5 -117.5t-310.5 117.5t-107.5 327.5zM328 1219q0 -89 17.5 -140.5t44 -68.5t67.5 -17q64 0 97.5 48t33.5 178t-32.5 177.5t-96.5 47.5t-97.5 -47.5t-33.5 -177.5z" />
<glyph unicode="&#x2074;" horiz-adv-x="937" d="M14 922v194l385 533h385v-492h136v-235h-136v-134h-288v134h-482zM309 1157h187v268z" />
<glyph unicode="&#x2075;" horiz-adv-x="821" d="M12 903l125 205q131 -90 246 -90q119 0 119 59q0 28 -30 48t-91 20q-75 0 -162 -41l-160 102l50 443h649v-236h-406l-4 -51q58 10 107 10q168 0 254 -84.5t86 -208.5q0 -62 -22.5 -115.5t-66.5 -96.5t-116.5 -68t-165.5 -25q-204 0 -412 129z" />
<glyph unicode="&#x2076;" horiz-adv-x="851" d="M33 1151q0 224 164 368t428 144q41 0 78.5 -3.5t54.5 -7.5l18 -3l-65 -222q-37 7 -84 7q-186 0 -260 -121q80 37 172 37q127 0 211 -72t84 -195q0 -131 -104.5 -220t-280.5 -89q-105 0 -187 31t-131 84.5t-73.5 120t-24.5 141.5zM322 1106q4 -102 118 -102q55 0 81 20.5 t26 46.5q0 34 -30.5 52t-78.5 18q-66 0 -116 -35z" />
<glyph unicode="&#x2077;" horiz-adv-x="727" d="M25 1413v236h692v-224q-13 -14 -34.5 -40t-77 -102t-97.5 -149.5t-76.5 -170t-34.5 -175.5h-297q0 78 31 169.5t70.5 162t90 142t76.5 102t44 49.5h-387z" />
<glyph unicode="&#x2078;" horiz-adv-x="876" d="M25 1030q0 57 26.5 103t64 74.5t91.5 54.5q-123 79 -123 184q0 96 92 156.5t264 60.5q171 0 263 -60.5t92 -156.5q0 -103 -123 -184q54 -26 91.5 -54.5t64 -74.5t26.5 -103q0 -118 -107 -187t-307 -69q-202 0 -308.5 68.5t-106.5 187.5zM315 1057q0 -29 34.5 -49.5 t90.5 -20.5q55 0 88 20.5t33 49.5q0 28 -31 50.5t-92 47.5q-62 -26 -92.5 -47.5t-30.5 -50.5zM365 1417q0 -39 73 -67q76 28 76 67q0 12 -19.5 26.5t-54.5 14.5q-26 0 -44 -8t-24.5 -17t-6.5 -16z" />
<glyph unicode="&#x2079;" horiz-adv-x="851" d="M20 1354q0 131 103.5 220t279.5 89q106 0 188 -31t130.5 -84.5t73 -120t24.5 -141.5q0 -224 -163 -368t-429 -144q-40 0 -77.5 3.5t-54.5 6.5l-17 4l65 222q37 -6 84 -6q186 0 258 120q-72 -37 -170 -37q-127 0 -211 72t-84 195zM307 1366q0 -34 29.5 -52t77.5 -18 q64 0 116 33q-4 105 -118 105q-54 0 -79.5 -21t-25.5 -47z" />
<glyph unicode="&#x207a;" horiz-adv-x="811" d="M63 1098v202h240v203h205v-203h237v-202h-237v-205h-205v205h-240z" />
<glyph unicode="&#x207d;" horiz-adv-x="485" d="M47 983v467q0 56 1 82t7 67.5t19 61t37 47.5t61.5 44t91.5 34t127 33l68 -144q-44 -15 -68.5 -28.5t-36.5 -32t-15 -35t-3 -47.5v-631q0 -60 20.5 -88t102.5 -55l-68 -146q-85 17 -144.5 36t-97.5 47t-59 50t-30.5 67.5t-11 75.5t-1.5 95z" />
<glyph unicode="&#x207e;" horiz-adv-x="485" d="M29 756q44 15 68.5 28.5t36.5 32t15 35t3 47.5v631q0 60 -20.5 88t-102.5 55l67 146q85 -17 144.5 -36t97.5 -47t59 -50t30.5 -67.5t11 -75.5t1.5 -95v-467q0 -56 -1 -82t-7 -67.5t-19 -61t-37 -47.5t-61.5 -44t-91.5 -34t-127 -33z" />
<glyph unicode="&#x207f;" horiz-adv-x="833" d="M51 788v646h279v-60q112 74 243 74q213 0 213 -211v-449h-278v381q0 34 -11.5 51t-43.5 17q-69 0 -123 -51v-398h-279z" />
<glyph unicode="&#x2080;" horiz-adv-x="911" d="M39 123q0 210 108.5 327t311.5 117t310.5 -117t107.5 -327t-108.5 -327.5t-311.5 -117.5t-310.5 117.5t-107.5 327.5zM328 123q0 -130 32.5 -177.5t96.5 -47.5t97.5 47.5t33.5 177.5t-32.5 177.5t-96.5 47.5t-97.5 -47.5t-33.5 -177.5z" />
<glyph unicode="&#x2081;" horiz-adv-x="604" d="M-16 401l276 152h277v-860h-289v602l-152 -76z" />
<glyph unicode="&#x2082;" horiz-adv-x="831" d="M23 -201q0 60 24 116t66 101.5t87 80.5t99 65q28 16 63.5 33.5t56.5 28t41 22.5t29 23.5t9 23.5q0 15 -21.5 27t-62.5 12q-86 0 -242 -82l-125 180q207 137 412 137q163 0 247.5 -75t84.5 -185q0 -50 -18.5 -94t-45 -74.5t-67.5 -59t-73 -44.5t-75 -35q-133 -57 -133 -72 h412v-235h-768v106z" />
<glyph unicode="&#x2083;" horiz-adv-x="827" d="M0 -190l125 190q158 -84 278 -84q101 0 101 45q0 14 -7.5 25t-23 17t-30.5 10t-39.5 5t-40.5 1t-42 -0.5t-36 -0.5h-41v236h47q7 0 28 -0.5t33.5 0t33 1t32.5 4t25.5 8.5t19.5 13.5t6 20.5q0 31 -70 31q-102 0 -243 -74l-115 176q179 133 408 133q156 0 232.5 -61 t76.5 -156q0 -118 -129 -182q73 -25 120.5 -83.5t47.5 -129.5q0 -53 -17.5 -99.5t-56.5 -88t-111.5 -65.5t-171.5 -24q-217 0 -440 132z" />
<glyph unicode="&#x2084;" horiz-adv-x="937" d="M14 20l385 533h385v-492h136v-235h-136v-133h-288v133h-482v194zM309 61h187v269z" />
<glyph unicode="&#x2085;" horiz-adv-x="821" d="M12 -193l125 205q131 -90 246 -90q119 0 119 60q0 28 -30 47.5t-91 19.5q-75 0 -162 -41l-160 103l50 442h649v-236h-406l-4 -51q58 10 107 10q168 0 254 -84t86 -208q0 -62 -22.5 -116t-66.5 -97t-116.5 -68t-165.5 -25q-204 0 -412 129z" />
<glyph unicode="&#x2086;" horiz-adv-x="851" d="M33 55q0 224 164 368t428 144q41 0 78.5 -3.5t54.5 -7.5l18 -3l-65 -221q-37 6 -84 6q-186 0 -260 -121q80 37 172 37q127 0 211 -71.5t84 -194.5q0 -131 -104.5 -220.5t-280.5 -89.5q-105 0 -187 31t-131 84.5t-73.5 120t-24.5 141.5zM322 10q4 -102 118 -102 q55 0 81 20.5t26 46.5q0 34 -30.5 52t-78.5 18q-66 0 -116 -35z" />
<glyph unicode="&#x2087;" horiz-adv-x="727" d="M25 317v236h692v-223q-13 -14 -34.5 -40t-77 -102t-97.5 -149.5t-76.5 -170t-34.5 -175.5h-297q0 78 31 169.5t70 161.5t90.5 141.5t77 102t43.5 49.5h-387z" />
<glyph unicode="&#x2088;" horiz-adv-x="876" d="M25 -66q0 57 26.5 103t64 74.5t91.5 54.5q-123 79 -123 184q0 96 92 156.5t264 60.5q171 0 263 -60.5t92 -156.5q0 -103 -123 -184q54 -26 91.5 -54.5t64 -74.5t26.5 -103q0 -118 -107 -187t-307 -69q-202 0 -308.5 68.5t-106.5 187.5zM315 -39q0 -29 34.5 -49.5 t90.5 -20.5q55 0 88 20.5t33 49.5q0 28 -31 50.5t-92 47.5q-62 -26 -92.5 -47.5t-30.5 -50.5zM365 322q0 -40 73 -68q76 28 76 68q0 12 -19.5 26t-54.5 14q-26 0 -44 -8t-24.5 -16.5t-6.5 -15.5z" />
<glyph unicode="&#x2089;" horiz-adv-x="851" d="M20 258q0 131 103.5 220t279.5 89q106 0 188 -31t130.5 -84.5t73 -120t24.5 -141.5q0 -224 -163 -368t-429 -144q-40 0 -77.5 4t-54.5 8l-17 3l65 221q37 -6 84 -6q185 0 258 121q-72 -37 -170 -37q-127 0 -211 71.5t-84 194.5zM307 270q0 -34 29.5 -51.5t77.5 -17.5 q66 0 116 32q-4 105 -118 105q-54 0 -79.5 -21t-25.5 -47z" />
<glyph unicode="&#x208a;" horiz-adv-x="811" d="M63 2v203h240v203h205v-203h237v-203h-237v-205h-205v205h-240z" />
<glyph unicode="&#x208d;" horiz-adv-x="485" d="M47 -113v467q0 56 1 82t7 67.5t19 61t37 47.5t61.5 44t91.5 34t127 33l68 -143q-82 -29 -102.5 -56.5t-20.5 -87.5v-631q0 -60 20.5 -88t102.5 -55l-68 -145q-73 15 -127 33t-91.5 34t-61.5 44.5t-37 48t-19 61t-7 67.5t-1 82z" />
<glyph unicode="&#x208e;" horiz-adv-x="485" d="M29 -340q44 15 68.5 28.5t36.5 32t15 35t3 47.5v631q0 31 -3 48t-14.5 35.5t-37 32.5t-68.5 28l67 145q85 -17 144.5 -36t97.5 -47t59 -50t30.5 -67.5t11 -75.5t1.5 -95v-467q0 -65 -1.5 -95t-11 -74.5t-30.5 -66.5t-59 -50t-97 -46.5t-145 -35.5z" />
<glyph unicode="&#x20a1;" horiz-adv-x="1167" d="M68 719q0 116 28 210.5t75.5 158.5t113.5 107.5t139.5 63t155.5 19.5q27 0 41 -2l36 158h162l-41 -177l41 -10l43 187h164l-53 -230q76 -27 145 -55l-162 -309q-193 82 -301 82q-81 0 -121 -54.5t-40 -148.5t40 -149.5t121 -55.5q108 0 301 82l162 -309 q-203 -88 -385 -117l-39 -170h-164l37 158q-7 0 -21.5 1t-21.5 1l-37 -160h-161l45 197q-139 54 -221 184.5t-82 337.5z" />
<glyph unicode="&#x20a4;" horiz-adv-x="1239" d="M82 0v289q7 1 18 3.5t42.5 13t58.5 25.5t56.5 43t45.5 62h-199v189h201q-7 23 -26 61h-175v191h70q-47 103 -47 210q0 175 120 272t341 97q78 0 157 -14.5t134 -32.5t122.5 -51t98 -51t86.5 -52l-187 -274q-198 117 -319 117q-115 0 -115 -80q0 -51 53 -141h412v-191 h-315q5 -18 14 -61h301v-189h-330q-30 -55 -77 -78h540v-358h-1081z" />
<glyph unicode="&#x20a7;" horiz-adv-x="1531" d="M94 868v152h56v414h669q562 0 608 -414h58v-152h-58q-46 -409 -608 -409h-233v-459h-436v868h-56zM586 813h200q145 0 185 55h-385v-55zM586 1020h385q-40 55 -185 55h-200v-55z" />
<glyph unicode="&#x20a9;" horiz-adv-x="2203" d="M66 838v233h110l-100 363h502l71 -363h193l90 363h338l88 -363h194l74 363h502l-103 -363h111v-233h-176l-33 -113h209v-233h-274l-138 -492h-419l-205 797l-203 -797h-420l-137 492h-272v233h206l-32 113h-176zM694 838l41 -203l49 203h-90zM1415 838l51 -201l39 201 h-90z" />
<glyph unicode="&#x20ac;" horiz-adv-x="1515" d="M59 475v207h121v59h-121v207h142q51 250 208.5 379t391.5 129q169 0 323 -52t344 -151l-196 -321q-260 133 -414 133q-128 0 -186 -117h356v-207h-399v-59h399v-207h-350q61 -106 180 -106q154 0 414 133l196 -322q-190 -99 -344 -151t-323 -52q-231 0 -388 126.5 t-210 371.5h-144z" />
<glyph unicode="&#x2116;" horiz-adv-x="2576" d="M125 0v1434h440l459 -768v768h436v-1434h-440l-459 768v-768h-436zM1546 979q0 208 126.5 322t359.5 114t359 -114t126 -322q0 -209 -126 -322.5t-359 -113.5t-359.5 113.5t-126.5 322.5zM1645 242v233h778v-233h-778zM1913 979q0 -80 28 -118t91 -38t90.5 38t27.5 118 t-27.5 118t-90.5 38t-91 -38t-28 -118z" />
<glyph unicode="&#x2117;" horiz-adv-x="1574" d="M57 717q0 156 49 290.5t140 234.5t230.5 157t311.5 57t311.5 -57t230 -157t139.5 -234.5t49 -290.5t-49 -290.5t-139.5 -234.5t-230 -157.5t-311.5 -57.5t-311.5 57.5t-230.5 157.5t-140 234.5t-49 290.5zM139 717q0 -141 43 -261t123 -209.5t204 -140.5t277 -51 q154 0 278.5 51t205.5 140.5t124.5 209.5t43.5 261q0 140 -43.5 260.5t-124.5 210t-205.5 140t-278.5 50.5q-203 0 -351.5 -88t-222 -236t-73.5 -337zM563 285v862h287q299 0 299 -262q0 -264 -299 -264h-184v-336h-103zM666 709h186q195 0 195 176t-195 176h-186v-352z" />
<glyph unicode="&#x2120;" horiz-adv-x="1269" d="M59 1038l66 99q42 -19 102.5 -35.5t106.5 -16.5q63 0 63 21q0 11 -24 16t-75 13.5t-91 21.5q-135 41 -135 137q0 63 54.5 105.5t152.5 42.5q107 0 247 -64l-65 -98q-112 43 -178 43q-60 0 -60 -20q0 -12 20.5 -17.5t71 -14.5t91.5 -22q141 -41 141 -135q0 -63 -58 -105 t-159 -42q-140 0 -271 71zM602 975v459h154l135 -236l135 236h154v-459h-148v246l-96 -170h-90l-96 170v-246h-148z" />
<glyph unicode="&#x2122;" horiz-adv-x="1292" d="M92 1313v121h457v-121h-156v-338h-147v338h-154zM594 975v459h156l133 -236l135 236h153v-459h-147v246l-96 -170h-88l-99 174v-250h-147z" />
<glyph unicode="&#x2126;" horiz-adv-x="1617" d="M66 784q0 106 29.5 203.5t90.5 183t147.5 149t209 100t266.5 36.5t266.5 -36.5t209 -100t147.5 -149t90.5 -183t29.5 -203.5q0 -152 -64.5 -272t-160.5 -154h184v-358h-653v373q71 12 123 48t79 88t39.5 106t12.5 114q0 164 -74.5 260t-228.5 96t-228.5 -95.5 t-74.5 -258.5q0 -62 13 -117t41 -105.5t79 -86.5t121 -49v-373h-654v358h183q-95 34 -159 154t-64 272z" />
<glyph unicode="&#x2153;" horiz-adv-x="1957" d="M37 1282l276 152h277v-861h-289v603l-151 -76zM406 0l665 1434h309l-665 -1434h-309zM1094 117l125 190q157 -84 278 -84q100 0 100 45q0 14 -7.5 25t-23 17t-30.5 10t-40 5t-40 1.5t-42 0t-36 -0.5h-41v235h47q7 0 28 -0.5t33.5 0t33 1t33 4t25.5 8.5t19.5 13.5 t6.5 20.5q0 31 -70 31q-103 0 -244 -74l-114 176q179 133 407 133q156 0 232.5 -61t76.5 -156q0 -68 -35 -110t-94 -72q73 -25 120.5 -83.5t47.5 -129.5q0 -54 -17.5 -100t-56 -87t-111 -65t-171.5 -24q-219 0 -440 131z" />
<glyph unicode="&#x2154;" horiz-adv-x="2177" d="M57 573v107q0 206 277 362q27 15 63 33t56.5 28.5t40.5 23t29 24t9 23.5q0 15 -21 26.5t-62 11.5q-86 0 -242 -82l-125 181q207 137 412 137q163 0 247 -75t84 -185q0 -50 -18.5 -94t-44.5 -74.5t-67.5 -59t-73 -44.5t-74.5 -35q-133 -57 -133 -72h411v-236h-768zM641 0 l666 1434h309l-666 -1434h-309zM1331 117l125 190q158 -84 279 -84q100 0 100 45q0 14 -7.5 25t-23 17t-30.5 10t-40 5t-40 1.5t-42 0t-36 -0.5h-41v235h47q7 0 28 -0.5t33.5 0t33 1t32.5 4t25.5 8.5t19.5 13.5t6 20.5q0 31 -69 31q-103 0 -244 -74l-115 176 q179 133 408 133q156 0 232.5 -61t76.5 -156q0 -68 -35 -110t-94 -72q73 -25 120.5 -83.5t47.5 -129.5q0 -54 -17.5 -100t-56 -87t-111 -65t-171.5 -24q-220 0 -441 131z" />
<glyph unicode="&#x2155;" horiz-adv-x="1980" d="M37 1282l276 152h277v-861h-289v603l-151 -76zM406 0l665 1434h309l-665 -1434h-309zM1122 115l125 204q131 -90 246 -90q119 0 119 60q0 28 -30 47.5t-91 19.5q-75 0 -162 -41l-160 103l50 442h649v-235h-406l-4 -52q64 11 107 11q168 0 254 -84.5t86 -208.5 q0 -62 -22.5 -115.5t-66.5 -96.5t-116.5 -68t-165.5 -25q-204 0 -412 129z" />
<glyph unicode="&#x2156;" horiz-adv-x="2187" d="M57 573v107q0 206 277 362q27 15 63 33t56.5 28.5t40.5 23t29 24t9 23.5q0 15 -21 26.5t-62 11.5q-86 0 -242 -82l-125 181q207 137 412 137q163 0 247 -75t84 -185q0 -50 -18.5 -94t-44.5 -74.5t-67.5 -59t-73 -44.5t-74.5 -35q-133 -57 -133 -72h411v-236h-768zM641 0 l666 1434h309l-666 -1434h-309zM1354 115l125 204q131 -90 245 -90q119 0 119 60q0 28 -30 47.5t-91 19.5q-74 0 -161 -41l-160 103l49 442h649v-235h-405l-4 -52q64 11 106 11q168 0 254 -84.5t86 -208.5q0 -62 -22.5 -115.5t-66.5 -96.5t-116.5 -68t-165.5 -25 q-203 0 -411 129z" />
<glyph unicode="&#x2157;" horiz-adv-x="2129" d="M41 690l125 191q157 -84 278 -84q101 0 101 45q0 14 -7.5 25t-23 17t-30.5 10t-39.5 5t-40.5 1t-42 -0.5t-36 -0.5h-41v236h47q7 0 28 -0.5t33.5 0t33 1t32.5 4t25.5 8.5t19.5 13.5t6 20.5q0 30 -70 30q-104 0 -243 -73l-115 176q179 133 407 133q157 0 233.5 -61 t76.5 -156q0 -68 -35 -110t-94 -72q73 -25 120.5 -83.5t47.5 -129.5q0 -53 -17.5 -99.5t-56.5 -88t-111.5 -65.5t-171.5 -24q-219 0 -440 131zM569 0l666 1434h309l-665 -1434h-310zM1284 115l125 204q131 -90 246 -90q119 0 119 60q0 28 -30 47.5t-91 19.5q-75 0 -162 -41 l-160 103l49 442h650v-235h-406l-4 -52q64 11 106 11q168 0 254 -84.5t86 -208.5q0 -62 -22.5 -115.5t-66 -96.5t-116 -68t-165.5 -25q-204 0 -412 129z" />
<glyph unicode="&#x2158;" horiz-adv-x="2248" d="M45 707v194l385 533h385v-492h135v-235h-135v-134h-289v134h-481zM340 942h186v268zM688 0l666 1434h309l-666 -1434h-309zM1403 115l125 204q131 -90 246 -90q118 0 118 60q0 28 -29.5 47.5t-90.5 19.5q-75 0 -162 -41l-160 103l49 442h649v-235h-405l-4 -52 q64 11 106 11q168 0 254 -84.5t86 -208.5q0 -62 -22.5 -115.5t-66 -96.5t-116 -68t-165.5 -25q-204 0 -412 129z" />
<glyph unicode="&#x2159;" horiz-adv-x="1912" d="M37 1282l276 152h277v-861h-289v603l-151 -76zM406 0l665 1434h309l-665 -1434h-309zM1044 362q0 224 164 368t428 144q41 0 79 -3.5t55 -6.5l18 -4l-66 -221q-37 6 -84 6q-186 0 -260 -121q80 37 172 37q127 0 211 -71.5t84 -194.5q0 -131 -104.5 -220t-280.5 -89 q-105 0 -187 31t-131 84.5t-73.5 119.5t-24.5 141zM1333 317q4 -102 119 -102q55 0 81 21t26 47q0 34 -30.5 51.5t-78.5 17.5q-67 0 -117 -35z" />
<glyph unicode="&#x215a;" horiz-adv-x="2039" d="M47 688l125 205q131 -90 246 -90q119 0 119 59q0 28 -30 48t-91 20q-75 0 -162 -41l-160 102l49 443h650v-236h-406l-4 -51q58 10 106 10q168 0 254 -84.5t86 -208.5q0 -62 -22.5 -115.5t-66 -96.5t-116 -68t-165.5 -25q-204 0 -412 129zM547 0l665 1434h310l-666 -1434 h-309zM1184 362q0 224 164 368t428 144q41 0 78.5 -3.5t55.5 -6.5l17 -4l-65 -221q-37 6 -84 6q-186 0 -260 -121q80 37 172 37q127 0 211 -71.5t84 -194.5q0 -131 -105 -220t-281 -89q-105 0 -187 31t-130.5 84.5t-73 119.5t-24.5 141zM1473 317q4 -102 118 -102 q55 0 81 21t26 47q0 34 -30.5 51.5t-78.5 17.5q-66 0 -116 -35z" />
<glyph unicode="&#x215b;" horiz-adv-x="1972" d="M37 1282l276 152h277v-861h-289v603l-151 -76zM406 0l665 1434h309l-665 -1434h-309zM1083 242q0 82 49 136t134 95q-123 79 -123 184q0 96 92 156.5t264 60.5q171 0 262.5 -60.5t91.5 -156.5q0 -104 -122 -184q85 -41 133.5 -95t48.5 -136q0 -118 -107 -187t-307 -69 q-202 0 -309 69t-107 187zM1374 268q0 -29 34 -49t91 -20q55 0 88 20t33 49q0 28 -31.5 51t-91.5 48q-62 -26 -92.5 -47.5t-30.5 -51.5zM1423 629q0 -39 74 -68q76 28 76 68q0 12 -19.5 26.5t-54.5 14.5q-26 0 -44.5 -8t-25 -17t-6.5 -16z" />
<glyph unicode="&#x215c;" horiz-adv-x="2136" d="M41 690l125 191q157 -84 278 -84q101 0 101 45q0 14 -7.5 25t-23 17t-30.5 10t-39.5 5t-40.5 1t-42 -0.5t-36 -0.5h-41v236h47q7 0 28 -0.5t33.5 0t33 1t32.5 4t25.5 8.5t19.5 13.5t6 20.5q0 30 -70 30q-104 0 -243 -73l-115 176q179 133 407 133q157 0 233.5 -61 t76.5 -156q0 -68 -35 -110t-94 -72q73 -25 120.5 -83.5t47.5 -129.5q0 -53 -17.5 -99.5t-56.5 -88t-111.5 -65.5t-171.5 -24q-219 0 -440 131zM569 0l666 1434h309l-665 -1434h-310zM1247 242q0 82 49 136t134 95q-123 79 -123 184q0 96 92 156.5t264 60.5 q171 0 262.5 -60.5t91.5 -156.5q0 -103 -123 -184q85 -41 134 -95t49 -136q0 -118 -107 -187t-307 -69q-202 0 -309 69t-107 187zM1538 268q0 -29 34 -49t91 -20q55 0 88 20t33 49q0 28 -31.5 51t-91.5 48q-62 -26 -92.5 -47.5t-30.5 -51.5zM1587 629q0 -39 74 -68 q76 28 76 68q0 12 -19.5 26.5t-54.5 14.5q-26 0 -44.5 -8t-25 -17t-6.5 -16z" />
<glyph unicode="&#x215d;" horiz-adv-x="2099" d="M47 688l125 205q131 -90 246 -90q119 0 119 59q0 28 -30 48t-91 20q-75 0 -162 -41l-160 102l49 443h650v-236h-406l-4 -51q58 10 106 10q168 0 254 -84.5t86 -208.5q0 -62 -22.5 -115.5t-66 -96.5t-116 -68t-165.5 -25q-204 0 -412 129zM547 0l665 1434h310l-666 -1434 h-309zM1223 242q0 82 48.5 136t133.5 95q-123 79 -123 184q0 96 92 156.5t264 60.5q171 0 263 -60.5t92 -156.5q0 -103 -123 -184q85 -41 133.5 -95t48.5 -136q0 -118 -107 -187t-307 -69q-202 0 -308.5 68.5t-106.5 187.5zM1513 268q0 -29 34 -49t91 -20q55 0 88 20t33 49 q0 28 -31.5 51t-91.5 48q-62 -26 -92.5 -47.5t-30.5 -51.5zM1563 629q0 -40 73 -68q76 28 76 68q0 12 -19.5 26.5t-54.5 14.5q-26 0 -44 -8t-24.5 -17t-6.5 -16z" />
<glyph unicode="&#x215e;" horiz-adv-x="1908" d="M53 1198v236h692v-224q-13 -14 -34.5 -40t-76.5 -102t-97 -149.5t-76.5 -170t-34.5 -175.5h-297q0 78 30.5 169.5t70 162t90 141.5t76.5 102t44 50h-387zM356 0l666 1434h309l-665 -1434h-310zM1032 242q0 82 48.5 136t133.5 95q-122 78 -122 184q0 96 92 156.5t264 60.5 q171 0 262.5 -60.5t91.5 -156.5q0 -103 -123 -184q85 -41 134 -95t49 -136q0 -118 -107 -187t-307 -69q-202 0 -309 69t-107 187zM1323 268q0 -29 34 -49t91 -20q55 0 88 20t33 49q0 28 -31.5 51t-91.5 48q-62 -26 -92.5 -47.5t-30.5 -51.5zM1372 629q0 -39 74 -68 q76 28 76 68q0 12 -19.5 26.5t-54.5 14.5q-26 0 -44.5 -8t-25 -17t-6.5 -16z" />
<glyph unicode="&#x2202;" horiz-adv-x="1363" d="M53 477q0 222 142.5 360t355.5 138q64 0 120.5 -12.5t92 -30.5t62 -36.5t37.5 -31.5l11 -12q-41 127 -168.5 191.5t-324.5 64.5q-48 0 -93 -4t-66 -8l-21 -4l-43 319q83 23 233 23q179 0 329 -43.5t255.5 -120t179 -181t108.5 -225t35 -252.5q0 -292 -169 -463.5 t-476 -171.5q-280 0 -440 135t-160 365zM489 475q0 -33 8.5 -61.5t28.5 -57t61 -45t99 -16.5q57 0 97.5 16.5t60.5 45t28.5 57t8.5 61.5t-8.5 62t-28.5 57.5t-60.5 45.5t-97.5 17q-58 0 -99 -17t-61 -45.5t-28.5 -57.5t-8.5 -62z" />
<glyph unicode="&#x2206;" horiz-adv-x="1605" d="M37 0l538 1434h453l541 -1434h-1532zM537 358h526l-260 664z" />
<glyph unicode="&#x220f;" horiz-adv-x="1548" d="M53 1075v359h1442v-359h-172v-1075h-436v1075h-225v-1075h-437v1075h-172z" />
<glyph unicode="&#x2211;" horiz-adv-x="1294" d="M55 0v168l529 549l-529 551v166h1157v-359h-497l364 -358l-364 -359h497v-358h-1157z" />
<glyph unicode="&#x2212;" horiz-adv-x="1290" d="M104 528v310h1080v-310h-1080z" />
<glyph unicode="&#x221a;" horiz-adv-x="1425" d="M-10 696h446l158 -340l424 1078h436l-594 -1434h-514z" />
<glyph unicode="&#x221e;" horiz-adv-x="1865" d="M74 528q0 174 107.5 282t293.5 108q128 0 234 -56.5t227 -167.5q122 112 225 168t230 56q186 0 293.5 -107.5t107.5 -282.5t-107.5 -282t-293.5 -107q-87 0 -168.5 31t-142.5 74.5t-144 117.5q-84 -74 -146 -117.5t-144.5 -74.5t-170.5 -31q-186 0 -293.5 108t-107.5 281 zM373 528q0 -64 43 -94.5t106 -30.5q54 0 104.5 28t125.5 95q-81 72 -128.5 99.5t-101.5 27.5q-63 0 -106 -30.5t-43 -94.5zM1114 526q77 -69 125 -96t104 -27q63 0 107.5 30.5t44.5 94.5t-44.5 94.5t-107.5 30.5q-53 0 -101.5 -28t-127.5 -99z" />
<glyph unicode="&#x222b;" horiz-adv-x="829" d="M8 -70h39q30 0 54.5 10t40 24.5t26.5 38.5t16.5 44t8.5 50.5t3.5 49t0.5 46.5v1058q0 138 31 227t104 143t180.5 75.5t271.5 21.5h37v-223h-39q-30 0 -54 -10t-39.5 -24t-26.5 -38t-16.5 -44t-8.5 -50.5t-3.5 -48.5t-0.5 -47v-1059q0 -138 -31.5 -227t-104.5 -143 t-180.5 -75.5t-271.5 -21.5h-37v223z" />
<glyph unicode="&#x2248;" horiz-adv-x="1290" d="M109 406q28 68 58 120t71 96.5t95 68.5t118 24q56 0 114.5 -19.5t99 -43t90.5 -43t93 -19.5t76 21.5t71 86.5l193 -75q-58 -145 -138.5 -227.5t-203.5 -82.5q-52 0 -110.5 19.5t-101.5 43t-95.5 43t-94.5 19.5q-40 0 -71.5 -22t-71.5 -88zM109 807q28 68 58 120t71 96.5 t95 68.5t118 24q56 0 114.5 -19.5t99 -43t90.5 -43t93 -19.5t76 21.5t71 87.5l193 -76q-28 -69 -58 -121t-71 -96.5t-95 -68t-118 -23.5q-52 0 -110.5 19.5t-101.5 43t-95.5 43t-94.5 19.5q-40 0 -71.5 -22.5t-71.5 -88.5z" />
<glyph unicode="&#x2260;" horiz-adv-x="1290" d="M104 328v309h367l41 98h-408v309h537l104 252l261 -96l-66 -156h244v-309h-373l-41 -98h414v-309h-543l-106 -254l-259 96l66 158h-238z" />
<glyph unicode="&#x2264;" horiz-adv-x="1290" d="M90 0v260h1077v-260h-1077zM90 647v236l1077 348v-344l-467 -123l467 -127v-338z" />
<glyph unicode="&#x2265;" horiz-adv-x="1290" d="M121 0v260h1077v-260h-1077zM121 299v338l467 127l-467 123v344l1077 -348v-236z" />
<glyph unicode="&#x2318;" horiz-adv-x="1540" d="M74 383q0 124 93.5 211.5t227.5 87.5h99v76h-99q-133 0 -227 88t-94 213q0 124 93.5 211.5t227.5 87.5q132 0 226 -87.5t94 -211.5v-84h98v84q0 124 94 211.5t226 87.5q133 0 226 -87t93 -212t-93 -213t-226 -88h-99v-76h99q133 0 226 -87t93 -212t-93 -213t-226 -88 q-132 0 -226 88.5t-94 212.5v82h-98v-82q0 -124 -94 -212.5t-226 -88.5q-133 0 -227 88t-94 213zM295 383q0 -35 28.5 -59.5t71.5 -24.5q40 0 69.5 24.5t29.5 59.5v82h-99q-42 0 -71 -24t-29 -58zM295 1059q0 -35 28.5 -59.5t71.5 -24.5h99v84q0 34 -29.5 58t-69.5 24 q-42 0 -71 -24t-29 -58zM715 682h98v76h-98v-76zM1034 383q0 -35 29 -59.5t70 -24.5q40 0 69 24.5t29 59.5q0 34 -29 58t-69 24h-99v-82zM1034 975h99q40 0 69 24.5t29 59.5q0 34 -29 58t-69 24q-41 0 -70 -24t-29 -58v-84z" />
<glyph unicode="&#x25ca;" horiz-adv-x="1257" d="M41 717l379 717h416l381 -717l-381 -717h-416zM430 717l197 -369l198 369l-198 366z" />
<glyph unicode="&#xe000;" horiz-adv-x="1075" d="M0 0v1075h1075v-1075h-1075z" />
<glyph unicode="&#xf639;" horiz-adv-x="1466" d="M76 717q0 351 169 545t488 194t487.5 -194t168.5 -545t-169.5 -545.5t-488.5 -194.5t-487 194.5t-168 545.5zM516 717q0 -116 15 -196.5t44.5 -125.5t67 -64.5t88.5 -19.5t89 19t67.5 64t45 125.5t15.5 197.5q0 116 -15 196.5t-44.5 125.5t-67 64t-88.5 19 q-41 0 -72.5 -11.5t-59.5 -39.5t-46 -73.5t-28.5 -116t-10.5 -164.5z" />
<glyph unicode="&#xf63a;" horiz-adv-x="1466" d="M133 0v170q0 336 442 602q42 26 99.5 58t90 50.5t65 41.5t47 44.5t14.5 45.5q0 36 -37 61t-109 25q-143 0 -385 -135l-190 276q316 217 643 217q130 0 231.5 -34t162.5 -93.5t92.5 -134t31.5 -160.5q0 -60 -16 -115t-39 -97.5t-62.5 -84.5t-73 -70t-85.5 -60.5t-85 -50 t-85 -44.5q-217 -108 -217 -154h665v-358h-1200z" />
<glyph unicode="&#xf63b;" horiz-adv-x="1466" d="M111 184l188 291q255 -135 438 -135q178 0 178 100q0 23 -8.5 41.5t-27.5 31t-37.5 22t-50 15t-53 9t-59 5t-55 1.5h-53.5h-16h-61v359h71q151 0 210 18q81 24 81 84q0 72 -123 72q-85 0 -189.5 -37t-193.5 -84l-176 268q295 211 633 211q244 0 364.5 -100t120.5 -256 q0 -202 -209 -309q119 -40 196 -139t77 -220q0 -70 -16.5 -132.5t-57.5 -122.5t-103.5 -103.5t-160.5 -70t-223 -26.5q-345 0 -684 207z" />
<glyph unicode="&#xf63c;" horiz-adv-x="1466" d="M51 236v296l619 902h551v-840h194v-358h-194v-236h-426v236h-744zM469 594h326v489z" />
<glyph unicode="&#xf63d;" horiz-adv-x="1466" d="M123 182l188 312q220 -146 387 -146q92 0 147.5 33t55.5 96q0 58 -50.5 98.5t-152.5 40.5q-118 0 -260 -69l-241 153l77 734h1012v-359h-643l-8 -129q87 19 174 19q134 0 238.5 -40t167 -108.5t94.5 -154t32 -181.5q0 -81 -21.5 -154t-68 -137.5t-113.5 -111.5t-164 -74 t-214 -27q-330 0 -637 205z" />
<glyph unicode="&#xf63e;" horiz-adv-x="1466" d="M109 600q0 187 67.5 346t187.5 271.5t293.5 175.5t378.5 63q63 0 122 -5.5t86 -10.5l28 -6l-101 -338q-59 10 -133 10q-319 0 -432 -250q119 76 289 76q202 0 334.5 -121.5t132.5 -323.5q0 -104 -41.5 -196.5t-117 -162t-190.5 -110.5t-253 -41q-133 0 -242.5 34 t-184.5 92.5t-126 138.5t-74.5 169.5t-23.5 188.5zM549 537q1 -62 21.5 -106t52.5 -65t62.5 -29.5t62.5 -8.5q91 0 134.5 42.5t43.5 98.5q0 67 -50 106t-131 39q-119 0 -196 -77z" />
<glyph unicode="&#xf63f;" horiz-adv-x="1466" d="M188 1075v359h1088v-338q-11 -13 -29.5 -35.5t-71.5 -94.5t-101.5 -145.5t-107.5 -180t-101.5 -206.5t-71.5 -216.5t-29 -217.5h-449q0 134 48 289t110 276.5t141.5 242.5t123 177t73.5 90h-623z" />
<glyph unicode="&#xf640;" horiz-adv-x="1466" d="M84 399q0 139 80 230.5t217 156.5q-203 132 -203 312q0 160 143.5 259t409.5 99q267 0 411 -99t144 -259q0 -180 -205 -312q65 -31 115 -65t93.5 -80.5t67 -107.5t23.5 -134q0 -196 -167.5 -309t-481.5 -113q-313 0 -480 113t-167 309zM524 436q0 -57 57 -96t150 -39 q94 0 151.5 39t57.5 96q0 58 -54 101.5t-155 85.5q-100 -42 -153.5 -85.5t-53.5 -101.5zM602 1055q0 -75 129 -131q131 56 131 131q0 31 -34 60.5t-97 29.5q-62 0 -95.5 -29.5t-33.5 -60.5z" />
<glyph unicode="&#xf641;" horiz-adv-x="1466" d="M106 946q0 104 41.5 196.5t117 162t191 110.5t253.5 41q133 0 242.5 -34t184.5 -92t126 -138t74.5 -169.5t23.5 -188.5q0 -187 -67.5 -346t-188 -271.5t-294 -176t-378.5 -63.5q-63 0 -121.5 5.5t-86.5 11.5l-27 6l100 338q59 -10 133 -10q319 0 432 247 q-124 -73 -289 -73q-202 0 -334.5 121t-132.5 323zM543 965q0 -67 50 -106.5t130 -39.5q117 0 197 76q-1 50 -15.5 89t-35.5 61.5t-48.5 36.5t-51.5 19t-48 5q-91 0 -134.5 -42.5t-43.5 -98.5z" />
<glyph unicode="&#xf6c3;" horiz-adv-x="333" d="M8 -563l127 166h-125v293h287l12 -332l-229 -219z" />
<glyph unicode="&#xf6dc;" horiz-adv-x="1466" d="M92 0v358h422v680l-254 -127l-168 279l443 244h415v-1076h422v-358h-1280z" />
<glyph unicode="&#xf6df;" horiz-adv-x="739" d="M41 123q0 163 86 246t219 90v94h195v-117q72 -15 170 -53l-107 -203q-106 45 -186 45q-94 0 -94 -102q0 -103 94 -103q77 0 186 46l107 -205q-90 -35 -170 -54v-114h-195v94q-133 7 -219 90t-86 246z" />
<glyph unicode="&#xf6e0;" horiz-adv-x="739" d="M41 1219q0 84 24.5 148.5t67.5 103.5t96.5 59.5t116.5 23.5v95h195v-117q72 -15 170 -53l-107 -203q-106 45 -186 45q-94 0 -94 -102q0 -103 94 -103q80 0 186 45l107 -205q-84 -33 -170 -53v-115h-195v95q-133 7 -219 90t-86 246z" />
<glyph unicode="&#xf6e1;" horiz-adv-x="385" d="M49 -33h273l14 -313l-217 -199l-70 88l121 150h-121v274z" />
<glyph unicode="&#xf6e2;" horiz-adv-x="385" d="M49 639l121 149h-121v275h273l14 -313l-217 -199z" />
<glyph unicode="&#xf6e3;" horiz-adv-x="882" d="M27 -190l127 200q65 -34 163.5 -65t161.5 -31q31 0 51.5 6.5t20.5 16.5q0 21 -37 31.5t-116.5 26t-143.5 40.5q-83 30 -145 93.5t-62 156.5q0 112 77.5 189.5t227.5 90.5v113h195v-123q148 -22 284 -88l-126 -205q-62 26 -143 48t-136 22q-76 0 -76 -25q0 -21 35.5 -31.5 t115.5 -27t146 -41.5q209 -84 209 -244q0 -112 -79.5 -190.5t-229.5 -91.5v-111h-195v121q-185 32 -325 119z" />
<glyph unicode="&#xf6e4;" horiz-adv-x="882" d="M27 905l127 201q65 -34 163.5 -65t161.5 -31q72 0 72 22q0 21 -37 31.5t-116.5 26t-143.5 40.5q-83 30 -145 93.5t-62 156.5q0 112 77.5 190t227.5 91v113h195v-123q148 -22 284 -88l-126 -205q-61 25 -142.5 47t-136.5 22q-76 0 -76 -24q0 -21 35.5 -31.5t115.5 -27 t146 -41.5q209 -84 209 -244q0 -113 -79.5 -192.5t-229.5 -90.5v-110h-195v120q-193 33 -325 119z" />
<glyph unicode="&#xf6e7;" horiz-adv-x="368" d="M49 -33h273v-274h-273v274z" />
<glyph unicode="&#xf6e8;" horiz-adv-x="368" d="M49 788v275h273v-275h-273z" />
<glyph unicode="&#xf6e9;" horiz-adv-x="800" d="M14 993q0 92 72 148.5t193 56.5q77 0 200 -24v16q0 32 -20 42.5t-74 10.5q-99 0 -244 -31l-82 183q207 53 381 53q173 0 245.5 -64.5t72.5 -216.5v-379h-279v62q-98 -76 -221 -76q-113 0 -178.5 65t-65.5 154zM295 1020q0 -18 16 -28.5t45 -10.5q71 0 123 37v29 q-72 14 -108 14q-37 0 -56.5 -8t-19.5 -33z" />
<glyph unicode="&#xf6ea;" horiz-adv-x="835" d="M51 788v895h279v-305q49 36 96.5 53t114.5 17q128 0 199 -89t71 -249q0 -157 -71.5 -246.5t-198.5 -89.5q-66 0 -113 17t-98 53v-56h-279zM330 1047q49 -54 116 -54q43 0 63.5 28.5t20.5 90.5q0 61 -20.5 89t-63.5 28q-66 0 -116 -55v-127z" />
<glyph unicode="&#xf6eb;" horiz-adv-x="835" d="M25 1110q0 159 72 248.5t198 89.5q115 0 211 -70v305h278v-895h-278v54q-98 -68 -211 -68q-126 0 -198 89.5t-72 246.5zM305 1112q0 -119 86 -119q66 0 115 54v127q-50 55 -115 55q-86 0 -86 -117z" />
<glyph unicode="&#xf6ec;" horiz-adv-x="759" d="M23 1108q0 159 94.5 249.5t271.5 90.5q173 0 262.5 -80.5t89.5 -212.5q0 -25 -3 -49.5t-6 -36.5l-3 -12h-424q8 -44 31 -63t70 -19q99 0 245 51l94 -168q-201 -84 -370 -84q-76 0 -138.5 19t-111 58t-75.5 104.5t-27 152.5zM309 1192h164q-7 65 -84 65q-65 0 -80 -65z " />
<glyph unicode="&#xf6ed;" horiz-adv-x="382" d="M49 1481v200h287v-200h-287zM53 788v646h279v-646h-279z" />
<glyph unicode="&#xf6ee;" horiz-adv-x="378" d="M51 788v895h279v-895h-279z" />
<glyph unicode="&#xf6ef;" horiz-adv-x="1224" d="M51 788v646h279v-66q96 80 213 80q147 0 192 -96q40 38 102.5 67t129.5 29q213 0 213 -211v-449h-279v381q0 25 -2 37t-13 21.5t-32 9.5q-47 0 -98 -47v-402h-279v381q0 36 -9 52t-40 16q-53 0 -98 -49v-400h-279z" />
<glyph unicode="&#xf6f0;" horiz-adv-x="817" d="M23 1112q0 162 100 249t287 87q185 0 285 -88t100 -250t-99.5 -249t-285.5 -87t-286.5 88t-100.5 250zM301 1112q0 -129 109 -129q106 0 106 127q0 129 -106 129q-109 0 -109 -127z" />
<glyph unicode="&#xf6f1;" horiz-adv-x="589" d="M51 788v646h279v-131q8 22 24 43.5t44.5 46.5t75 39t104.5 10v-260q-63 0 -111.5 -21.5t-73 -52t-40.5 -61.5t-19 -53l-4 -21v-185h-279z" />
<glyph unicode="&#xf6f2;" horiz-adv-x="718" d="M10 864l96 174q59 -26 145.5 -49.5t135.5 -23.5q43 0 43 10q0 7 -22 12t-67.5 12t-76.5 15q-241 57 -241 221q0 92 74.5 152.5t219.5 60.5q92 0 191.5 -23t171.5 -53l-96 -160q-163 48 -238 48q-45 0 -45 -11q0 -9 18.5 -14t67 -13t84.5 -16q46 -11 81.5 -25t74.5 -39 t60.5 -65t21.5 -92q0 -94 -76 -152.5t-225 -58.5q-104 0 -216.5 27.5t-181.5 62.5z" />
<glyph unicode="&#xf6f3;" horiz-adv-x="600" d="M16 1235v199h90v161l281 25v-186h178v-199h-178v-168q0 -19 4.5 -30.5t13 -16t14 -5.5t15.5 -1q13 0 29.5 4.5t34.5 11.5l18 8l94 -202q-136 -62 -256 -62q-129 0 -188.5 74t-59.5 217v170h-90z" />
<glyph unicode="&#xf8ff;" horiz-adv-x="1755" d="M146.5 560.5q-2.5 11.5 15.5 21.5l57 41q2 1 3.5 2.5l3 3l2.5 2.5t2 3l1 1q19 16 37 -12l33 -64q6 -12 13 -15.5t13.5 2t10.5 17.5l18 70q6 19 19.5 21t25.5 -13l48 -53q14 -15 23 -11.5t11 23.5l4 70q3 20 15.5 25t27.5 -7l58 -43q17 -12 25.5 -6.5t4.5 25.5l-8 69 q-3 20 8.5 28t28.5 -1l64 -29q19 -9 26.5 -1.5t1.5 26.5l-22 67q-8 19 0.5 29t27.5 4l15 -2q40 -77 70 -202.5t30 -217.5q-15 -18 -34.5 -27.5t-59.5 -9.5h-8q0 46 -33 72q18 -21 18 -55v-15q-32 3 -32 39q0 43 -28 72t-77 29q-41 0 -68.5 -32t-27.5 -79q0 -60 49.5 -96.5 t138.5 -36.5q85 0 172 42t156.5 112t125 154.5t86 175.5t30.5 169q0 59 -36.5 98t-94.5 39q-48 0 -85.5 -33.5t-37.5 -84.5q0 -106 119 -119q-29 -119 -60 -174q-12 96 -43.5 178t-75.5 129q91 -120 107 -330l-29 -41q0 156 -51 287t-131 172q-5 9 2 18.5t22 12.5l70 12 q19 3 21 13.5t-15 21.5l-59 39q-15 13 -13.5 26.5t19.5 20.5l64 29q14 4 19 10.5t0 13.5t-19 12l-64 27q-23 10 -20 29q11 6 14 16l35 62q9 19 20.5 18t16.5 -20l20 -68q6 -21 18.5 -24t26.5 14l47 53q12 15 23 12.5t12 -22.5l4 -72q1 -21 14.5 -26t28.5 8l57 43 q15 12 24 5.5t7 -26.5l-10 -70q-1 -20 10.5 -27.5t28.5 1.5l63 33q19 8 26.5 0t0.5 -29l-23 -64q-6 -20 3 -30t28 -4l70 14q20 6 26.5 -2t-4.5 -27l-37 -59q-12 -17 -5.5 -29.5t26.5 -11.5l72 4q21 0 25 -11t-9 -24l-49 -53q-14 -13 -10.5 -26.5t24.5 -16.5l70 -12 q43 -10 6 -39l-57 -39q-16 -10 -15 -24t21 -21l63 -27q12 -5 16.5 -12t0 -13.5t-16.5 -11.5l-63 -26q-20 -7 -21 -22t15 -25l57 -41q11 -7 14.5 -14.5t-2 -13.5t-18.5 -9l-70 -13q-21 -3 -24.5 -16.5t10.5 -28.5l49 -49q13 -14 9 -24.5t-25 -10.5l-72 5q-20 0 -26.5 -12 t5.5 -29l37 -62q10 -17 4 -25.5t-26 -5.5l-70 19q-18 6 -27.5 -5t-3.5 -30l23 -68q8 -19 0 -26t-27 2l-63 31q-17 9 -28.5 1t-10.5 -30l10 -68q1 -21 -7.5 -25.5t-23.5 7.5l-57 43q-15 12 -28.5 5.5t-14.5 -26.5l-4 -69q-1 -20 -12 -23t-23 11l-47 55q-13 14 -26 12t-19 -22 l-20 -68q-3 -13 -9.5 -18t-14 -1t-13.5 15l-35 61q-9 19 -22 19t-25 -19l-31 -61q-6 -11 -13.5 -15t-14 1t-9.5 18l-20 68q-6 20 -19 22t-26 -12l-47 -55q-12 -14 -22 -11t-13 23l-4 69q-2 20 -15 26.5t-30 -5.5l-54 -43q-17 -13 -26.5 -8t-5.5 26l10 68q1 22 -10.5 30 t-30.5 -1l-62 -31q-19 -9 -26.5 -2t0.5 26l22 68q8 19 -1.5 30t-28.5 5l-70 -19q-20 -3 -26.5 5.5t3.5 25.5l39 62q11 17 4.5 29t-26.5 12l-72 -5q-21 0 -25 10.5t9 24.5l51 49q13 15 9 28.5t-25 16.5l-68 13q-21 4 -23.5 15.5zM623 281q43 -27 122 -27q106 0 212.5 65 t183.5 162t125.5 212t48.5 214q0 63 -41 101q24 -38 24 -84q0 -100 -47.5 -215t-126.5 -215q-85 -105 -188.5 -168.5t-212.5 -63.5q-57 0 -100 19z" />
<glyph unicode="&#xfb06;" horiz-adv-x="2070" d="M23 123l145 268q95 -45 231 -84t213 -39q31 0 51 8t24.5 14.5t4.5 10.5q0 14 -13 24t-41 18t-56.5 14t-76 15.5t-83.5 18.5q-377 95 -377 363q0 150 117.5 247t341.5 97q113 0 278 -33q-10 34 -10 92q0 147 116 241.5t320 94.5q247 0 380.5 -108.5t133.5 -307.5v-2h289 v-303h-289v-340q0 -31 7 -51t21 -27.5t24.5 -9.5t27.5 -2q45 0 137 41l144 -307q-218 -99 -400 -99q-197 0 -287.5 113.5t-90.5 341.5v340h-146v303h146v25q0 119 -37 169t-129 50q-77 0 -132 -48.5t-55 -133.5q0 -75 21 -125q47 -16 94 -37l-143 -246q-87 30 -197.5 56 t-177.5 26q-42 0 -62 -11t-20 -26q0 -14 12 -23.5t39 -17.5t55 -14t76 -15.5t86 -19.5q57 -14 104 -30.5t101 -46.5t90.5 -66.5t61 -93.5t24.5 -125q0 -156 -121 -250.5t-352 -94.5q-164 0 -338 44t-282 102z" />
<glyph horiz-adv-x="882" d="M37 1139q0 131 103.5 220t279.5 89q106 0 188 -31t130.5 -84.5t73 -120t24.5 -141.5q0 -224 -163 -368t-429 -144q-40 0 -77.5 3.5t-54.5 7.5l-18 3l66 222q37 -7 84 -7q185 0 258 121q-72 -37 -170 -37q-127 0 -211 72t-84 195zM324 1151q0 -34 29 -52t77 -18 q65 0 117 33q-4 105 -119 105q-54 0 -79 -21t-25 -47z" />
<glyph horiz-adv-x="1329" d="M29 1432q0 108 67.5 169.5t200.5 61.5t201.5 -62t68.5 -169t-68.5 -168.5t-201.5 -61.5t-200.5 61t-67.5 169zM227 1432q0 -37 17 -53.5t53 -16.5q38 0 56 16.5t18 53.5q0 71 -74 71q-70 0 -70 -71zM324 774l467 875h208l-469 -875h-206zM764 1006q0 107 67.5 168 t200.5 61t200.5 -61t67.5 -168q0 -109 -67.5 -170.5t-200.5 -61.5t-200.5 61.5t-67.5 170.5zM961 1006q0 -72 71 -72q37 0 54.5 17t17.5 55q0 36 -17.5 52.5t-54.5 16.5q-71 0 -71 -69z" />
<glyph horiz-adv-x="2910" d="M27 772v303h147q11 199 108.5 298.5t295.5 99.5q221 0 481 -93q101 113 307 113q183 0 385 -59v59h420v-741l235 323h488l-363 -422l424 -653h-452l-224 362l-108 -126v-236h-420v1130q-3 0 -68 12t-115.5 18.5t-84.5 6.5q-21 0 -34.5 -2t-31.5 -9.5t-27.5 -27.5 t-9.5 -51v-2h246v-303h-246v-772h-419v772h-371v-772h-418v772h-145zM590 1075h371l4 55q-217 37 -271 37q-16 0 -27 -1t-27 -5.5t-25.5 -13.5t-17 -27t-7.5 -43v-2z" />
<glyph horiz-adv-x="2248" d="M27 772v303h147q11 199 108.5 298.5t295.5 99.5q221 0 481 -93q101 113 307 113q183 0 385 -59v59h420v-1493h-420v1130q-3 0 -68 12t-115.5 18.5t-84.5 6.5q-21 0 -34.5 -2t-31.5 -9.5t-27.5 -27.5t-9.5 -51v-2h246v-303h-246v-772h-419v772h-371v-772h-418v772h-145z M590 1075h371l4 55q-217 37 -271 37q-16 0 -27 -1t-27 -5.5t-25.5 -13.5t-17 -27t-7.5 -43v-2z" />
<glyph horiz-adv-x="2529" d="M27 772v303h147q11 199 108.5 298.5t295.5 99.5q211 0 473 -89q92 109 286 109t410 -98l-137 -265q-116 37 -154 37q-17 0 -27.5 -2t-24.5 -9.5t-21 -27.5t-7 -51v-2h387v271l418 40v-311h289v-303h-289v-340q0 -31 7.5 -51t22 -27.5t25 -9.5t27.5 -2q13 0 29 3t33 9 t29 10.5t27 11t17 7.5l144 -307q-218 -99 -398 -99q-199 0 -290 113.5t-91 341.5v340h-387v-772h-420v772h-366v-772h-418v772h-145zM590 1075h366l5 55q-196 37 -267 37q-16 0 -27 -1t-27 -5.5t-25.5 -13.5t-17 -27t-7.5 -43v-2z" />
<glyph horiz-adv-x="2181" d="M27 772v303h145q8 208 106 313t300 105q183 0 385 -59v59h419v-522q198 127 392 127q335 0 335 -346v-752h-419v649q0 62 -21 94.5t-76 32.5q-52 0 -109 -26.5t-102 -69.5v-680h-419v1130q-2 0 -68 12t-116.5 18.5t-84.5 6.5q-16 0 -27 -1t-27 -5.5t-25.5 -13.5t-17 -27 t-7.5 -43v-2h248v-303h-248v-772h-418v772h-145z" />
<glyph horiz-adv-x="2183" d="M27 772v303h147q11 199 108.5 298.5t295.5 99.5q225 0 485 -93q107 113 323 113q262 0 556 -98l-132 -265q-6 1 -56.5 9t-86.5 13t-84.5 10t-79.5 5q-20 0 -32.5 -1t-31.5 -5.5t-30.5 -13.5t-20 -27t-8.5 -43v-2h719v-1075h-420v772h-299v-772h-419v772h-371v-772h-418 v772h-145zM590 1075h371l4 55q-217 37 -271 37q-16 0 -27 -1t-27 -5.5t-25.5 -13.5t-17 -27t-7.5 -43v-2z" />
<glyph horiz-adv-x="1396" d="M27 772v303h145q8 208 110.5 313t315.5 105q261 0 555 -98l-131 -265q-6 1 -56.5 9t-86.5 13t-84.5 10t-79.5 5q-20 0 -32.5 -1t-32 -5.5t-31 -13.5t-20.5 -27t-9 -43v-2h721v-1075h-420v772h-301v-772h-418v772h-145z" />
<glyph horiz-adv-x="1396" d="M27 772v303h145q8 208 110.5 313t315.5 105q261 0 555 -98l-131 -265q-6 1 -56.5 9t-86.5 13t-84.5 10t-79.5 5q-20 0 -32.5 -1t-32 -5.5t-31 -13.5t-20.5 -27t-9 -43v-2h721v-979q0 -63 -0.5 -93t-3.5 -80.5t-10 -75t-19.5 -64t-32 -60t-48 -50t-66.5 -47.5t-88 -40 t-113.5 -39t-141.5 -34l-135 299q46 15 78.5 27.5t59 26.5t42.5 23t28 26t17.5 27t8.5 33t3.5 38t0.5 48v711h-301v-772h-418v772h-145z" />
<glyph horiz-adv-x="2129" d="M27 772v303h145q8 208 106 313t300 105q183 0 385 -59v59h419v-741l236 323h487l-362 -422l424 -653h-453l-223 362l-109 -126v-236h-419v1130q-2 0 -68 12t-116.5 18.5t-84.5 6.5q-16 0 -27 -1t-27 -5.5t-25.5 -13.5t-17 -27t-7.5 -43v-2h248v-303h-248v-772h-418v772 h-145z" />
<glyph horiz-adv-x="2967" d="M27 772v303h147q11 199 108.5 298.5t295.5 99.5q221 0 481 -93q101 113 307 113q183 0 385 -59v59h420v-522q198 127 391 127q336 0 336 -346v-752h-420v649q0 63 -20.5 95t-75.5 32q-52 0 -109 -26.5t-102 -69.5v-680h-420v1130q-3 0 -68 12t-115.5 18.5t-84.5 6.5 q-21 0 -34.5 -2t-31.5 -9.5t-27.5 -27.5t-9.5 -51v-2h246v-303h-246v-772h-419v772h-371v-772h-418v772h-145zM590 1075h371l4 55q-217 37 -271 37q-16 0 -27 -1t-27 -5.5t-25.5 -13.5t-17 -27t-7.5 -43v-2z" />
<glyph horiz-adv-x="1464" d="M27 772v303h145q8 208 106 313t300 105q183 0 385 -59v59h419v-1493h-419v1130q-2 0 -68 12t-116.5 18.5t-84.5 6.5q-16 0 -27 -1t-27 -5.5t-25.5 -13.5t-17 -27t-7.5 -43v-2h248v-303h-248v-772h-418v772h-145z" />
<glyph horiz-adv-x="1746" d="M27 772v303h145q8 209 99 313.5t282 104.5q194 0 410 -98l-138 -265q-116 37 -153 37q-17 0 -27.5 -2t-25 -9.5t-22 -27.5t-7.5 -51v-2h387v271l420 40v-311h289v-303h-289v-340q0 -31 7.5 -51t21.5 -27.5t24.5 -9.5t26.5 -2q13 0 29.5 3t34 9t29.5 10.5t27.5 11 t16.5 7.5l143 -307q-218 -99 -397 -99q-199 0 -291 114t-92 341v340h-387v-772h-418v772h-145z" />
<glyph horiz-adv-x="546" d="M14 139v199h90q8 124 67.5 187t180.5 63q128 0 264 -62l-90 -161q-77 22 -94 22q-13 0 -21 -1.5t-17 -13t-9 -34.5h152v-199h-152v-446h-281v446h-90z" />
<glyph horiz-adv-x="1327" d="M84 537v639h399v-680q0 -85 38 -131t143 -46q104 0 141 45.5t37 131.5v680h399v-639q0 -100 -13 -176.5t-50.5 -150.5t-100 -122t-167 -77t-246.5 -29q-119 0 -212 19t-155.5 57t-105 86t-65.5 113.5t-32.5 131.5t-9.5 148zM408 1247l260 297h442l-362 -297h-340z" />
<glyph horiz-adv-x="860" d="M29 115l125 204q131 -90 245 -90q119 0 119 60q0 28 -30 47.5t-91 19.5q-74 0 -161 -41l-160 103l49 442h649v-235h-405l-4 -52q64 11 106 11q168 0 254 -84.5t86 -208.5q0 -62 -22.5 -115.5t-66.5 -96.5t-116.5 -68t-165.5 -25q-203 0 -411 129z" />
<glyph horiz-adv-x="860" d="M29 688l125 205q131 -90 245 -90q119 0 119 59q0 28 -30 48t-91 20q-74 0 -161 -41l-160 102l49 443h649v-236h-405l-4 -51q58 10 106 10q168 0 254 -84.5t86 -208.5q0 -62 -22.5 -115.5t-66.5 -96.5t-116.5 -68t-165.5 -25q-203 0 -411 129z" />
<glyph horiz-adv-x="1277" d="M14 -76l189 312q220 -146 387 -146q92 0 147.5 33t55.5 96q0 58 -50.5 98.5t-152.5 40.5q-118 0 -260 -69l-242 153l78 734h1012v-359h-643l-9 -129q87 19 174 19q108 0 197.5 -26.5t151 -72t103.5 -107.5t61.5 -131.5t19.5 -146.5q0 -101 -35.5 -190.5t-104.5 -160.5 t-183 -112t-259 -41q-329 0 -637 205z" />
<glyph horiz-adv-x="2971" d="M27 772v303h147q11 199 108.5 298.5t295.5 99.5q221 0 481 -93q101 113 307 113q183 0 385 -59v59h420v-514q78 59 155.5 89t182.5 30q201 0 315.5 -146.5t114.5 -414.5q0 -265 -114.5 -412.5t-315.5 -147.5q-105 0 -182.5 30t-155.5 89v-96h-420v1130q-3 0 -68 12 t-115.5 18.5t-84.5 6.5q-21 0 -34.5 -2t-31.5 -9.5t-27.5 -27.5t-9.5 -51v-2h246v-303h-246v-772h-419v772h-371v-772h-418v772h-145zM590 1075h371l4 55q-217 37 -271 37q-16 0 -27 -1t-27 -5.5t-25.5 -13.5t-17 -27t-7.5 -43v-2zM2171 412q88 -101 196 -101q148 0 148 228 q0 225 -148 225q-107 0 -196 -102v-250z" />
<glyph horiz-adv-x="1789" d="M43 561l98 160q109 -72 213 -72q53 0 85 15t32 43q0 26 -30 43.5t-89 17.5q-64 0 -143 -33l-127 78l45 363h543v-185h-355l-4 -55q52 10 99 10q144 0 217 -68.5t73 -170.5q0 -105 -80.5 -176.5t-234.5 -71.5q-172 0 -342 102zM465 0l584 1176h241l-581 -1176h-244z M1042 197q0 121 160 190q-108 65 -108 154q0 78 79 127t222 49q141 0 220 -49.5t79 -126.5q0 -87 -109 -154q160 -70 160 -190q0 -95 -92 -152t-258 -57q-169 0 -261 56.5t-92 152.5zM1274 217q0 -27 33 -44t88 -17q52 0 85 17.5t33 43.5q0 20 -19.5 38t-40 27.5t-58.5 24.5 q-61 -24 -91 -43.5t-30 -46.5zM1315 510q0 -32 78 -57q80 26 80 57q0 15 -20.5 31t-57.5 16t-58.5 -16t-21.5 -31z" />
<glyph horiz-adv-x="1734" d="M43 561l98 160q109 -72 213 -72q53 0 85 15t32 43q0 26 -30 43.5t-89 17.5q-64 0 -143 -33l-127 78l45 363h543v-185h-355l-4 -55q52 10 99 10q144 0 217 -68.5t73 -170.5q0 -105 -80.5 -176.5t-234.5 -71.5q-172 0 -342 102zM465 0l584 1176h241l-581 -1176h-244z M1010 297q0 183 137.5 301.5t359.5 118.5q35 0 67 -3t47 -6l15 -3l-51 -173q-33 7 -76 7q-170 0 -235 -113q72 33 156 33q111 0 183.5 -59t72.5 -158q0 -107 -88.5 -180.5t-237.5 -73.5q-172 0 -261 89t-89 220zM1237 262q1 -53 36 -73.5t81 -20.5q54 0 80 19t26 44 q0 30 -29 48t-77 18q-72 0 -117 -35z" />
<glyph horiz-adv-x="1642" d="M27 772v303h147q11 199 108.5 298.5t295.5 99.5q218 0 477 -91q91 111 286 111q194 0 410 -98l-137 -265q-116 37 -154 37q-17 0 -27.5 -2t-24.5 -9.5t-21 -27.5t-7 -51v-2h246v-303h-246v-772h-419v772h-371v-772h-418v772h-145zM590 1075h371l4 55q-6 1 -50.5 9 t-76.5 13t-75 10t-69 5q-16 0 -27 -1t-27 -5.5t-25.5 -13.5t-17 -27t-7.5 -43v-2z" />
<glyph horiz-adv-x="1327" d="M84 537v639h399v-680q0 -85 38 -131t143 -46q104 0 141 45.5t37 131.5v680h399v-639q0 -100 -13 -176.5t-50.5 -150.5t-100 -122t-167 -77t-246.5 -29q-119 0 -212 19t-155.5 57t-105 86t-65.5 113.5t-32.5 131.5t-9.5 148z" />
<glyph horiz-adv-x="800" d="M10 1409v240h783v-240h-246v-621h-289v621h-248z" />
<glyph horiz-adv-x="966" d="M25 133v195l385 532h385v-491h135v-236h-135v-133h-289v133h-481zM319 369h187v268z" />
<glyph horiz-adv-x="966" d="M25 707v194l385 533h385v-492h135v-235h-135v-134h-289v134h-481zM319 942h187v268z" />
<glyph horiz-adv-x="1462" d="M18 -23v297l619 902h580v-840h215v-359h-215v-235h-437v235h-762zM457 336h323v487z" />
<glyph horiz-adv-x="1699" d="M27 772v303h145q8 209 99 313.5t282 104.5q194 0 410 -98l-117 -265q-134 37 -174 37q-17 0 -27.5 -2t-25 -9.5t-22 -27.5t-7.5 -51v-2h211v-303h-211v-772h-418v772h-145zM866 772v303h146q8 209 99 313.5t282 104.5q151 0 321 -80l-88 -270q-79 24 -115 24 q-17 0 -27.5 -2t-24.5 -9.5t-21.5 -27.5t-7.5 -51v-2h247v-303h-247v-772h-418v772h-146z" />
<glyph horiz-adv-x="1914" d="M43 584v151l342 441h303v-410h117v-182h-117v-113h-227v113h-418zM281 766h180v244zM588 0l581 1176h244l-582 -1176h-243zM1198 92l98 160q105 -74 213 -74q53 0 85 15t32 43q0 26 -30 44.5t-89 18.5q-64 0 -143 -35l-127 80l43 361h545v-183h-355l-4 -57q52 10 99 10 q143 0 216.5 -68.5t73.5 -168.5q0 -106 -80.5 -178t-234.5 -72q-169 0 -342 104z" />
<glyph horiz-adv-x="2187" d="M27 772v303h145q8 208 106 313t300 105q183 0 385 -59v59h419v-514q78 60 154.5 89.5t183.5 29.5q201 0 315.5 -146.5t114.5 -414.5q0 -265 -114.5 -412.5t-315.5 -147.5q-107 0 -183.5 29.5t-154.5 89.5v-96h-419v1130q-2 0 -68 12t-116.5 18.5t-84.5 6.5q-16 0 -27 -1 t-27 -5.5t-25.5 -13.5t-17 -27t-7.5 -43v-2h248v-303h-248v-772h-418v772h-145zM1382 412q88 -101 197 -101q147 0 147 228q0 225 -147 225q-108 0 -197 -102v-250z" />
<glyph horiz-adv-x="860" d="M27 772v303h145q8 209 99 313.5t282 104.5q151 0 321 -80l-88 -270q-79 24 -114 24q-17 0 -27.5 -2t-25 -9.5t-22 -27.5t-7.5 -51v-2h248v-303h-248v-772h-418v772h-145z" />
<glyph horiz-adv-x="1368" d="M59 172v234h148v1028h1108v-367h-672v-172h528v-358h-528v-131h369v-234h-369v-172h-436v172h-148z" />
<glyph horiz-adv-x="1212" d="M53 125v211h129v840h981v-328h-581v-98h454v-326h-454v-88h321v-211h-321v-125h-400v125h-129z" />
<glyph horiz-adv-x="868" d="M35 -61h94v614h709v-240h-420v-73h330v-236h-330v-65h233v-152h-233v-94h-289v94h-94v152z" />
<glyph horiz-adv-x="868" d="M35 883v151h92v615h709v-240h-420v-74h329v-235h-329v-66h235v-151h-235v-95h-289v95h-92z" />
<glyph horiz-adv-x="546" d="M14 1235v199h90q8 124 67.5 186.5t180.5 62.5q130 0 264 -61l-90 -162q-81 23 -94 23t-21 -1.5t-17 -13t-9 -34.5h152v-199h-152v-447h-281v447h-90z" />
<glyph horiz-adv-x="800" d="M10 313v240h783v-240h-246v-620h-289v620h-248z" />
<glyph horiz-adv-x="1271" d="M98 0v1176h400v-160h194q278 0 409.5 -108t131.5 -302q0 -405 -541 -405h-194v-201h-400zM498 524h106q131 0 178 14.5t47 67.5t-47 67.5t-178 14.5h-106v-164z" />
<glyph horiz-adv-x="1114" d="M16 840v336h1080v-336h-336v-840h-111q12 -14 26.5 -35t33 -68t18.5 -90q0 -105 -73 -154.5t-185 -49.5q-118 0 -199 49l78 192q45 -22 92 -22q84 0 84 59q0 48 -51 119h-115v840h-342z" />
<glyph horiz-adv-x="1114" d="M16 840v336h1080v-336h-336v-840h-402v840h-342zM139 1544h281l137 -129l137 129h281l-230 -297h-376z" />
<glyph horiz-adv-x="1128" d="M23 840v336h1079v-336h-336v-310h141v-211h-141v-319h-401v319h-142v211h142v310h-342z" />
<glyph horiz-adv-x="931" d="M51 233q0 57 8 104t33 96t66.5 82.5t113 55t168.5 21.5q89 0 159.5 -17.5t113.5 -44.5t71 -63.5t39 -71t11 -69.5q0 -37 -13 -70.5t-26 -47.5l-13 -15q-34 -5 -66 -20t-32 -32q0 -14 23.5 -25t64.5 -28t70 -39q80 -63 80 -155q0 -90 -69 -153t-189 -63q-140 0 -304 80 l97 174q105 -51 166 -51q20 0 20 8q0 9 -29 15q-19 4 -37.5 10.5t-48.5 22.5t-51.5 37t-38 57t-16.5 80q0 139 145 200v2q0 28 -26 49t-88 21q-70 0 -96.5 -37.5t-26.5 -132.5v-520h-279v540z" />
<glyph horiz-adv-x="931" d="M51 788v541q0 57 8 104t33 96t66.5 82.5t113 55t168.5 21.5q89 0 159.5 -17.5t113.5 -45t71 -64t39 -71t11 -69.5q0 -37 -13 -70.5t-26 -48.5l-13 -14q-35 -5 -66.5 -19.5t-31.5 -31.5q0 -14 23.5 -25t64.5 -28t70 -39q80 -63 80 -156q0 -90 -68.5 -152.5t-189.5 -62.5 q-140 0 -304 80l97 174q105 -51 166 -51q20 0 20 8t-29 14q-19 4 -37.5 10.5t-48.5 22.5t-51.5 37t-38 57t-16.5 80q0 37 11.5 69t27 52.5t37.5 38t37.5 26t31.5 15.5v2q0 28 -26 49t-88 21q-70 0 -96.5 -37.5t-26.5 -132.5v-521h-279z" />
<glyph horiz-adv-x="835" d="M25 14q0 159 72 248.5t198 89.5q116 0 211 -69v55h278v-602q0 -153 -77.5 -229t-255.5 -76q-208 0 -398 41l53 206q61 -13 148 -25.5t131 -12.5q74 0 97.5 18.5t23.5 62.5v25q-98 -68 -211 -68q-126 0 -198 89.5t-72 246.5zM305 16q0 -118 86 -118q67 0 115 53v127 q-50 55 -115 55q-86 0 -86 -117z" />
<glyph horiz-adv-x="1114" d="M16 840v336h1080v-336h-336v-840h-402v840h-342z" />
<glyph horiz-adv-x="854" d="M14 905l127 201q65 -34 164 -65t162 -31q72 0 72 22q0 21 -37 31.5t-116.5 26t-143.5 40.5q-83 30 -145 93.5t-62 156.5q0 123 91 203t265 80q222 0 428 -100l-127 -205q-62 25 -142.5 47t-135.5 22q-76 0 -76 -24q0 -21 35.5 -31.5t115.5 -27t146 -41.5 q209 -84 209 -244q0 -123 -93 -204t-268 -81q-131 0 -257.5 39t-211.5 92z" />
<glyph horiz-adv-x="1327" d="M84 537v639h399v-680q0 -85 38 -131t143 -46q104 0 141 45.5t37 131.5v680h399v-639q0 -100 -13 -176.5t-50.5 -150.5t-100 -122t-167 -77t-246.5 -29q-119 0 -212 19t-155.5 57t-105 86t-65.5 113.5t-32.5 131.5t-9.5 148zM283 1530h245q0 -30 35.5 -50t95.5 -20 q63 0 100.5 20t37.5 50h245q0 -133 -100.5 -208t-282.5 -75q-178 0 -277 75t-99 208z" />
<glyph horiz-adv-x="835" d="M25 1110q0 159 72 248.5t198 89.5q115 0 211 -70v56h278v-603q0 -153 -77.5 -229t-255.5 -76q-208 0 -398 41l53 207q180 -39 279 -39q74 0 97.5 18.5t23.5 63.5v25q-98 -68 -211 -68q-126 0 -198 89.5t-72 246.5zM305 1112q0 -119 86 -119q66 0 115 54v127 q-50 55 -115 55q-86 0 -86 -117z" />
<glyph horiz-adv-x="854" d="M14 -190l127 200q65 -34 164 -65t162 -31q31 0 51.5 6.5t20.5 16.5q0 21 -37 31.5t-116.5 26t-143.5 40.5q-83 30 -145 93.5t-62 156.5q0 123 91 202.5t265 79.5q222 0 428 -100l-127 -205q-63 26 -143 48t-135 22q-76 0 -76 -25q0 -21 35.5 -31.5t115.5 -27t146 -41.5 q209 -84 209 -244q0 -123 -93 -204t-268 -81q-131 0 -257.5 39.5t-211.5 92.5z" />
<glyph horiz-adv-x="1204" d="M31 160l174 280q92 -49 227.5 -91t226.5 -42q95 0 95 31q0 26 -55 40.5t-165.5 37t-193.5 55.5q-283 113 -283 344q0 78 30.5 145t90.5 120t158 83.5t223 30.5q150 0 307 -38.5t281 -98.5l-178 -287q-239 96 -394 96q-94 0 -94 -30q0 -26 53 -40.5t162 -37t193 -56.5 q43 -17 78 -34.5t76.5 -47.5t69 -64t46.5 -83.5t19 -107.5q0 -77 -31 -145t-91.5 -121.5t-159 -85t-224.5 -31.5q-174 0 -350.5 54t-290.5 124zM477 -563l127 166h-125v293h287l12 -332l-229 -219z" />
<glyph horiz-adv-x="389" d="M27 1649h338l-86 -555h-166zM61 788v246h273v-246h-273z" />
<glyph horiz-adv-x="389" d="M27 553h338l-86 -555h-166zM61 -61h273v-246h-273v246z" />
<glyph horiz-adv-x="1204" d="M31 160l174 280q92 -49 227.5 -91t226.5 -42q95 0 95 31q0 26 -55 40.5t-165.5 37t-193.5 55.5q-283 113 -283 344q0 78 30.5 145t90.5 120t158 83.5t223 30.5q150 0 307 -38.5t281 -98.5l-178 -287q-239 96 -394 96q-94 0 -94 -30q0 -26 53 -40.5t162 -37t193 -56.5 q43 -17 78 -34.5t76.5 -47.5t69 -64t46.5 -83.5t19 -107.5q0 -77 -31 -145t-91.5 -121.5t-159 -85t-224.5 -31.5q-174 0 -350.5 54t-290.5 124zM188 1247l230 297h377l229 -297h-281l-137 129l-137 -129h-281z" />
<glyph horiz-adv-x="1204" d="M31 160l174 280q92 -49 227.5 -91t226.5 -42q95 0 95 31q0 26 -55 40.5t-165.5 37t-193.5 55.5q-283 113 -283 344q0 78 30.5 145t90.5 120t158 83.5t223 30.5q150 0 307 -38.5t281 -98.5l-178 -287q-239 96 -394 96q-94 0 -94 -30q0 -26 53 -40.5t162 -37t193 -56.5 q43 -17 78 -34.5t76.5 -47.5t69 -64t46.5 -83.5t19 -107.5q0 -144 -104.5 -249.5t-301.5 -127.5q68 -92 68 -181q0 -105 -73 -154.5t-185 -49.5q-118 0 -199 49l78 192q45 -22 92 -22q84 0 84 59q0 41 -41 105q-158 10 -311 60.5t-254 113.5z" />
<glyph horiz-adv-x="833" d="M51 -307v895h279v-309q110 73 243 73q213 0 213 -211v-448h-278v381q0 34 -11.5 50.5t-43.5 16.5q-69 0 -123 -51v-397h-279z" />
<glyph horiz-adv-x="1204" d="M31 160l174 280q92 -49 227.5 -91t226.5 -42q95 0 95 31q0 26 -55 40.5t-165.5 37t-193.5 55.5q-283 113 -283 344q0 78 30.5 145t90.5 120t158 83.5t223 30.5q150 0 307 -38.5t281 -98.5l-178 -287q-239 96 -394 96q-94 0 -94 -30q0 -26 53 -40.5t162 -37t193 -56.5 q43 -17 78 -34.5t76.5 -47.5t69 -64t46.5 -83.5t19 -107.5q0 -77 -31 -145t-91.5 -121.5t-159 -85t-224.5 -31.5q-174 0 -350.5 54t-290.5 124zM186 1544h281l137 -129l137 129h281l-229 -297h-377z" />
<glyph horiz-adv-x="389" d="M27 788l86 555h166l86 -555h-338zM57 1403v246h273v-246h-273z" />
<glyph horiz-adv-x="1204" d="M31 160l174 280q92 -49 227.5 -91t226.5 -42q95 0 95 31q0 26 -55 40.5t-165.5 37t-193.5 55.5q-283 113 -283 344q0 78 30.5 145t90.5 120t158 83.5t223 30.5q150 0 307 -38.5t281 -98.5l-178 -287q-239 96 -394 96q-94 0 -94 -30q0 -26 53 -40.5t162 -37t193 -56.5 q43 -17 78 -34.5t76.5 -47.5t69 -64t46.5 -83.5t19 -107.5q0 -77 -31 -145t-91.5 -121.5t-159 -85t-224.5 -31.5q-174 0 -350.5 54t-290.5 124zM350 1247l260 297h443l-363 -297h-340z" />
<glyph horiz-adv-x="1204" d="M31 160l174 280q92 -49 227.5 -91t226.5 -42q95 0 95 31q0 26 -55 40.5t-165.5 37t-193.5 55.5q-283 113 -283 344q0 78 30.5 145t90.5 120t158 83.5t223 30.5q150 0 307 -38.5t281 -98.5l-178 -287q-239 96 -394 96q-94 0 -94 -30q0 -26 53 -40.5t162 -37t193 -56.5 q43 -17 78 -34.5t76.5 -47.5t69 -64t46.5 -83.5t19 -107.5q0 -77 -31 -145t-91.5 -121.5t-159 -85t-224.5 -31.5q-174 0 -350.5 54t-290.5 124z" />
<glyph horiz-adv-x="937" d="M66 788v861h454q205 0 298 -71.5t93 -213.5q0 -103 -48.5 -168t-153.5 -94l204 -314h-309l-176 293h-76v-293h-286zM352 1300h148q62 0 92.5 12.5t30.5 51.5q0 41 -30 53.5t-93 12.5h-148v-130z" />
<glyph horiz-adv-x="937" d="M66 -307v860h454q205 0 298 -71.5t93 -213.5q0 -103 -48.5 -168t-153.5 -94l204 -313h-309l-176 293h-76v-293h-286zM352 205h148q63 0 93 12t30 51q0 41 -30 53.5t-93 12.5h-148v-129z" />
<glyph horiz-adv-x="1325" d="M98 0v1176h631q284 0 412.5 -98.5t128.5 -291.5q0 -285 -277 -360l279 -426h-430l-242 397h-102v-397h-400zM498 702h202q33 0 54.5 1t45.5 6t37 13.5t22 24.5t9 39q0 52 -42 68t-128 16h-200v-168zM504 -563l127 166h-125v293h287l12 -332l-230 -219z" />
<glyph horiz-adv-x="1325" d="M98 0v1176h631q284 0 412.5 -98.5t128.5 -291.5q0 -285 -277 -360l279 -426h-430l-242 397h-102v-397h-400zM268 1544h281l137 -129l137 129h281l-230 -297h-376zM498 702h202q33 0 54.5 1t45.5 6t37 13.5t22 24.5t9 39q0 52 -42 68t-128 16h-200v-168z" />
<glyph horiz-adv-x="1325" d="M98 0v1176h631q284 0 412.5 -98.5t128.5 -291.5q0 -285 -277 -360l279 -426h-430l-242 397h-102v-397h-400zM428 1247l260 297h442l-362 -297h-340zM498 702h202q33 0 54.5 1t45.5 6t37 13.5t22 24.5t9 39q0 52 -42 68t-128 16h-200v-168z" />
<glyph horiz-adv-x="382" d="M49 385v201h287v-201h-287zM53 -307v645h279v-645h-279z" />
<glyph horiz-adv-x="1325" d="M98 0v1176h631q284 0 412.5 -98.5t128.5 -291.5q0 -285 -277 -360l279 -426h-430l-242 397h-102v-397h-400zM498 702h202q33 0 54.5 1t45.5 6t37 13.5t22 24.5t9 39q0 52 -42 68t-128 16h-200v-168z" />
<glyph horiz-adv-x="1013" d="M31 1219q0 96 27.5 175t83.5 140t149.5 95t216.5 34t215.5 -34t148.5 -95t83.5 -140t27.5 -175q0 -260 -184 -373l133 -98l-187 -193l-237 219q-123 0 -216.5 34t-149.5 95t-83.5 140.5t-27.5 175.5zM326 1219q0 -201 182 -201q180 0 180 201q0 200 -180 200 q-182 0 -182 -200z" />
<glyph horiz-adv-x="389" d="M27 -307l86 555h166l86 -555h-338zM57 307v246h273v-246h-273z" />
<glyph horiz-adv-x="577" d="M53 0l121 756h227l121 -756h-469zM100 834v342h377v-342h-377z" />
<glyph horiz-adv-x="1013" d="M31 123q0 96 27.5 175t83.5 140t149.5 95t216.5 34t215.5 -34t148.5 -95t83.5 -140t27.5 -175q0 -260 -184 -373l133 -98l-187 -193l-237 219q-123 0 -216.5 34t-149.5 95t-83.5 140.5t-27.5 175.5zM326 123q0 -201 182 -201q180 0 180 201t-180 201q-182 0 -182 -201z " />
<glyph horiz-adv-x="1327" d="M84 537v639h399v-680q0 -85 38 -131t143 -46q104 0 141 45.5t37 131.5v680h399v-639q0 -100 -13 -176.5t-50.5 -150.5t-100 -122t-167 -77t-246.5 -29q-119 0 -212 19t-155.5 57t-105 86t-65.5 113.5t-32.5 131.5t-9.5 148zM246 1247l229 297h377l229 -297h-280l-137 129 l-138 -129h-280z" />
<glyph horiz-adv-x="1415" d="M47 588q0 131 38.5 239t116 191t206.5 129.5t299 46.5t299 -46.5t206.5 -129.5t115.5 -191t38 -239q0 -167 -63 -299t-191 -209l182 -133l-262 -269l-325 304q-170 0 -299 46.5t-206.5 129.5t-116 191t-38.5 239zM457 588q0 -127 60.5 -198t189.5 -71q247 0 247 269 q0 268 -247 268q-129 0 -189.5 -70.5t-60.5 -197.5z" />
<glyph horiz-adv-x="892" d="M66 788v861h430q389 0 389 -299q0 -295 -389 -295h-142v-267h-288zM354 1286h119q60 0 90.5 13t30.5 51q0 39 -29.5 51t-91.5 12h-119v-127z" />
<glyph horiz-adv-x="892" d="M66 -307v860h430q389 0 389 -299q0 -295 -389 -295h-142v-266h-288zM354 190h119q60 0 90.5 13t30.5 51q0 39 -29.5 51t-91.5 12h-119v-127z" />
<glyph horiz-adv-x="393" d="M-86 -410q57 19 86.5 31.5t44 32t16.5 34.5t2 52v598h279v-574q0 -65 -1.5 -95t-11 -75t-30 -67t-58 -49.5t-96.5 -46t-143 -35.5zM57 385v201h289v-201h-289z" />
<glyph horiz-adv-x="577" d="M53 1176h469l-121 -756h-227zM98 0v342h377v-342h-377z" />
<glyph horiz-adv-x="1253" d="M98 0v1176h594q278 0 409.5 -108t131.5 -302t-131 -300t-410 -106h-194v-360h-400zM498 684h164q33 0 55 1.5t45 6t36.5 13.5t22 24t8.5 37t-8.5 37t-22 24t-36.5 13.5t-45 6t-55 1.5h-164v-164z" />
<glyph horiz-adv-x="1413" d="M47 588q0 131 38.5 239t116 191t206.5 129.5t299 46.5t299 -46.5t206.5 -129.5t115.5 -191t38 -239t-38 -239t-115.5 -191t-206.5 -129.5t-299 -46.5t-299 46.5t-206.5 129.5t-116 191t-38.5 239zM276 1337q60 117 90 156q73 98 175 98q51 0 114 -24t116.5 -48t80.5 -24 q55 0 109 94l174 -88q-19 -39 -26 -52.5t-27 -48.5t-32 -50t-34 -39.5t-42 -35t-47 -19.5t-57 -9q-51 0 -114 24t-116.5 48t-80.5 24q-16 0 -29 -5t-34.5 -27t-44.5 -62zM457 588q0 -127 60.5 -198t189.5 -71q247 0 247 269q0 268 -247 268q-129 0 -189.5 -70.5 t-60.5 -197.5z" />
<glyph horiz-adv-x="1013" d="M33 1219q0 96 27.5 175t83.5 140t149.5 95t216.5 34t215.5 -34t148.5 -95t83.5 -140t27.5 -175t-27.5 -175.5t-83.5 -140.5t-148.5 -95t-215.5 -34t-216.5 34t-149.5 95t-83.5 140.5t-27.5 175.5zM328 1219q0 -201 182 -201q180 0 180 201q0 200 -180 200 q-182 0 -182 -200z" />
<glyph horiz-adv-x="804" d="M53 -309v895h277v-430l137 180h321l-225 -250l264 -395h-299l-133 209l-65 -72v-137h-277z" />
<glyph horiz-adv-x="804" d="M53 788v895h277v-430l137 181h321l-225 -250l264 -396h-299l-133 209l-65 -73v-136h-277z" />
<glyph horiz-adv-x="1413" d="M47 588q0 131 38.5 239t116 191t206.5 129.5t299 46.5q197 0 337 -64l39 46h263l-136 -158q156 -160 156 -430q0 -131 -38 -239t-115.5 -191t-206.5 -129.5t-299 -46.5q-195 0 -336 61l-37 -43h-262l133 154q-158 161 -158 434zM453 1247l260 297h442l-362 -297h-340z M457 588q0 -65 16 -121l326 377q-41 12 -92 12q-129 0 -189.5 -70.5t-60.5 -197.5zM616 330q37 -11 91 -11q247 0 247 269q0 61 -16 114z" />
<glyph horiz-adv-x="1327" d="M84 537v639h399v-680q0 -85 38 -131t143 -46q104 0 141 45.5t37 131.5v680h399v-639q0 -100 -13 -176.5t-50.5 -150.5t-100 -122t-167 -77t-246.5 -29q-119 0 -212 19t-155.5 57t-105 86t-65.5 113.5t-32.5 131.5t-9.5 148zM313 1268v280h305v-280h-305zM711 1268v280 h305v-280h-305z" />
<glyph horiz-adv-x="1413" d="M47 588q0 131 38.5 239t116 191t206.5 129.5t299 46.5t299 -46.5t206.5 -129.5t115.5 -191t38 -239t-38 -239t-115.5 -191t-206.5 -129.5t-299 -46.5t-299 46.5t-206.5 129.5t-116 191t-38.5 239zM377 1298v234h659v-234h-659zM457 588q0 -127 60.5 -198t189.5 -71 q247 0 247 269q0 268 -247 268q-129 0 -189.5 -70.5t-60.5 -197.5z" />
<glyph horiz-adv-x="1013" d="M33 123q0 96 27.5 175t83.5 140t149.5 95t216.5 34t215.5 -34t148.5 -95t83.5 -140t27.5 -175t-27.5 -175.5t-83.5 -140.5t-148.5 -95t-215.5 -34t-216.5 34t-149.5 95t-83.5 140.5t-27.5 175.5zM328 123q0 -201 182 -201q180 0 180 201t-180 201q-182 0 -182 -201z" />
<glyph horiz-adv-x="1413" d="M47 588q0 131 38.5 239t116 191t206.5 129.5t299 46.5t299 -46.5t206.5 -129.5t115.5 -191t38 -239t-38 -239t-115.5 -191t-206.5 -129.5t-299 -46.5t-299 46.5t-206.5 129.5t-116 191t-38.5 239zM346 1247l172 297h346l-272 -297h-246zM457 588q0 -127 60.5 -198 t189.5 -71q247 0 247 269q0 268 -247 268q-129 0 -189.5 -70.5t-60.5 -197.5zM758 1247l170 297h348l-275 -297h-243z" />
<glyph horiz-adv-x="1413" d="M47 588q0 131 38.5 239t116 191t206.5 129.5t299 46.5t299 -46.5t206.5 -129.5t115.5 -191t38 -239t-38 -239t-115.5 -191t-206.5 -129.5t-299 -46.5t-299 46.5t-206.5 129.5t-116 191t-38.5 239zM262 1544h443l260 -297h-340zM457 588q0 -127 60.5 -198t189.5 -71 q247 0 247 269q0 268 -247 268q-129 0 -189.5 -70.5t-60.5 -197.5z" />
<glyph horiz-adv-x="1327" d="M84 537v639h399v-680q0 -85 38 -131t143 -46q104 0 141 45.5t37 131.5v680h399v-639q0 -100 -13 -176.5t-50.5 -150.5t-100 -122t-167 -77t-246.5 -29q-119 0 -212 19t-155.5 57t-105 86t-65.5 113.5t-32.5 131.5t-9.5 148zM217 1544h442l261 -297h-340z" />
<glyph horiz-adv-x="378" d="M51 -307v895h279v-895h-279z" />
<glyph horiz-adv-x="1327" d="M84 537v639h399v-680q0 -85 38 -131t143 -46q104 0 141 45.5t37 131.5v680h399v-639q0 -100 -13 -176.5t-50.5 -150.5t-100 -122t-167 -77t-246.5 -29q-119 0 -212 19t-155.5 57t-105 86t-65.5 113.5t-32.5 131.5t-9.5 148zM301 1247l172 297h346l-272 -297h-246z M713 1247l170 297h348l-275 -297h-243z" />
<glyph horiz-adv-x="1097" d="M72 0v262q6 0 17 1t40 7.5t53.5 17t50 32.5t37.5 51h-178v155h166q-1 2 -8.5 16.5t-11.5 22.5h-146v158h53q-36 74 -36 166q0 146 106 225.5t301 79.5q86 0 166.5 -16t152.5 -47t113 -53.5t99 -57.5l-168 -250q-171 96 -277 96q-48 0 -69 -9.5t-21 -33.5q0 -38 41 -100 h358v-158h-270l10 -39h260v-155h-286q-18 -26 -58 -43h461v-328h-956z" />
<glyph horiz-adv-x="784" d="M49 -119q5 0 13 1t30 6.5t40 14t37 26t28 40.5h-136v105h125q-3 9 -16 35h-109v106h48q-31 64 -31 129q0 106 77 164.5t216 58.5q63 0 121 -11.5t110.5 -35t80 -38.5t71.5 -42l-121 -178q-126 70 -201 70q-65 0 -65 -35q0 -27 34 -82h256v-106h-196q4 -13 8 -35h188v-105 h-200q-16 -26 -49 -41h333v-235h-692v188z" />
<glyph horiz-adv-x="784" d="M49 788v189q5 0 13 1t30 6.5t40 14t37 26t28 40.5h-136v104h125q-3 9 -16 35h-109v107h48q-31 64 -31 129q0 106 77 164.5t216 58.5q63 0 121 -11.5t110.5 -35t80 -38.5t71.5 -42l-121 -178q-124 69 -201 69q-65 0 -65 -34q0 -27 34 -82h256v-107h-196q4 -13 8 -35h188 v-104h-200q-16 -26 -49 -41h333v-236h-692z" />
<glyph horiz-adv-x="1413" d="M47 588q0 131 38.5 239t116 191t206.5 129.5t299 46.5t299 -46.5t206.5 -129.5t115.5 -191t38 -239t-38 -239t-115.5 -191t-206.5 -129.5t-299 -46.5t-299 46.5t-206.5 129.5t-116 191t-38.5 239zM356 1268v280h306v-280h-306zM457 588q0 -127 60.5 -198t189.5 -71 q247 0 247 269q0 268 -247 268q-129 0 -189.5 -70.5t-60.5 -197.5zM754 1268v280h305v-280h-305z" />
<glyph horiz-adv-x="1413" d="M47 588q0 131 38.5 239t116 191t206.5 129.5t299 46.5t299 -46.5t206.5 -129.5t115.5 -191t38 -239t-38 -239t-115.5 -191t-206.5 -129.5t-299 -46.5t-299 46.5t-206.5 129.5t-116 191t-38.5 239zM289 1247l229 297h377l229 -297h-280l-137 129l-138 -129h-280zM457 588 q0 -127 60.5 -198t189.5 -71q247 0 247 269q0 268 -247 268q-129 0 -189.5 -70.5t-60.5 -197.5z" />
<glyph horiz-adv-x="950" d="M57 84v469h289v-500q0 -64 27 -97.5t104 -33.5q75 0 102 34t27 97v500h289v-469q0 -73 -9.5 -128.5t-36.5 -110t-72.5 -89.5t-121 -56.5t-178.5 -21.5t-179 21.5t-121.5 56.5t-73 89t-37 110.5t-9.5 128.5z" />
<glyph horiz-adv-x="1413" d="M47 588q0 131 38.5 239t116 191t206.5 129.5t299 46.5t299 -46.5t206.5 -129.5t115.5 -191t38 -239t-38 -239t-115.5 -191t-206.5 -129.5t-299 -46.5t-299 46.5t-206.5 129.5t-116 191t-38.5 239zM328 1530h245q0 -30 36 -50t96 -20q63 0 100 20t37 50h245 q0 -133 -100 -208t-282 -75q-178 0 -277.5 75.5t-99.5 207.5zM457 588q0 -127 60.5 -198t189.5 -71q247 0 247 269q0 268 -247 268q-129 0 -189.5 -70.5t-60.5 -197.5z" />
<glyph horiz-adv-x="1327" d="M84 537v639h399v-680q0 -85 38 -131t143 -46q104 0 141 45.5t37 131.5v680h399v-639q0 -100 -13 -176.5t-50.5 -150.5t-100 -122t-167 -77t-246.5 -29q-119 0 -212 19t-155.5 57t-105 86t-65.5 113.5t-32.5 131.5t-9.5 148zM334 1298v234h659v-234h-659z" />
<glyph horiz-adv-x="1413" d="M47 588q0 131 38.5 239t116 191t206.5 129.5t299 46.5t299 -46.5t206.5 -129.5t115.5 -191t38 -239t-38 -239t-115.5 -191t-206.5 -129.5t-299 -46.5t-299 46.5t-206.5 129.5t-116 191t-38.5 239zM453 1247l260 297h442l-362 -297h-340zM457 588q0 -127 60.5 -198 t189.5 -71q247 0 247 269q0 268 -247 268q-129 0 -189.5 -70.5t-60.5 -197.5z" />
<glyph horiz-adv-x="2013" d="M47 588q0 131 38.5 239t116 191t206.5 129.5t299 46.5q127 0 249 -33v15h981v-328h-581v-96h471v-326h-471v-98h590v-328h-990v12q-123 -30 -249 -30q-170 0 -299 46.5t-206.5 129.5t-116 191t-38.5 239zM457 588q0 -127 60.5 -198t189.5 -71q247 0 247 269 q0 268 -247 268q-129 0 -189.5 -70.5t-60.5 -197.5z" />
<glyph horiz-adv-x="1224" d="M51 -307v645h279v-66q96 80 213 80q147 0 192 -96q40 38 102.5 67t129.5 29q213 0 213 -211v-448h-279v381q0 25 -2 37t-13 21t-32 9q-47 0 -98 -47v-401h-279v381q0 35 -9 51t-40 16q-53 0 -98 -49v-399h-279z" />
<glyph horiz-adv-x="1331" d="M84 537v639h399v-680q0 -85 38 -131t143 -46q104 0 141 45.5t37 131.5v680h399v-639q0 -82 -9 -148t-33.5 -132t-64.5 -114t-105.5 -86t-154.5 -57q-186 -105 -186 -188q0 -19 9 -32t21 -19t32 -9t32.5 -3t31.5 0.5t22 0.5l-35 -170q-2 0 -24.5 -0.5t-37.5 -0.5t-44 2 t-50 5t-50 10t-49.5 16.5t-43 24.5t-36.5 33.5t-23 45t-9 57.5q0 121 166 211q-126 6 -219 37.5t-149.5 80t-90 120t-45.5 146t-12 169.5z" />
<glyph horiz-adv-x="759" d="M23 12q0 159 94.5 249.5t271.5 90.5q173 0 262.5 -80.5t89.5 -212.5q0 -25 -3 -49.5t-6 -36.5l-3 -12h-424q8 -44 31 -63t70 -19q99 0 245 51l94 -168q-201 -84 -370 -84q-76 0 -138.5 19t-111 58t-75.5 104.5t-27 152.5zM309 96h164q-7 66 -84 66q-65 0 -80 -66z" />
<glyph horiz-adv-x="1413" d="M47 588q0 131 38.5 239t116 191t206.5 129.5t299 46.5t299 -46.5t206.5 -129.5t115.5 -191t38 -239t-38 -239t-115.5 -191t-206.5 -129.5t-299 -46.5t-299 46.5t-206.5 129.5t-116 191t-38.5 239zM457 588q0 -127 60.5 -198t189.5 -71q247 0 247 269q0 268 -247 268 q-129 0 -189.5 -70.5t-60.5 -197.5z" />
<glyph horiz-adv-x="1378" d="M98 0v1176h406l375 -605v605h399v-1176h-404l-376 606v-606h-400zM268 1337q60 117 88 154q73 100 176 100q51 0 114.5 -24t117 -48t80.5 -24q16 0 29 5t34.5 27t44.5 62l174 -88q-60 -120 -94 -164q-71 -90 -170 -90q-51 0 -114 24t-116.5 48t-80.5 24q-55 0 -109 -94z " />
<glyph horiz-adv-x="983" d="M66 788v861h290l275 -439v439h291v-861h-295l-273 439v-439h-288z" />
<glyph horiz-adv-x="983" d="M66 -307v860h290l275 -438v438h291v-860h-295l-273 438v-438h-288z" />
<glyph horiz-adv-x="1378" d="M98 0v1176h406l375 -605v605h399v-1176h-404l-376 606v-606h-400zM541 -563l127 166h-125v293h286l13 -332l-230 -219z" />
<glyph horiz-adv-x="1378" d="M98 0v1176h406l375 -605v605h399v-1176h-404l-376 606v-606h-400zM281 1544h280l137 -129l138 129h280l-229 -297h-377z" />
<glyph horiz-adv-x="1378" d="M98 0v1176h406l375 -605v605h399v-1176h-404l-376 606v-606h-400zM434 1247l260 297h443l-363 -297h-340z" />
<glyph horiz-adv-x="1378" d="M98 0v1176h406l375 -605v605h399v-1176h-404l-376 606v-606h-400z" />
<glyph horiz-adv-x="882" d="M37 565q0 131 103.5 220t279.5 89q106 0 188 -31t130.5 -84.5t73 -119.5t24.5 -141q0 -224 -163 -368t-429 -144q-40 0 -77.5 3.5t-54.5 6.5l-18 4l66 221q37 -6 84 -6q185 0 258 121q-72 -37 -170 -37q-127 0 -211 71.5t-84 194.5zM324 578q0 -34 29 -52t77 -18 q65 0 117 33q-4 104 -119 104q-54 0 -79 -20.5t-25 -46.5z" />
<glyph horiz-adv-x="1386" d="M45 399q0 139 80 230.5t217 156.5q-203 132 -203 312q0 160 143.5 259t409.5 99q267 0 411 -99t144 -259q0 -180 -205 -312q65 -31 115 -65t93.5 -80.5t67 -107.5t23.5 -134q0 -196 -167.5 -309t-481.5 -113q-313 0 -480 113t-167 309zM485 436q0 -57 57 -96t150 -39 q94 0 151.5 39t57.5 96q0 58 -54 101.5t-155 85.5q-100 -42 -153.5 -85.5t-53.5 -101.5zM563 1055q0 -75 129 -131q131 56 131 131q0 31 -34 60.5t-97 29.5q-62 0 -95.5 -29.5t-33.5 -60.5z" />
<glyph horiz-adv-x="1327" d="M33 684q0 104 41.5 196.5t117 162t190.5 110.5t253 41q133 0 242.5 -34t184.5 -92.5t126 -138.5t74.5 -169.5t23.5 -188.5q0 -187 -67.5 -346t-188 -271.5t-294 -175.5t-378.5 -63q-63 0 -121.5 6t-86.5 11l-27 6l100 338q59 -10 133 -10q319 0 432 247 q-124 -73 -288 -73q-202 0 -334.5 121t-132.5 323zM469 702q0 -67 49.5 -106t130.5 -39q117 0 197 76q-1 50 -15.5 89t-35.5 61.5t-48.5 36.5t-51.5 19t-48 5q-91 0 -134.5 -43t-43.5 -99z" />
<glyph horiz-adv-x="911" d="M41 815q0 57 26.5 103t64 74.5t91.5 54.5q-123 79 -123 184q0 96 92.5 156.5t264.5 60.5q171 0 262.5 -60.5t91.5 -156.5q0 -103 -123 -184q54 -26 91.5 -54.5t64 -74.5t26.5 -103q0 -118 -106.5 -187t-306.5 -69q-202 0 -309 69t-107 187zM332 842q0 -29 34.5 -49.5 t90.5 -20.5q55 0 88 20.5t33 49.5q0 28 -31 50.5t-92 47.5q-62 -26 -92.5 -47.5t-30.5 -50.5zM381 1202q0 -38 74 -67q75 28 75 67q0 12 -19 26.5t-54 14.5q-26 0 -44.5 -8t-25 -17t-6.5 -16z" />
<glyph horiz-adv-x="911" d="M41 242q0 82 48.5 136t133.5 95q-123 79 -123 184q0 96 92.5 156.5t264.5 60.5q171 0 262.5 -60.5t91.5 -156.5q0 -103 -123 -184q85 -41 133.5 -95t48.5 -136q0 -118 -106.5 -187t-306.5 -69q-202 0 -309 69t-107 187zM332 268q0 -29 34 -49t91 -20q55 0 88 20t33 49 q0 28 -31.5 51t-91.5 48q-62 -26 -92.5 -47.5t-30.5 -51.5zM381 629q0 -39 74 -68q75 28 75 68q0 12 -19 26.5t-54 14.5q-26 0 -44.5 -8t-25 -17t-6.5 -16z" />
<glyph horiz-adv-x="1327" d="M84 537v639h399v-680q0 -85 38 -131t143 -46q104 0 141 45.5t37 131.5v680h399v-639q0 -100 -13 -176.5t-50.5 -150.5t-100 -122t-167 -77t-246.5 -29q-119 0 -212 19t-155.5 57t-105 86t-65.5 113.5t-32.5 131.5t-9.5 148zM416 1473q0 101 72.5 173t173.5 72t173 -72 t72 -173t-72 -173.5t-173 -72.5t-173.5 72.5t-72.5 173.5zM602 1473q0 -25 17.5 -42.5t42.5 -17.5t42 17.5t17 42.5t-17 42t-42 17t-42.5 -17t-17.5 -42z" />
<glyph horiz-adv-x="833" d="M51 -307v645h279v-59q110 73 243 73q213 0 213 -211v-448h-278v381q0 34 -11.5 50.5t-43.5 16.5q-69 0 -123 -51v-397h-279z" />
<glyph horiz-adv-x="950" d="M57 1180v469h289v-500q0 -64 27 -97.5t104 -33.5q75 0 102 34t27 97v500h289v-469q0 -73 -9.5 -128.5t-36.5 -110t-72.5 -89.5t-121 -56.5t-178.5 -21.5t-179 21.5t-121.5 56.5t-73 89t-37 110.5t-9.5 128.5z" />
<glyph horiz-adv-x="1327" d="M84 537v639h399v-680q0 -85 38 -131t143 -46q104 0 141 45.5t37 131.5v680h399v-639q0 -100 -13 -176.5t-50.5 -150.5t-100 -122t-167 -77t-246.5 -29q-119 0 -212 19t-155.5 57t-105 86t-65.5 113.5t-32.5 131.5t-9.5 148zM231 1337q60 117 90 156q73 98 175 98 q51 0 114 -24t116.5 -48t80.5 -24q16 0 29 5t34.5 27t44.5 62l175 -88q-19 -39 -26 -52.5t-27 -48.5t-32 -50t-34 -39.5t-42 -35t-47 -19.5t-57 -9q-51 0 -114 24t-116.5 48t-80.5 24q-16 0 -29 -5t-34.5 -27t-44.5 -62z" />
<glyph horiz-adv-x="1126" d="M66 788v861h292l205 -416l207 416h293v-861h-289v420l-135 -276h-150l-135 276v-420h-288z" />
<glyph horiz-adv-x="1126" d="M66 -307v860h292l205 -416l207 416h293v-860h-289v420l-135 -277h-150l-135 277v-420h-288z" />
<glyph horiz-adv-x="1306" d="M53 217v281h213l29 180h-168v283h213l35 215h291l-35 -215h168l35 215h288l-35 -215h168v-283h-213l-28 -180h168v-281h-213l-35 -217h-289l35 217h-170l-35 -217h-289l35 217h-168zM555 498h170l29 180h-170z" />
<glyph horiz-adv-x="935" d="M33 55h153l23 135h-123v205h156l24 158h209l-24 -158h122l25 158h209l-25 -158h121v-205h-153l-23 -135h123v-202h-156l-24 -160h-209l24 160h-123l-24 -160h-209l25 160h-121v202zM395 55h123l23 135h-123z" />
<glyph horiz-adv-x="935" d="M33 948v203h153l23 135h-123v205h156l24 158h209l-24 -158h122l25 158h209l-25 -158h121v-205h-153l-23 -135h123v-203h-156l-24 -160h-209l24 160h-123l-24 -160h-209l25 160h-121zM395 1151h123l23 135h-123z" />
<glyph horiz-adv-x="1574" d="M98 0v1176h408l280 -564l283 564h406v-1176h-400v592l-196 -395h-185l-196 397v-594h-400z" />
<glyph horiz-adv-x="765" d="M66 788v861h288v-621h406v-240h-694z" />
<glyph horiz-adv-x="1112" d="M18 260v340l117 64v512h400v-295l229 125v-342l-229 -125v-203h561v-336h-961v324z" />
<glyph horiz-adv-x="765" d="M66 -307v860h288v-621h406v-239h-694z" />
<glyph horiz-adv-x="1081" d="M98 0v1176h400v-840h561v-336h-961zM688 498v280h305v-280h-305z" />
<glyph horiz-adv-x="1075" d="M98 0v1176h400v-840h561v-336h-961zM418 -563l127 166h-125v293h287l12 -332l-230 -219z" />
<glyph horiz-adv-x="1347" d="M-2 1176h467l207 -711l209 711h467l-455 -1176h-442z" />
<glyph horiz-adv-x="1077" d="M98 0v1176h400v-840h561v-336h-961zM557 717l127 166h-125v293h287l12 -332l-229 -219z" />
<glyph horiz-adv-x="1081" d="M49 1247l260 297h443l-363 -297h-340zM104 0v1176h400v-840h561v-336h-961z" />
<glyph horiz-adv-x="817" d="M23 16q0 162 100 249t287 87q185 0 285 -88t100 -250t-99.5 -249t-285.5 -87t-286.5 88t-100.5 250zM301 16q0 -129 109 -129q106 0 106 127q0 129 -106 129q-109 0 -109 -127z" />
<glyph horiz-adv-x="1075" d="M98 0v1176h400v-840h561v-336h-961z" />
<glyph horiz-adv-x="954" d="M68 788v861h286v-316l264 316h351l-365 -396l367 -465h-340l-205 273l-72 -78v-195h-286z" />
<glyph horiz-adv-x="643" d="M-6 709l276 151h277v-860h-289v602l-152 -76z" />
<glyph horiz-adv-x="643" d="M-6 1282l276 152h277v-861h-289v603l-152 -76z" />
<glyph horiz-adv-x="944" d="M-10 932l430 244h418v-1176h-437v780l-243 -127z" />
<glyph horiz-adv-x="950" d="M-12 553h338l149 -518l152 518h338l-328 -860h-322z" />
<glyph horiz-adv-x="950" d="M-12 1649h338l149 -519l152 519h338l-328 -861h-322z" />
<glyph horiz-adv-x="1673" d="M33 1055l231 121h217v-705h-227v502l-131 -62zM336 0l584 1176h243l-581 -1176h-246zM915 197q0 121 160 190q-110 64 -110 154q0 78 79 127t222 49q142 0 220.5 -49.5t78.5 -126.5q0 -87 -109 -154q160 -70 160 -190q0 -95 -92 -152t-258 -57q-168 0 -259.5 56.5 t-91.5 152.5zM1145 217q0 -27 33 -44t88 -17t89 17t34 44q0 20 -20.5 38t-41.5 27.5t-61 24.5q-61 -24 -91 -43.5t-30 -46.5zM1188 510q0 -32 76 -57q79 27 79 57q0 15 -20 31t-57 16q-36 0 -57 -16t-21 -31z" />
<glyph horiz-adv-x="1673" d="M33 1055l231 121h217v-705h-227v502l-131 -62zM336 0l584 1176h243l-581 -1176h-246zM948 92l99 160q110 -74 210 -74q54 0 86.5 15t32.5 43q0 26 -29.5 44.5t-86.5 18.5q-69 0 -148 -35l-123 80l41 361h545v-183h-354l-4 -57q52 10 98 10q142 0 216.5 -68.5t74.5 -168.5 q0 -106 -81 -178t-235 -72q-169 0 -342 104z" />
<glyph horiz-adv-x="954" d="M68 -307v860h286v-315l264 315h351l-365 -395l367 -465h-340l-205 272l-72 -78v-194h-286z" />
<glyph horiz-adv-x="1656" d="M33 1055l231 121h217v-705h-227v502l-131 -62zM336 0l584 1176h243l-581 -1176h-246zM940 0v84q0 169 242 297q23 12 54.5 28t49 24.5t35.5 19.5t25.5 21.5t7.5 21.5q0 15 -22 25.5t-62 10.5q-80 0 -213 -65l-99 139q178 111 347 111q137 0 208.5 -60.5t71.5 -150.5 q0 -50 -22 -91.5t-64 -72.5t-76.5 -50t-85.5 -40q-120 -49 -120 -68h368v-184h-645z" />
<glyph horiz-adv-x="1828" d="M12 1176h461l129 -629l160 629h305l160 -631l131 631h459l-349 -1176h-385l-170 639l-165 -639h-386z" />
<glyph horiz-adv-x="1341" d="M98 0v1176h400v-431l362 431h488l-502 -539l502 -637h-471l-281 369l-98 -107v-262h-400zM502 -563l127 166h-125v293h287l12 -332l-230 -219z" />
<glyph horiz-adv-x="1654" d="M33 1055l231 121h217v-705h-227v502l-131 -62zM336 0l584 1176h243l-581 -1176h-246zM836 113v151l340 441h303v-408h118v-184h-118v-113h-228v113h-415zM1075 297h176v240z" />
<glyph horiz-adv-x="1617" d="M33 1055l231 121h217v-705h-227v502l-131 -62zM336 0l584 1176h243l-581 -1176h-246zM881 297q0 183 137.5 301.5t359.5 118.5q35 0 67 -3t47 -6l15 -3l-51 -173q-33 7 -76 7q-170 0 -235 -113q72 33 155 33q111 0 183.5 -59t72.5 -158q0 -107 -88 -180.5t-237 -73.5 q-172 0 -261 89t-89 220zM1108 262q1 -53 36 -73.5t81 -20.5q54 0 80 19t26 44q0 30 -29 48t-77 18q-72 0 -117 -35z" />
<glyph horiz-adv-x="1341" d="M98 0v1176h400v-431l362 431h488l-502 -539l502 -637h-471l-281 369l-98 -107v-262h-400z" />
<glyph horiz-adv-x="1828" d="M12 1176h461l129 -629l160 629h305l160 -631l131 631h459l-349 -1176h-385l-170 639l-165 -639h-386zM659 1247l261 297h442l-363 -297h-340z" />
<glyph horiz-adv-x="1658" d="M33 1055l231 121h217v-705h-227v502l-131 -62zM336 0l584 1176h243l-581 -1176h-246zM926 92l98 150q130 -68 240 -68q102 0 102 45q0 10 -4 18t-13 13.5t-18 9.5t-24 6.5t-26.5 3.5t-30 1.5t-29 0.5h-30h-26.5h-32v185h41q103 0 133 12q28 11 28 33q0 30 -73 30 q-93 0 -209 -59l-92 137q144 107 339 107q131 0 197 -49.5t66 -126.5q0 -57 -31 -92.5t-88 -59.5q68 -21 110.5 -68.5t42.5 -107.5q0 -43 -16 -81.5t-49.5 -71.5t-95 -52.5t-144.5 -19.5q-177 0 -366 104z" />
<glyph horiz-adv-x="432" d="M-70 735q56 18 86.5 31.5t44.5 32t16.5 33t2.5 47.5v770h289v-754q0 -77 -3 -111.5t-19.5 -83.5t-52.5 -74t-102 -52t-169 -48z" />
<glyph horiz-adv-x="432" d="M-70 -360q56 18 86.5 31t44.5 32t16.5 33t2.5 47v770h289v-754q0 -65 -1.5 -94.5t-11 -74t-30.5 -66.5t-59.5 -50t-98 -47t-145.5 -36z" />
<glyph horiz-adv-x="632" d="M-102 1247l229 297h377l229 -297h-280l-138 129l-137 -129h-280zM-90 -72q52 17 87 30.5t58.5 29t35.5 26.5t18 32t7 34.5t1 44.5v1051h399v-1029q0 -61 -0.5 -89.5t-4.5 -76.5t-12.5 -70.5t-24.5 -58.5t-40 -55t-59.5 -45.5t-83 -43t-110.5 -34.5t-142 -34z" />
<glyph horiz-adv-x="618" d="M-88 -72q52 17 87 30.5t58.5 29t35.5 26.5t18 32t7 34.5t1 44.5v1051h399v-1029q0 -61 -0.5 -89.5t-4.5 -76.5t-12.5 -70.5t-24.5 -58.5t-40 -55t-59.5 -45.5t-83 -43t-110.5 -34.5t-142 -34z" />
<glyph horiz-adv-x="1245" d="M51 160l174 280q92 -49 228 -91t227 -42q94 0 94 31q0 26 -55 40.5t-165.5 37t-193.5 55.5q-282 112 -282 344q0 148 108 252.5t316 122.5v156h272v-168q221 -38 393 -121l-178 -287q-239 96 -393 96q-94 0 -94 -30q0 -26 52.5 -40.5t161.5 -37t193 -56.5 q43 -17 78 -34.5t76.5 -47.5t69 -64t46.5 -83.5t19 -107.5q0 -70 -26 -133t-77 -115t-133.5 -86.5t-187.5 -44.5v-154h-272v166q-130 22 -250.5 67t-200.5 95z" />
<glyph horiz-adv-x="630" d="M-117 1337q60 117 88 154q73 100 176 100q51 0 114.5 -24t117 -48t80.5 -24q16 0 29 5t34.5 27t44.5 62l174 -88q-60 -120 -94 -164q-71 -90 -170 -90q-51 0 -114 24t-116.5 48t-80.5 24q-55 0 -109 -94zM115 0v1176h399v-1176h-399z" />
<glyph horiz-adv-x="417" d="M66 788v861h288v-861h-288z" />
<glyph horiz-adv-x="618" d="M74 -227q0 131 198 227h-153v1176h399v-1176h-6q-184 -109 -184 -188q0 -19 9 -32t21 -19t31.5 -9t32 -3t31.5 0.5t22 0.5l-35 -170q-2 0 -24.5 -0.5t-37 -0.5t-44 2t-50 5t-50 10t-50 16.5t-42.5 24.5t-36 33.5t-23 45t-9 57.5z" />
<glyph horiz-adv-x="1427" d="M39 721q0 122 41.5 211.5t117 142t170.5 77t212 24.5h315v-1487h-320v573q-85 0 -161 15t-145.5 49.5t-120 86.5t-80 131t-29.5 177zM989 -313v1489h320v-1489h-320z" />
<glyph horiz-adv-x="630" d="M-16 1298v234h659v-234h-659zM115 0v1176h399v-1176h-399z" />
<glyph horiz-adv-x="712" d="M86 270v627q0 55 0.5 81.5t3.5 71.5t9 66t17.5 56t29 52.5t43.5 44t60.5 42t80.5 35t104 34.5t129 29l92 -201q-60 -20 -94.5 -39t-51 -44t-20.5 -47.5t-4 -65.5v-854q0 -43 4 -66t20 -48.5t51 -44t95 -38.5l-92 -201q-71 14 -129 29t-104 34.5t-80.5 35t-60.5 41.5 t-43.5 44t-29 52.5t-17.5 56t-9 66t-3.5 70.5t-0.5 81z" />
<glyph horiz-adv-x="1828" d="M12 1176h461l129 -629l160 629h305l160 -631l131 631h459l-349 -1176h-385l-170 639l-165 -639h-386zM500 1247l229 297h377l229 -297h-280l-137 129l-138 -129h-280z" />
<glyph horiz-adv-x="835" d="M25 14q0 159 72 248.5t198 89.5q116 0 211 -69v305h278v-895h-278v53q-98 -68 -211 -68q-126 0 -198 89.5t-72 246.5zM305 16q0 -118 86 -118q67 0 115 53v127q-50 55 -115 55q-86 0 -86 -117z" />
<glyph horiz-adv-x="417" d="M66 -307v860h288v-860h-288z" />
<glyph horiz-adv-x="712" d="M57 -39q60 20 94.5 39t51 44.5t20.5 48t4 65.5v854q0 43 -4 65.5t-20 48t-51 44t-95 38.5l93 201q71 -14 129 -29t104 -34.5t80.5 -35t60.5 -41.5t43.5 -44t29 -52.5t17.5 -56t9 -66t3.5 -70.5t0.5 -81v-627q0 -55 -0.5 -81.5t-3.5 -71.5t-9 -66t-17.5 -56t-29 -52.5 t-43.5 -44t-60.5 -42t-80.5 -35t-104 -34.5t-129 -29z" />
<glyph horiz-adv-x="1828" d="M12 1176h461l129 -629l160 629h305l160 -631l131 631h459l-349 -1176h-385l-170 639l-165 -639h-386zM565 1268v280h305v-280h-305zM963 1268v280h305v-280h-305z" />
<glyph horiz-adv-x="1828" d="M12 1176h461l129 -629l160 629h305l160 -631l131 631h459l-349 -1176h-385l-170 639l-165 -639h-386zM469 1546h442l260 -297h-340z" />
<glyph horiz-adv-x="1304" d="M0 553h332l92 -453l119 453h221l117 -455l94 455h332l-254 -860h-279l-121 459l-123 -459h-276z" />
<glyph horiz-adv-x="622" d="M-131 1544h442l260 -297h-340zM117 0v1176h399v-1176h-399z" />
<glyph horiz-adv-x="1847" d="M43 879q0 142 96.5 228.5t276.5 86.5q178 0 274 -86.5t96 -228.5t-96 -228t-274 -86q-180 0 -276.5 86t-96.5 228zM315 879q0 -93 101 -93q46 0 72 23.5t26 69.5q0 45 -26.5 69.5t-71.5 24.5q-48 0 -74.5 -24.5t-26.5 -69.5zM459 0l635 1176h288l-637 -1176h-286z M1057 295q0 142 96.5 228.5t276.5 86.5q178 0 274 -86.5t96 -228.5t-96 -227.5t-274 -85.5q-180 0 -276.5 85.5t-96.5 227.5zM1329 295q0 -92 101 -92q46 0 72 23t26 69q0 45 -26.5 69.5t-71.5 24.5q-48 0 -74.5 -24.5t-26.5 -69.5z" />
<glyph horiz-adv-x="1329" d="M29 336q0 108 67.5 169.5t200.5 61.5t201.5 -62t68.5 -169t-68.5 -168.5t-201.5 -61.5t-200.5 61t-67.5 169zM227 336q0 -37 17 -53.5t53 -16.5q38 0 56 16.5t18 53.5q0 72 -74 72q-70 0 -70 -72zM324 -322l467 875h208l-469 -875h-206zM764 -90q0 107 67.5 168t200.5 61 t200.5 -61t67.5 -168q0 -109 -67.5 -170.5t-200.5 -61.5t-200.5 61.5t-67.5 170.5zM961 -90q0 -72 71 -72q37 0 54.5 17t17.5 55q0 70 -72 70q-71 0 -71 -70z" />
<glyph horiz-adv-x="2181" d="M27 772v303h147q11 199 108.5 298.5t295.5 99.5q225 0 485 -93q107 113 323 113q262 0 556 -98l-132 -265q-6 1 -56.5 9t-86.5 13t-84.5 10t-79.5 5q-20 0 -32.5 -1t-31.5 -5.5t-30.5 -13.5t-20 -27t-8.5 -43v-2h719v-979q0 -89 -1.5 -130t-10.5 -106t-29 -96t-56.5 -75 t-93 -70t-138.5 -54t-193 -52l-135 299q61 21 100 36t67 34t41 31.5t20 40t8 45.5t1 62v711h-299v-772h-419v772h-371v-772h-418v772h-145zM590 1075h371l4 55q-217 37 -271 37q-16 0 -27 -1t-27 -5.5t-25.5 -13.5t-17 -27t-7.5 -43v-2z" />
<glyph horiz-adv-x="630" d="M-37 1268v280h305v-280h-305zM115 0v1176h399v-1176h-399zM360 1268v280h306v-280h-306z" />
<glyph horiz-adv-x="630" d="M-104 1247l229 297h377l229 -297h-280l-138 129l-137 -129h-280zM115 0v1176h399v-1176h-399z" />
<glyph horiz-adv-x="1304" d="M0 1649h332l92 -453l119 453h221l117 -455l94 455h332l-254 -861h-279l-121 459l-123 -459h-276z" />
<glyph horiz-adv-x="671" d="M25 1112q0 87 26.5 153.5t72.5 105t102.5 58t121.5 19.5q147 0 330 -76l-107 -203q-103 43 -170 43q-94 0 -94 -100q0 -102 94 -102q67 0 170 43l107 -203q-183 -76 -328 -76q-66 0 -123 19.5t-103 58.5t-72.5 105.5t-26.5 154.5z" />
<glyph horiz-adv-x="1374" d="M51 588q0 128 41 238t117.5 192t193.5 129t261 47q143 0 259 -47t191 -129t115.5 -192t40.5 -238t-40.5 -238t-115.5 -192t-191 -129t-259 -47q-144 0 -261 47t-193.5 129t-117.5 192t-41 238zM121 588q0 -237 143.5 -390t397.5 -153q169 0 293.5 72.5t186.5 194.5 t62 276t-62 275.5t-186.5 194t-293.5 72.5q-170 0 -294.5 -72.5t-185.5 -194t-61 -275.5zM352 586q0 174 85.5 270t213.5 96q60 0 119 -19t91 -37.5t75 -47.5l-53 -60q-35 26 -58 41t-72.5 32.5t-99.5 17.5q-95 0 -154 -80.5t-59 -212.5q0 -130 59 -209.5t154 -79.5 q50 0 99 16.5t73.5 32t57.5 39.5l53 -59q-44 -30 -75 -48t-91 -37.5t-119 -19.5q-128 0 -213.5 96t-85.5 269z" />
<glyph horiz-adv-x="2656" d="M43 879q0 142 96.5 228.5t276.5 86.5q178 0 274 -86.5t96 -228.5t-96 -228t-274 -86q-180 0 -276.5 86t-96.5 228zM315 879q0 -93 101 -93q46 0 72 23.5t26 69.5q0 45 -26.5 69.5t-71.5 24.5q-48 0 -74.5 -24.5t-26.5 -69.5zM459 0l635 1176h288l-637 -1176h-286z M1057 295q0 142 96.5 228.5t276.5 86.5q178 0 274 -86.5t96 -228.5t-96 -227.5t-274 -85.5q-180 0 -276.5 85.5t-96.5 227.5zM1329 295q0 -92 101 -92q46 0 72 23t26 69q0 45 -26.5 69.5t-71.5 24.5q-48 0 -74.5 -24.5t-26.5 -69.5zM1870 295q0 142 96.5 228.5t276.5 86.5 q179 0 274.5 -86t95.5 -229t-95.5 -228t-274.5 -85q-180 0 -276.5 85.5t-96.5 227.5zM2142 295q0 -92 101 -92q98 0 98 92q0 45 -26 69.5t-72 24.5q-48 0 -74.5 -24.5t-26.5 -69.5z" />
<glyph horiz-adv-x="1286" d="M-12 0l403 602l-381 574h461l170 -340l170 340h463l-383 -576l405 -600h-477l-178 328l-178 -328h-475z" />
<glyph horiz-adv-x="1355" d="M84 723v88h45v365h594q261 0 393 -96t146 -269h49v-88h-49q-29 -363 -539 -363h-195v-360h-399v723h-45zM528 684h164q64 0 101.5 7.5t54.5 31.5h-320v-39zM528 811h318q-17 23 -54 30t-100 7h-164v-37z" />
<glyph horiz-adv-x="972" d="M57 219v70h35v264h430q364 0 387 -264h37v-70h-37q-23 -260 -387 -260h-141v-266h-289v526h-35zM381 190h119q89 0 110 29h-229v-29zM381 289h229q-18 28 -110 28h-119v-28z" />
<glyph horiz-adv-x="972" d="M57 1315v69h35v265h430q364 0 387 -265h37v-69h-37q-23 -260 -387 -260h-141v-267h-289v527h-35zM381 1286h119q89 0 110 29h-229v-29zM381 1384h229q-19 29 -110 29h-119v-29z" />
<glyph horiz-adv-x="919" d="M-12 -307l293 438l-277 422h334l123 -248l123 248h334l-277 -422l293 -438h-344l-129 241l-131 -241h-342z" />
<glyph horiz-adv-x="835" d="M51 338h279v-55q50 35 97.5 52t113.5 17q128 0 199 -89t71 -249q0 -157 -71.5 -246.5t-198.5 -89.5q-66 0 -113 17t-98 53v-305h-279v895zM330 -49q48 -53 116 -53q43 0 63.5 28t20.5 90q0 61 -20.5 89t-63.5 28q-66 0 -116 -55v-127z" />
<glyph horiz-adv-x="632" d="M-66 1530h246q0 -30 35.5 -50t95.5 -20q63 0 100.5 20t37.5 50h245q0 -133 -100.5 -208t-282.5 -75q-178 0 -277.5 75.5t-99.5 207.5zM115 0v1176h399v-1176h-399z" />
<glyph horiz-adv-x="622" d="M49 1247l260 297h443l-363 -297h-340zM106 0v1176h400v-1176h-400z" />
<glyph horiz-adv-x="389" d="M59 788v275h273v-275h-273zM59 1133v274h273v-274h-273z" />
<glyph horiz-adv-x="735" d="M39 1219q0 88 26.5 154t72.5 104.5t102.5 57.5t121.5 19h27l23 95h106l-26 -107l26 -6l27 113h106l-35 -138q69 -22 93 -32l-107 -203q-106 45 -186 45q-94 0 -94 -102q0 -103 94 -103q80 0 186 45l107 -205q-115 -48 -244 -67l-25 -101h-106l22 95q-16 0 -24 2l-23 -97 h-104l26 115q-88 33 -140 111.5t-52 204.5z" />
<glyph horiz-adv-x="835" d="M51 539v895h279v-56q51 36 98 53t113 17q128 0 199 -89t71 -249q0 -157 -71.5 -246.5t-198.5 -89.5q-66 0 -113 17t-98 53v-305h-279zM330 1047q49 -54 116 -54q43 0 63.5 28.5t20.5 90.5q0 61 -20.5 89t-63.5 28q-66 0 -116 -55v-127z" />
<glyph horiz-adv-x="1228" d="M98 0v1176h400v-1176h-400zM508 -72q52 17 87 30.5t58.5 29t35.5 26.5t18 32t7 34.5t1 44.5v1051h399v-1029q0 -61 -0.5 -89.5t-4.5 -76.5t-12.5 -70.5t-24.5 -58.5t-40 -55t-59.5 -45.5t-83 -43t-110.5 -34.5t-142 -34z" />
<glyph horiz-adv-x="835" d="M25 14q0 159 72 248.5t198 89.5q116 0 211 -69v55h278v-895h-278v303q-98 -68 -211 -68q-126 0 -198 89.5t-72 246.5zM305 16q0 -118 86 -118q67 0 115 53v127q-50 55 -115 55q-86 0 -86 -117z" />
<glyph horiz-adv-x="835" d="M25 1110q0 159 72 248.5t198 89.5q115 0 211 -70v56h278v-895h-278v303q-98 -68 -211 -68q-126 0 -198 89.5t-72 246.5zM305 1112q0 -119 86 -119q66 0 115 54v127q-50 55 -115 55q-86 0 -86 -117z" />
<glyph horiz-adv-x="598" d="M98 0v1176h400v-1176h-400z" />
<glyph horiz-adv-x="1021" d="M35 1053q127 67 208 94q139 47 277 47q205 0 329 -93t124 -241q0 -70 -26 -128t-65.5 -96t-100.5 -70t-115.5 -50.5t-126.5 -36.5l-17 -59h-231l-19 260q181 31 239 51.5t58 61.5q0 25 -27.5 49t-92.5 24q-114 0 -256 -82zM217 0v342h377v-342h-377z" />
<glyph horiz-adv-x="962" d="M66 788v861h288v-291h256v291h289v-861h-289v334h-256v-334h-288z" />
<glyph horiz-adv-x="1026" d="M49 315q0 70 26 128t65.5 96t100.5 70t115.5 50.5t126.5 36.5l17 60h231l19 -260q-181 -31 -239 -51.5t-58 -61.5q0 -25 27.5 -49.5t92.5 -24.5q114 0 256 82l158 -268q-127 -67 -208 -94q-139 -47 -277 -47q-205 0 -329 92.5t-124 240.5zM428 834v342h377v-342h-377z " />
<glyph horiz-adv-x="735" d="M33 -78q0 51 18.5 93t47 70t72.5 51.5t84.5 37.5t92.5 27l12 47h164l15 -193q-132 -23 -173.5 -38.5t-41.5 -47.5q0 -18 20 -36.5t66 -18.5q90 0 186 61l115 -192q-186 -105 -351 -105q-147 0 -237 68.5t-90 175.5zM305 307v246h275v-246h-275z" />
<glyph horiz-adv-x="735" d="M33 1018q0 51 18.5 93t47 70t72.5 51t84.5 37t92.5 27l12 47h164l15 -192q-132 -23 -173.5 -38.5t-41.5 -47.5q0 -18 20 -36.5t66 -18.5q90 0 186 61l115 -192q-186 -105 -351 -105q-147 0 -237 68.5t-90 175.5zM305 1403v246h275v-246h-275z" />
<glyph horiz-adv-x="733" d="M25 463q185 104 350 104q148 0 237.5 -68t89.5 -175q0 -51 -18.5 -93t-47 -70t-72.5 -51.5t-84.5 -37.5t-92.5 -27l-12 -47h-164l-14 192q132 23 173.5 38.5t41.5 47.5q0 18 -20 37t-66 19q-90 0 -187 -62zM156 -61h274v-246h-274v246z" />
<glyph horiz-adv-x="733" d="M25 1559q185 104 350 104q147 0 237 -68.5t90 -175.5q0 -51 -18.5 -93t-47 -70t-72.5 -51t-84.5 -37t-92.5 -27l-12 -47h-164l-14 192q132 23 173.5 38.5t41.5 47.5q0 18 -20 36.5t-66 18.5q-91 0 -187 -61zM156 788v246h274v-246h-274z" />
<glyph horiz-adv-x="962" d="M66 -307v860h288v-291h256v291h289v-860h-289v334h-256v-334h-288z" />
<glyph horiz-adv-x="735" d="M39 123q0 88 26.5 154.5t72.5 105t102.5 57.5t121.5 19h27l23 94h106l-26 -107l26 -6l27 113h106l-35 -137q56 -18 93 -33l-107 -203q-106 45 -186 45q-94 0 -94 -102q0 -103 94 -103q77 0 186 46l107 -205q-119 -50 -244 -68l-25 -100h-106l22 94q-16 0 -24 2l-23 -96 h-104l26 114q-88 33 -140 111.5t-52 204.5z" />
<glyph horiz-adv-x="1034" d="M59 590q0 119 37 210t101 144t142 79t169 26h31l30 127h146l-35 -144l35 -6l37 150h145l-45 -185q60 -16 133 -45l-145 -282q-154 59 -260 59q-67 0 -99 -36t-32 -97t32 -98t99 -37q106 0 260 59l145 -283q-163 -67 -332 -92l-30 -139h-148l31 129h-37l-29 -129h-145 l35 158q-124 43 -197.5 150.5t-73.5 281.5z" />
<glyph horiz-adv-x="389" d="M59 -33h273v-274h-273v274zM59 37v274h273v-274h-273z" />
<glyph horiz-adv-x="919" d="M-12 788l293 439l-277 422h334l123 -248l123 248h334l-277 -422l293 -439h-344l-129 242l-131 -242h-342z" />
<glyph horiz-adv-x="675" d="M25 16q0 87 26.5 153.5t72.5 105t102.5 58t121.5 19.5q147 0 330 -76l-107 -202q-103 43 -170 43q-94 0 -94 -101q0 -102 94 -102q67 0 170 43l107 -203q-183 -76 -328 -76q-66 0 -123 19.5t-103 58.5t-72.5 105.5t-26.5 154.5z" />
<glyph horiz-adv-x="1034" d="M59 590q0 112 32.5 199t89.5 140.5t128.5 83t155.5 34.5v129h270v-154q113 -23 250 -76l-145 -282q-154 59 -260 59q-67 0 -99 -36t-32 -97t32 -98t99 -37q106 0 260 59l145 -283q-101 -43 -250 -77v-154h-270v131q-84 6 -155.5 35.5t-128.5 83.5t-89.5 141t-32.5 199z " />
<glyph horiz-adv-x="1423" d="M0 856v209h135v111h400v-111h352v111h399v-111h135v-209h-135v-856h-399v455h-352v-455h-400v856h-135zM535 780h352v76h-352v-76z" />
<glyph horiz-adv-x="1349" d="M98 0v1176h400v-396h352v396h399v-1176h-399v455h-352v-455h-400z" />
<glyph horiz-adv-x="929" d="M31 1217q0 217 108 331.5t293 114.5q115 0 220 -24.5t227 -71.5l-129 -211q-164 49 -279 49q-72 0 -107.5 -50t-35.5 -136q0 -201 141 -201q70 0 147 63v11h-172v221h443v-525h-271v66q-100 -80 -219 -80q-156 0 -261 116.5t-105 326.5z" />
<glyph horiz-adv-x="1259" d="M-14 1176h450l191 -371l194 371h449l-443 -711v-465h-397v461z" />
<glyph horiz-adv-x="929" d="M31 121q0 217 108 331.5t293 114.5q115 0 220 -24.5t227 -71.5l-129 -211q-164 49 -279 49q-72 0 -107.5 -50t-35.5 -136q0 -201 141 -201q69 0 147 64v10h-172v221h443v-524h-271v65q-100 -80 -219 -80q-156 0 -261 116.5t-105 326.5z" />
<glyph horiz-adv-x="1302" d="M49 586q0 297 149.5 452.5t405.5 155.5q159 0 305.5 -33.5t311.5 -97.5l-179 -293q-225 66 -383 66q-101 0 -150.5 -67.5t-49.5 -180.5q0 -271 196 -271q91 0 205 89v4h-239v309h610v-719h-371v92q-135 -110 -303 -110q-104 0 -195 38.5t-161.5 112t-111 190.5t-40.5 263 zM489 1268v280h306v-280h-306z" />
<glyph horiz-adv-x="1302" d="M49 586q0 297 149.5 452.5t405.5 155.5q159 0 305.5 -33.5t311.5 -97.5l-179 -293q-225 66 -383 66q-101 0 -150.5 -67.5t-49.5 -180.5q0 -271 196 -271q91 0 205 89v4h-239v309h610v-719h-371v92q-135 -110 -303 -110q-104 0 -195 38.5t-161.5 112t-111 190.5t-40.5 263 zM524 -563l127 166h-125v293h287l12 -332l-229 -219z" />
<glyph horiz-adv-x="589" d="M51 -307v645h279v-131q8 22 24 43.5t44.5 46.5t75 39t104.5 10v-260q-63 0 -111.5 -21.5t-73.5 -52t-40.5 -61.5t-18.5 -53l-4 -21v-184h-279z" />
<glyph horiz-adv-x="1259" d="M-14 1176h450l191 -371l194 371h449l-443 -711v-465h-397v461zM371 1247l260 297h442l-362 -297h-340z" />
<glyph horiz-adv-x="1259" d="M-14 1176h450l191 -371l194 371h449l-443 -711v-465h-397v461zM279 1268v280h305v-280h-305zM676 1268v280h305v-280h-305z" />
<glyph horiz-adv-x="1302" d="M49 586q0 297 149.5 452.5t405.5 155.5q159 0 305.5 -33.5t311.5 -97.5l-179 -293q-225 66 -383 66q-101 0 -150.5 -67.5t-49.5 -180.5q0 -271 196 -271q91 0 205 89v4h-239v309h610v-719h-371v92q-135 -110 -303 -110q-104 0 -195 38.5t-161.5 112t-111 190.5t-40.5 263 zM260 1530h246q0 -30 35.5 -50t95.5 -20q63 0 100 20t37 50h246q0 -133 -100.5 -208t-282.5 -75q-178 0 -277.5 75.5t-99.5 207.5z" />
<glyph horiz-adv-x="2455" d="M23 123l145 268q95 -45 231 -84t213 -39q31 0 51 8t24.5 14.5t4.5 10.5q0 14 -13 24t-41 18t-56.5 14t-76 15.5t-83.5 18.5q-377 95 -377 363q0 150 117.5 247t341.5 97q144 0 295 -37q-27 62 -27 127q0 138 102.5 221.5t305.5 83.5h467v-522q198 127 391 127 q338 0 338 -346v-752h-420v649q0 63 -20.5 95t-75.5 32q-53 0 -110.5 -27t-102.5 -71v-678h-420v1319h-78q-91 0 -144 -42.5t-53 -129.5q0 -92 45 -146q25 -8 70 -26l-143 -246q-87 30 -197.5 56t-177.5 26q-42 0 -62 -11t-20 -26q0 -14 12 -23.5t39 -17.5t55 -14t76 -15.5 t86 -19.5q57 -14 104 -30.5t101 -46.5t90.5 -66.5t61 -93.5t24.5 -125q0 -156 -121 -250.5t-352 -94.5q-164 0 -338 44t-282 102z" />
<glyph horiz-adv-x="2404" d="M23 123l145 268q95 -45 231 -84t213 -39q31 0 51 8t24.5 14.5t4.5 10.5q0 14 -13 24t-41 18t-56.5 14t-76 15.5t-83.5 18.5q-377 95 -377 363q0 150 117.5 247t341.5 97q144 0 295 -37q-27 62 -27 127q0 138 102.5 221.5t305.5 83.5h467v-741l235 323h488l-363 -422 l424 -653h-453l-223 362l-108 -126v-236h-420v1319h-78q-91 0 -144 -42.5t-53 -129.5q0 -92 45 -146q25 -8 70 -26l-143 -246q-87 30 -197.5 56t-177.5 26q-42 0 -62 -11t-20 -26q0 -14 12 -23.5t39 -17.5t55 -14t76 -15.5t86 -19.5q57 -14 104 -30.5t101 -46.5t90.5 -66.5 t61 -93.5t24.5 -125q0 -156 -121 -250.5t-352 -94.5q-164 0 -338 44t-282 102z" />
<glyph horiz-adv-x="1734" d="M23 123l145 268q95 -45 231 -84t213 -39q31 0 51 8t24.5 14.5t4.5 10.5q0 14 -13 24t-41 18t-56.5 14t-76 15.5t-83.5 18.5q-377 95 -377 363q0 150 117.5 247t341.5 97q144 0 295 -37q-27 62 -27 127q0 138 102.5 221.5t305.5 83.5h467v-1493h-420v1319h-78 q-91 0 -144 -42.5t-53 -129.5q0 -92 45 -146q25 -8 70 -26l-143 -246q-87 30 -197.5 56t-177.5 26q-42 0 -62 -11t-20 -26q0 -14 12 -23.5t39 -17.5t55 -14t76 -15.5t86 -19.5q57 -14 104 -30.5t101 -46.5t90.5 -66.5t61 -93.5t24.5 -125q0 -156 -121 -250.5t-352 -94.5 q-164 0 -338 44t-282 102z" />
<glyph horiz-adv-x="1259" d="M-14 1176h450l191 -371l194 371h449l-443 -711v-465h-397v461zM190 1544h443l260 -297h-340z" />
<glyph horiz-adv-x="1302" d="M49 586q0 297 149.5 452.5t405.5 155.5q159 0 305.5 -33.5t311.5 -97.5l-179 -293q-225 66 -383 66q-101 0 -150.5 -67.5t-49.5 -180.5q0 -271 196 -271q91 0 205 89v4h-239v309h610v-719h-371v92q-135 -110 -303 -110q-104 0 -195 38.5t-161.5 112t-111 190.5t-40.5 263 z" />
<glyph horiz-adv-x="782" d="M66 788v861h708v-240h-420v-74h330v-235h-330v-312h-288z" />
<glyph horiz-adv-x="782" d="M66 -307v860h708v-240h-420v-73h330v-236h-330v-311h-288z" />
<glyph horiz-adv-x="1103" d="M98 0v1176h981v-328h-581v-98h454v-326h-454v-424h-400z" />
<glyph horiz-adv-x="956" d="M35 1087v105h74v47h-74v107h84q30 156 130.5 236.5t252.5 80.5q109 0 207 -31t221 -90l-129 -213q-159 76 -260 76q-72 0 -109 -59h215v-107h-241v-47h241v-105h-213q36 -55 107 -55q101 0 260 76l129 -213q-123 -59 -221 -90t-207 -31q-151 0 -251 79.5t-130 233.5h-86z " />
<glyph horiz-adv-x="956" d="M35 -8v104h74v47h-74v107h84q30 156 130.5 236.5t252.5 80.5q109 0 207 -31t221 -90l-129 -213q-159 76 -260 76q-72 0 -109 -59h215v-107h-241v-47h241v-104h-213q36 -55 107 -55q103 0 260 75l129 -213q-123 -59 -221 -90t-207 -31q-150 0 -250.5 80.5t-130.5 233.5 h-86z" />
<glyph horiz-adv-x="1341" d="M55 401v158h105v49h-105v158h121q40 210 179.5 319t349.5 109q149 0 285 -42.5t304 -123.5l-178 -293q-213 101 -358 101q-94 0 -144 -70h289v-158h-334v-49h334v-158h-282q48 -61 137 -61q147 0 358 100l178 -293q-166 -81 -303 -123t-286 -42q-209 0 -347 106t-180 313 h-123z" />
<glyph horiz-adv-x="403" d="M59 -33h273l14 -313l-217 -199l-70 88l121 150h-121v274zM59 37v274h273v-274h-273z" />
<glyph horiz-adv-x="403" d="M59 639l121 149h-121v275h273l14 -313l-217 -199zM59 1133v274h273v-274h-273z" />
<glyph horiz-adv-x="903" d="M-12 553h325l140 -272l139 272h326l-320 -518v-342h-289v338z" />
<glyph horiz-adv-x="2017" d="M43 539q0 116 28 210.5t75.5 158.5t113.5 107.5t139.5 63t155.5 19.5q88 0 209 -25q-14 35 -14 84q0 147 111.5 241.5t307.5 94.5q236 0 367 -109t131 -307v-2h289v-303h-289v-340q0 -31 7.5 -51t22 -27.5t25 -9.5t27.5 -2q13 0 29 3t33 9t29 10.5t27 11t17 7.5l144 -307 q-218 -99 -398 -99q-199 0 -290 113.5t-91 341.5v340h-145v303h145v25q0 118 -33.5 168.5t-115.5 50.5q-71 0 -121.5 -48.5t-50.5 -133.5q0 -72 37 -121l100 -39l-162 -309q-175 73 -272 73q-82 0 -122 -54.5t-40 -147.5q0 -94 40.5 -149.5t121.5 -55.5q94 0 272 74 l162 -310q-293 -121 -508 -121q-104 0 -194 33t-163 98.5t-115 176t-42 254.5z" />
<glyph horiz-adv-x="743" d="M33 625v235h692v-223q-13 -14 -34.5 -40t-76.5 -102t-97 -149.5t-76.5 -170t-34.5 -175.5h-297q0 78 30.5 169.5t70 162t90 141.5t76.5 102t44 50h-387z" />
<glyph horiz-adv-x="743" d="M33 1198v236h692v-224q-13 -14 -34.5 -40t-76.5 -102t-97 -149.5t-76.5 -170t-34.5 -175.5h-297q0 78 30.5 169.5t70 162t90 141.5t76.5 102t44 50h-387z" />
<glyph horiz-adv-x="1136" d="M33 817v359h1087v-338q-11 -13 -29.5 -35.5t-71.5 -94.5t-101.5 -145.5t-107.5 -180t-101.5 -206.5t-71.5 -216.5t-29 -217.5h-448q0 134 47.5 289t110 276.5t141.5 242t123 177t73 90.5h-622z" />
<glyph horiz-adv-x="1671" d="M43 539q0 116 28 210.5t75.5 158.5t113.5 107.5t139.5 63t155.5 19.5q80 0 215 -27q-20 47 -20 117q0 138 98.5 221.5t290.5 83.5h444v-1493h-420v1319h-35q-91 0 -145.5 -43t-54.5 -127q0 -79 43 -137q16 -5 33 -11.5t34.5 -13.5t26.5 -10l-162 -309q-175 73 -272 73 q-82 0 -122 -54.5t-40 -147.5q0 -94 40.5 -149.5t121.5 -55.5q94 0 272 74l162 -310q-293 -121 -508 -121q-104 0 -194 33t-163 98.5t-115 176t-42 254.5z" />
<glyph horiz-adv-x="2340" d="M43 539q0 116 28 210.5t75.5 158.5t113.5 107.5t139.5 63t155.5 19.5q80 0 215 -27q-20 47 -20 117q0 138 98.5 221.5t290.5 83.5h444v-741l236 323h487l-362 -422l423 -653h-452l-223 362l-109 -126v-236h-420v1319h-35q-91 0 -145.5 -43t-54.5 -127q0 -79 43 -137 q16 -5 33 -11.5t34.5 -13.5t26.5 -10l-162 -309q-175 73 -272 73q-82 0 -122 -54.5t-40 -147.5q0 -94 40.5 -149.5t121.5 -55.5q94 0 272 74l162 -310q-293 -121 -508 -121q-104 0 -194 33t-163 98.5t-115 176t-42 254.5z" />
<glyph horiz-adv-x="1630" d="M49 991v185h588v-175q-11 -12 -30 -33t-67.5 -84.5t-85.5 -124t-67.5 -141t-30.5 -147.5h-233q0 65 26.5 141.5t61.5 135.5t78 117t66.5 85t37.5 41h-344zM307 0l580 1176h246l-582 -1176h-244zM885 197q0 120 159 192q-108 65 -108 152q0 78 77.5 127t221.5 49 q143 0 222 -49.5t79 -126.5q0 -90 -111 -152q160 -69 160 -192q0 -96 -91.5 -152.5t-258.5 -56.5t-258.5 56.5t-91.5 152.5zM1114 217q0 -27 33 -44t88 -17q54 0 87.5 17.5t33.5 43.5q0 29 -31 48.5t-90 41.5q-61 -24 -91 -43.5t-30 -46.5zM1155 510q0 -32 78 -57 q80 26 80 57q0 15 -21 31t-57 16t-58 -16t-22 -31z" />
<glyph horiz-adv-x="2392" d="M43 539q0 116 28 210.5t75.5 158.5t113.5 107.5t139.5 63t155.5 19.5q80 0 215 -27q-20 47 -20 117q0 138 98.5 221.5t290.5 83.5h444v-522q198 127 391 127q338 0 338 -346v-752h-420v649q0 63 -20.5 95t-75.5 32q-53 0 -110.5 -27t-102.5 -71v-678h-420v1319h-35 q-91 0 -145.5 -43t-54.5 -127q0 -79 43 -137q16 -5 33 -11.5t34.5 -13.5t26.5 -10l-162 -309q-175 73 -272 73q-82 0 -122 -54.5t-40 -147.5q0 -94 40.5 -149.5t121.5 -55.5q94 0 272 74l162 -310q-293 -121 -508 -121q-104 0 -194 33t-163 98.5t-115 176t-42 254.5z" />
<glyph horiz-adv-x="903" d="M-12 1649h325l140 -273l139 273h326l-320 -519v-342h-289v338z" />
<glyph horiz-adv-x="718" d="M10 -231l96 174q60 -27 146.5 -50.5t134.5 -23.5q43 0 43 10q0 7 -22 12t-67.5 12t-76.5 15q-241 57 -241 221q0 92 74.5 152.5t219.5 60.5q92 0 191.5 -23t171.5 -53l-96 -159q-159 47 -238 47q-45 0 -45 -10q0 -9 18.5 -14t67 -13t84.5 -16q36 -9 64.5 -18.5t62.5 -28 t57 -41t38.5 -57.5t15.5 -77q0 -94 -76 -152.5t-225 -58.5q-103 0 -215.5 27.5t-182.5 63.5z" />
<glyph horiz-adv-x="1382" d="M12 438v301h127v437h516q341 0 508.5 -139.5t167.5 -448.5t-167.5 -448.5t-508.5 -139.5h-516v438h-127zM541 336h73q54 0 91.5 3t77 11.5t64.5 25.5t46.5 44.5t31 69.5t9.5 98t-9.5 98t-31 69.5t-46.5 44.5t-64.5 25.5t-77 11.5t-91.5 3h-73v-101h215v-301h-215v-102z " />
<glyph horiz-adv-x="882" d="M45 362q0 224 164 368t428 144q41 0 78.5 -3.5t54.5 -6.5l18 -4l-65 -221q-37 6 -84 6q-186 0 -260 -121q80 37 172 37q127 0 211 -71.5t84 -194.5q0 -131 -104.5 -220t-280.5 -89q-105 0 -187 31t-131 84.5t-73.5 119.5t-24.5 141zM334 317q4 -102 119 -102q54 0 80 21 t26 47q0 34 -30 51.5t-78 17.5q-67 0 -117 -35z" />
<glyph horiz-adv-x="882" d="M45 936q0 224 164 368t428 144q41 0 78.5 -3.5t54.5 -6.5l18 -4l-65 -222q-37 7 -84 7q-186 0 -260 -121q80 37 172 37q127 0 211 -72t84 -195q0 -131 -104.5 -220t-280.5 -89q-105 0 -187 31t-131 84.5t-73.5 120t-24.5 141.5zM334 891q4 -103 119 -103q54 0 80 21 t26 47q0 34 -30 52t-78 18q-67 0 -117 -35z" />
<glyph horiz-adv-x="1343" d="M57 600q0 187 67.5 346t188 271.5t294 175.5t378.5 63q63 0 122 -5.5t87 -10.5l27 -6l-101 -338q-59 10 -133 10q-319 0 -432 -250q119 76 289 76q202 0 334.5 -121.5t132.5 -323.5q0 -104 -41.5 -196.5t-117 -162t-190.5 -110.5t-253 -41q-133 0 -242.5 34t-184.5 92.5 t-126.5 138.5t-75 169.5t-23.5 188.5zM498 537q1 -62 21.5 -106t52.5 -65t62 -29.5t62 -8.5q91 0 134.5 42.5t43.5 98.5q0 67 -49.5 106t-130.5 39q-119 0 -196 -77z" />
<glyph horiz-adv-x="493" d="M109 -207v694h274v-694h-274zM109 680v694h274v-694h-274z" />
<glyph horiz-adv-x="1208" d="M51 0v303l553 537h-516v336h1047v-302l-551 -538h561v-336h-1094z" />
<glyph horiz-adv-x="497" d="M10 612v150h142v907h-142v150h430v-1207h-430z" />
<glyph horiz-adv-x="817" d="M66 788v861h708v-240h-420v-72h342v-235h-342v-74h428v-240h-716z" />
<glyph horiz-adv-x="923" d="M27 -152l575 1479h283l-576 -1479h-282z" />
<glyph horiz-adv-x="1153" d="M98 0v1176h981v-328h-581v-96h471v-326h-471v-98h589v-328h-6q-184 -109 -184 -188q0 -19 9 -32t21 -19t31.5 -9t32 -3t31.5 0.5t22 0.5l-34 -170q-2 0 -24.5 -0.5t-37.5 -0.5t-44 2t-50 5t-50 10t-49.5 16.5t-43 24.5t-36.5 33.5t-23 45t-9 57.5q0 130 199 227h-744z " />
<glyph horiz-adv-x="344" />
<glyph horiz-adv-x="344" />
<glyph horiz-adv-x="497" d="M10 -334h142v907h-142v150h430v-1206h-430v149z" />
<glyph horiz-adv-x="1378" d="M98 0v1176h406l375 -605v605h399v-1098q0 -56 -3.5 -94t-14 -80t-31.5 -70.5t-55.5 -58t-85.5 -52t-122 -43.5t-165 -40l-129 288q157 41 196 84l-370 594v-606h-400z" />
<glyph horiz-adv-x="1095" d="M70 0v262q7 0 19.5 1t44.5 9t58.5 20.5t51 40t32.5 64.5h-186v211h119q-34 56 -50 84t-34.5 85t-18.5 112q0 146 106.5 225.5t301.5 79.5q86 0 166.5 -16t152 -47.5t112.5 -53t99 -57.5l-167 -250q-171 96 -277 96q-48 0 -69 -9.5t-21 -33.5q0 -28 18 -60.5t48.5 -76.5 t46.5 -78h286v-211h-268q-20 -44 -76 -69h461v-328h-956z" />
<glyph horiz-adv-x="784" d="M49 -119q5 0 14 1t33 7t43.5 16t37.5 31t24 48h-140v153h93q-24 38 -36.5 60.5t-26 64t-13.5 82.5q0 106 77 164.5t216 58.5q63 0 121 -11.5t110.5 -35t80 -38.5t71.5 -42l-121 -178q-126 70 -201 70q-65 0 -65 -35q0 -21 13 -45t35 -57t34 -58h208v-153h-194 q-14 -38 -55 -56h333v-235h-692v188z" />
<glyph horiz-adv-x="784" d="M49 788v189q5 0 14 1t33 7t43.5 15.5t37.5 30.5t24 48h-140v154h93q-24 38 -36.5 60.5t-26 64t-13.5 82.5q0 106 77 164.5t216 58.5q63 0 121 -11.5t110.5 -35t80 -38.5t71.5 -42l-121 -178q-124 69 -201 69q-65 0 -65 -34q0 -21 13 -45t35 -57t34 -58h208v-154h-194 q-14 -37 -55 -55h333v-236h-692z" />
<glyph horiz-adv-x="743" d="M41 -33h195v1235h-195v207h594v-1649h-594v207z" />
<glyph horiz-adv-x="1153" d="M98 0v1176h981v-328h-581v-96h471v-326h-471v-98h589v-328h-989zM262 1298v234h660v-234h-660z" />
<glyph horiz-adv-x="817" d="M66 -307v860h708v-240h-420v-71h342v-236h-342v-74h428v-239h-716z" />
<glyph horiz-adv-x="1153" d="M98 0v1176h981v-328h-581v-96h471v-326h-471v-98h589v-328h-989zM147 1544h443l260 -297h-340z" />
<glyph horiz-adv-x="1153" d="M98 0v1176h981v-328h-581v-96h471v-326h-471v-98h589v-328h-989zM440 1268v280h305v-280h-305z" />
<glyph horiz-adv-x="1153" d="M98 0v1176h981v-328h-581v-96h471v-326h-471v-98h589v-328h-989zM242 1268v280h305v-280h-305zM639 1268v280h305v-280h-305z" />
<glyph horiz-adv-x="1153" d="M98 0v1176h981v-328h-581v-96h471v-326h-471v-98h589v-328h-989zM174 1247l229 297h377l230 -297h-281l-137 129l-137 -129h-281z" />
<glyph horiz-adv-x="854" d="M12 117l125 190q157 -84 279 -84q100 0 100 45q0 14 -7.5 25t-23 17t-30.5 10t-40 5t-40 1.5t-42 0t-36 -0.5h-41v235h47q7 0 28 -0.5t33.5 0t33 1t32.5 4t25.5 8.5t19.5 13.5t6 20.5q0 31 -69 31q-103 0 -244 -74l-115 176q179 133 408 133q156 0 232.5 -61t76.5 -156 q0 -68 -35 -110t-94 -72q73 -25 120.5 -83.5t47.5 -129.5q0 -54 -17.5 -100t-56 -87t-111 -65t-171.5 -24q-220 0 -441 131z" />
<glyph horiz-adv-x="854" d="M12 690l125 191q157 -84 279 -84q100 0 100 45q0 14 -7.5 25t-23 17t-30.5 10t-39.5 5t-40.5 1t-42 -0.5t-36 -0.5h-41v236h47q7 0 28 -0.5t33.5 0t33 1t32.5 4t25.5 8.5t19.5 13.5t6 20.5q0 30 -69 30q-105 0 -244 -73l-115 176q179 133 408 133q156 0 232.5 -61 t76.5 -156q0 -68 -35 -110t-94 -72q73 -25 120.5 -83.5t47.5 -129.5q0 -54 -17.5 -100t-56 -87.5t-111 -65.5t-171.5 -24q-220 0 -441 131z" />
<glyph horiz-adv-x="1290" d="M0 -78l188 291q255 -135 439 -135q178 0 178 100q0 23 -8.5 41.5t-27.5 31t-37.5 22t-50.5 15t-53.5 9t-59 5t-55 1.5h-53.5h-8.5h-7.5h-61v359h72q150 0 209 17q81 25 81 85q0 72 -122 72q-85 0 -189.5 -37t-193.5 -84l-177 268q295 211 633 211q244 0 365 -100 t121 -256q0 -203 -209 -310q119 -40 195.5 -138.5t76.5 -219.5q0 -70 -16.5 -132.5t-57.5 -122.5t-103.5 -103.5t-160.5 -70t-223 -26.5q-345 0 -684 207z" />
<glyph horiz-adv-x="1208" d="M51 0v303l553 537h-516v336h1047v-302l-551 -538h561v-336h-1094zM356 1247l260 297h443l-363 -297h-340z" />
<glyph horiz-adv-x="497" d="M59 612v1207h430v-150h-141v-907h141v-150h-430z" />
<glyph horiz-adv-x="1816" d="M41 563l98 150q130 -70 240 -70q104 0 104 45q0 14 -8.5 24t-22.5 15.5t-32.5 9.5t-38.5 4.5t-41 1.5t-39 0h-18h-35v185h39q105 0 135 12q28 12 29 33q0 31 -74 31q-91 0 -209 -60l-92 137q155 107 340 107q132 0 197 -50t65 -128q0 -100 -117 -150q66 -21 109 -69 t43 -107q0 -44 -15.5 -82t-49 -71t-95 -52.5t-145.5 -19.5q-191 0 -367 104zM492 0l581 1176h244l-582 -1176h-243zM1069 197q0 68 43 113t117 79q-109 65 -109 152q0 78 78 127t221 49t222 -49.5t79 -126.5q0 -90 -110 -152q159 -68 159 -192q0 -96 -91.5 -152.5 t-258.5 -56.5t-258.5 56.5t-91.5 152.5zM1298 217q0 -27 33 -44t88 -17q54 0 87.5 17.5t33.5 43.5q0 29 -31 48.5t-90 41.5q-61 -24 -91 -43.5t-30 -46.5zM1339 510q0 -32 78 -57q80 26 80 57q0 15 -21 31t-57 16t-58 -16t-22 -31z" />
<glyph horiz-adv-x="1818" d="M41 563l98 150q130 -70 240 -70q104 0 104 45q0 14 -8.5 24t-22.5 15.5t-32.5 9.5t-38.5 4.5t-41 1.5t-39 0h-18h-35v185h39q105 0 135 12q28 12 29 33q0 31 -74 31q-91 0 -209 -60l-92 137q155 107 340 107q132 0 197 -50t65 -128q0 -100 -117 -150q66 -21 109 -69 t43 -107q0 -44 -15.5 -82t-49 -71t-95 -52.5t-145.5 -19.5q-191 0 -367 104zM492 0l581 1176h244l-582 -1176h-243zM1102 92l98 160q105 -74 211 -74q54 0 86.5 15t32.5 43q0 26 -30 44.5t-89 18.5q-68 0 -143 -35l-127 80l43 361h545v-183h-355l-4 -57q52 10 98 10 q143 0 217 -68.5t74 -168.5q0 -106 -80.5 -178t-234.5 -72q-169 0 -342 104z" />
<glyph horiz-adv-x="497" d="M59 -483v1206h430v-150h-141v-907h141v-149h-430z" />
<glyph horiz-adv-x="1153" d="M98 0v1176h981v-328h-581v-96h471v-326h-471v-98h589v-328h-989zM174 1544h281l137 -129l137 129h281l-230 -297h-377z" />
</font>
</defs>
</svg>
